<?xml version="1.0" standalone="no"?>
<!DOCTYPE svg PUBLIC "-//W3C//DTD SVG 20010904//EN"
 "http://www.w3.org/TR/2001/REC-SVG-20010904/DTD/svg10.dtd">
<svg version="1.0" xmlns="http://www.w3.org/2000/svg"
 width="868.000000pt" height="868.000000pt" viewBox="0 0 868.000000 868.000000"
 preserveAspectRatio="xMidYMid meet">
<metadata>
Created by potrace 1.14, written by Peter Selinger 2001-2017
</metadata>
<g transform="translate(0.000000,868.000000) scale(0.100000,-0.100000)"
fill="#000000" stroke="none">
<path d="M4089 8675 c-2 -1 -44 -6 -94 -9 -87 -7 -105 -8 -210 -22 -267 -33
-515 -89 -785 -176 -114 -36 -284 -100 -385 -144 -22 -10 -42 -18 -45 -19 -12
-2 -281 -139 -335 -170 -33 -19 -67 -38 -75 -42 -45 -21 -308 -195 -409 -270
-273 -206 -538 -456 -746 -706 -22 -27 -47 -57 -56 -67 -8 -10 -24 -31 -35
-45 -10 -15 -32 -43 -48 -63 -192 -247 -413 -637 -550 -973 -36 -87 -132 -365
-141 -403 -2 -12 -15 -61 -29 -109 -14 -49 -27 -100 -30 -115 -3 -15 -16 -83
-31 -152 -61 -292 -80 -499 -80 -855 0 -281 8 -397 40 -620 17 -113 58 -330
77 -400 6 -22 11 -44 13 -50 65 -285 246 -744 403 -1020 19 -33 46 -80 60
-104 13 -25 54 -90 90 -145 355 -550 824 -1011 1380 -1355 46 -28 86 -51 89
-51 3 0 17 -8 31 -19 48 -33 244 -132 390 -197 176 -78 414 -164 602 -218 181
-51 523 -116 687 -131 32 -3 99 -9 148 -14 92 -8 644 -7 680 2 11 3 54 8 95
11 261 24 580 90 885 185 55 17 109 35 120 40 11 5 57 23 103 40 212 81 496
219 667 324 77 48 243 154 255 164 8 6 60 45 115 85 181 134 369 300 529 467
33 35 70 73 81 85 95 99 296 354 391 495 225 335 394 679 520 1056 49 146 115
387 127 460 3 17 10 50 15 75 14 57 39 217 47 295 4 33 9 71 11 85 25 143 25
757 -1 935 -2 17 -7 48 -9 70 -7 53 -14 102 -32 205 -21 125 -24 142 -34 180
-5 19 -11 46 -14 60 -2 14 -16 68 -30 120 -134 508 -357 981 -659 1405 -84
118 -70 100 -195 250 -161 194 -278 316 -477 495 -166 150 -497 390 -661 480
-21 12 -70 39 -109 61 -262 147 -515 251 -920 378 -67 21 -306 77 -370 86 -11
2 -60 10 -110 18 -100 17 -150 24 -245 33 -36 3 -78 8 -95 11 -34 5 -601 13
-606 8z"/>
</g>
</svg>
