<?xml version="1.0" standalone="no"?>
<!DOCTYPE svg PUBLIC "-//W3C//DTD SVG 20010904//EN"
 "http://www.w3.org/TR/2001/REC-SVG-20010904/DTD/svg10.dtd">
<svg version="1.0" xmlns="http://www.w3.org/2000/svg"
 width="550.000000pt" height="550.000000pt" viewBox="0 0 550.000000 550.000000"
 preserveAspectRatio="xMidYMid meet">
<metadata>
Created by potrace 1.14, written by Peter Selinger 2001-2017
</metadata>
<g transform="translate(0.000000,550.000000) scale(0.100000,-0.100000)"
fill="#000000" stroke="none">
<path d="M1210 4474 c-218 -38 -381 -99 -525 -197 -69 -47 -585 -475 -585
-486 0 -4 138 -173 307 -376 170 -204 584 -702 921 -1107 650 -781 670 -803
837 -901 301 -176 692 -216 1020 -105 97 33 200 82 281 133 61 39 851 696 879
731 19 24 19 24 0 44 -15 14 -44 22 -111 30 -264 29 -524 158 -710 352 -29 29
-319 375 -646 768 -327 393 -630 749 -674 790 -160 153 -355 254 -584 305 -72
16 -353 29 -410 19z"/>
<path d="M4235 4329 c-33 -5 -98 -20 -145 -35 -166 -51 -280 -124 -406 -257
-180 -191 -264 -421 -251 -687 7 -125 27 -215 74 -326 45 -108 97 -179 212
-294 81 -80 126 -116 191 -152 406 -222 903 -123 1190 237 71 90 131 206 166
320 25 82 28 105 28 255 1 179 -13 258 -69 384 -62 140 -194 301 -320 391
-190 135 -441 197 -670 164z"/>
</g>
</svg>
