<svg xmlns="http://www.w3.org/2000/svg" id="app-store-badge" x="0px" y="0px" viewBox="0 0 130 40"><path id="background-shape" fill="#000" d="M125 40H5c-2.75 0-5-2.25-5-5V5c0-2.75 2.25-5 5-5h120c2.75 0 5 2.25 5 5v30c0 2.75-2.25 5-5 5z"></path><path id="apple-logo" fill="#fff" d="M31.53 23.71c-.02.08-.47 1.64-1.6 3.23-.93 1.4-1.9 2.77-3.46 2.8-1.52.03-2.02-.9-3.76-.9-1.75 0-2.3.87-3.74.93-1.48.05-2.62-1.5-3.59-2.88-1.93-2.83-3.44-7.98-1.42-11.48a5.56 5.56 0 0 1 4.68-2.85c1.48-.03 2.86 1 3.77 1 .9 0 2.6-1.23 4.35-1.05a5.3 5.3 0 0 1 4.18 2.26 5 5 0 0 0 .59 8.94zm-5.91-13.06A5.1 5.1 0 0 0 26.78 7a5.18 5.18 0 0 0-3.35 1.74 4.85 4.85 0 0 0-1.2 3.51c1.27.1 2.57-.64 3.39-1.6z"></path><g id="app-store"><path fill="#fff" d="M47.28 27.06h-4.95l-1.19 3.5h-2.1l4.7-12.98h2.17l4.69 12.99h-2.13l-1.2-3.51zm-4.44-1.62h3.92l-1.93-5.7h-.05l-1.94 5.7zM60.72 25.83c0 2.95-1.57 4.84-3.95 4.84-1.35 0-2.42-.6-2.98-1.66h-.04v4.69H51.8V21.1h1.88v1.57h.03A3.36 3.36 0 0 1 56.74 21c2.4 0 3.98 1.9 3.98 4.83zm-2 0c0-1.91-.98-3.17-2.5-3.17-1.48 0-2.48 1.28-2.48 3.17 0 1.91 1 3.19 2.48 3.19 1.52 0 2.5-1.25 2.5-3.19zM71.14 25.83c0 2.95-1.57 4.84-3.95 4.84-1.35 0-2.42-.6-2.98-1.66h-.04v4.69h-1.94V21.1h1.88v1.57h.03A3.36 3.36 0 0 1 67.16 21c2.4 0 3.98 1.9 3.98 4.83zm-2 0c0-1.91-.98-3.17-2.5-3.17-1.48 0-2.48 1.28-2.48 3.17 0 1.91 1 3.19 2.48 3.19 1.52 0 2.5-1.25 2.5-3.19zM78.03 26.95c.14 1.29 1.4 2.13 3.1 2.13 1.64 0 2.82-.84 2.82-2 0-1.01-.7-1.62-2.4-2.03l-1.68-.4c-2.38-.58-3.49-1.7-3.49-3.5 0-2.25 1.96-3.78 4.73-3.78 2.74 0 4.62 1.53 4.69 3.77h-1.97c-.11-1.3-1.18-2.07-2.75-2.07s-2.64.79-2.64 1.94c0 .92.69 1.46 2.36 1.87l1.43.35c2.67.63 3.77 1.7 3.77 3.6 0 2.43-1.93 3.95-5 3.95-2.89 0-4.83-1.48-4.96-3.83h1.99zM90.2 18.86v2.24H92v1.54h-1.8v5.22c0 .8.36 1.19 1.15 1.19.2 0 .51-.03.64-.05v1.53c-.22.06-.65.1-1.08.1-1.92 0-2.66-.73-2.66-2.56v-5.43h-1.38V21.1h1.38v-2.24h1.95zM93.04 25.83c0-2.97 1.76-4.85 4.5-4.85s4.48 1.88 4.48 4.85c0 3-1.73 4.85-4.49 4.85-2.75 0-4.49-1.86-4.49-4.85zm7 0c0-2.04-.93-3.25-2.5-3.25s-2.52 1.22-2.52 3.25c0 2.06.94 3.25 2.51 3.25s2.51-1.2 2.51-3.25zM103.62 21.1h1.86v1.61h.04a2.26 2.26 0 0 1 2.28-1.7 3 3 0 0 1 .67.06v1.82c-.16-.06-.5-.12-.88-.12-1.25 0-2.02.85-2.02 2.18v5.62h-1.95V21.1zM117.43 27.79c-.27 1.72-1.94 2.9-4.08 2.9-2.75 0-4.46-1.85-4.46-4.81 0-2.97 1.71-4.9 4.38-4.9 2.62 0 4.26 1.8 4.26 4.67v.67h-6.68v.12c0 1.62 1.01 2.68 2.54 2.68 1.08 0 1.93-.51 2.2-1.33h1.84zm-6.57-2.83h4.73c-.05-1.45-.97-2.4-2.32-2.4-1.34 0-2.31.97-2.41 2.4z"></path></g><g id="download-on-the"><path fill="#fff" d="M42.6 7.8c1.85 0 2.93 1.14 2.93 3.1 0 2-1.07 3.15-2.93 3.15h-2.26V7.8h2.26zm-1.29 5.36h1.18c1.3 0 2.06-.8 2.06-2.24 0-1.4-.77-2.23-2.06-2.23h-1.18v4.47zM46.63 11.69c0-1.52.85-2.44 2.22-2.44s2.22.92 2.22 2.44c0 1.53-.84 2.45-2.22 2.45-1.38 0-2.22-.92-2.22-2.45zm3.48 0c0-1.02-.45-1.62-1.26-1.62-.8 0-1.26.6-1.26 1.62 0 1.03.45 1.62 1.26 1.62.8 0 1.26-.6 1.26-1.62zM56.97 14.05h-.96l-.97-3.47h-.08L54 14.05h-.95l-1.3-4.71h.94l.85 3.6h.07l.96-3.6h.9l.96 3.6h.08l.84-3.6h.93l-1.3 4.7zM59.36 9.34h.9v.75h.06c.23-.53.7-.84 1.4-.84 1.06 0 1.64.63 1.64 1.75v3.05h-.93v-2.82c0-.75-.33-1.13-1.02-1.13s-1.12.46-1.12 1.2v2.75h-.93V9.34zM64.84 7.5h.93v6.55h-.93V7.5zM67.06 11.69c0-1.52.85-2.44 2.22-2.44s2.22.92 2.22 2.44c0 1.53-.84 2.45-2.22 2.45-1.38 0-2.22-.92-2.22-2.45zm3.48 0c0-1.02-.45-1.62-1.26-1.62-.8 0-1.26.6-1.26 1.62 0 1.03.45 1.62 1.26 1.62.8 0 1.26-.6 1.26-1.62zM72.48 12.72c0-.85.63-1.34 1.75-1.41l1.28-.07v-.41c0-.5-.33-.78-.97-.78-.52 0-.88.2-.98.52h-.9c.1-.8.86-1.32 1.92-1.32 1.18 0 1.85.59 1.85 1.58v3.22h-.9v-.66h-.07c-.28.47-.8.73-1.41.73-.91 0-1.57-.54-1.57-1.4zm3.03-.4v-.4l-1.15.07c-.65.05-.95.27-.95.68 0 .43.37.67.88.67.7 0 1.22-.44 1.22-1.03zM77.65 11.69c0-1.49.77-2.43 1.96-2.43.64 0 1.18.3 1.44.83h.07V7.5h.93v6.55h-.9v-.75h-.07c-.28.52-.83.82-1.47.82-1.2 0-1.96-.94-1.96-2.43zm.96 0c0 1 .47 1.6 1.26 1.6.78 0 1.27-.6 1.27-1.6 0-.98-.5-1.6-1.27-1.6-.78 0-1.26.61-1.26 1.6zM85.9 11.69c0-1.52.84-2.44 2.22-2.44 1.37 0 2.21.92 2.21 2.44 0 1.53-.84 2.45-2.21 2.45-1.38 0-2.23-.92-2.23-2.45zm3.48 0c0-1.02-.46-1.62-1.26-1.62-.81 0-1.27.6-1.27 1.62 0 1.03.46 1.62 1.27 1.62.8 0 1.26-.6 1.26-1.62zM91.58 9.34h.9v.75h.07c.22-.53.7-.84 1.4-.84 1.05 0 1.63.63 1.63 1.75v3.05h-.93v-2.82c0-.75-.33-1.13-1.01-1.13-.7 0-1.13.46-1.13 1.2v2.75h-.93V9.34zM100.83 8.17v1.19h1.02v.78h-1.02v2.42c0 .5.2.71.67.71.14 0 .22 0 .35-.02v.78c-.15.02-.32.04-.5.04-1.04 0-1.45-.36-1.45-1.27v-2.66h-.75v-.78h.75v-1.2h.93zM103.12 7.5h.92v2.6h.08c.22-.53.72-.85 1.43-.85 1 0 1.62.64 1.62 1.76v3.04h-.93v-2.81c0-.76-.35-1.14-1-1.14-.77 0-1.19.48-1.19 1.2v2.75h-.93V7.5zM112.6 12.78c-.22.84-.97 1.36-2.05 1.36-1.35 0-2.17-.93-2.17-2.43s.84-2.46 2.17-2.46c1.3 0 2.1.9 2.1 2.37v.33h-3.33V12c.03.82.51 1.35 1.26 1.35.56 0 .94-.2 1.12-.57h.9zm-3.28-1.52h2.38c-.02-.74-.47-1.22-1.16-1.22s-1.17.48-1.22 1.22z"></path></g></svg>