<?xml version="1.0" standalone="no"?>
<!DOCTYPE svg PUBLIC "-//W3C//DTD SVG 20010904//EN"
 "http://www.w3.org/TR/2001/REC-SVG-20010904/DTD/svg10.dtd">
<svg version="1.0" xmlns="http://www.w3.org/2000/svg"
 width="446.000000pt" height="386.000000pt" viewBox="0 0 446.000000 386.000000"
 preserveAspectRatio="xMidYMid meet">

<g transform="translate(0.000000,386.000000) scale(0.100000,-0.100000)"
fill="#ffffff" stroke="none">
<path d="M1895 3653 c-107 -13 -310 -59 -397 -89 -625 -216 -1081 -767 -1163
-1407 -44 -345 7 -640 167 -962 320 -644 1004 -1034 1715 -977 243 20 454 74
653 168 506 240 869 701 980 1242 41 202 47 504 12 580 -36 78 -156 84 -202
10 -18 -29 -20 -51 -20 -218 0 -199 -11 -293 -55 -444 -49 -170 -169 -405
-262 -513 l-32 -38 -1 505 c0 476 -2 507 -20 547 -46 103 -182 111 -242 14
l-23 -36 -5 -649 -5 -649 -80 -54 -80 -54 -7 143 c-3 79 -6 313 -7 520 0 410
-1 413 -57 457 -64 50 -169 30 -204 -40 -19 -37 -20 -61 -20 -613 0 -401 -3
-577 -11 -581 -13 -9 -118 -34 -141 -35 -16 0 -17 28 -20 344 -3 330 -4 346
-24 373 -30 42 -81 65 -129 59 l-40 -5 -20 51 c-24 61 -57 88 -117 95 -51 6
-95 -12 -126 -52 -19 -23 -20 -46 -24 -444 -2 -231 -7 -423 -10 -427 -4 -3
-40 1 -81 10 l-75 17 -6 152 c-4 84 -6 370 -5 637 3 445 1 488 -15 518 -35 66
-119 90 -193 56 -71 -34 -67 -2 -73 -666 l-5 -598 -85 48 -85 47 -5 386 c-6
426 -5 420 -72 455 -40 21 -119 14 -156 -13 -45 -34 -51 -68 -52 -333 l-1
-245 -51 55 c-67 72 -138 181 -198 305 -48 100 -106 252 -99 259 2 2 78 40
169 84 91 44 325 159 521 255 321 159 361 176 412 178 l57 2 69 -64 c60 -56
69 -69 70 -102 3 -103 103 -178 196 -147 73 24 125 90 125 161 0 23 19 56 78
132 43 56 99 132 125 169 26 37 66 89 89 115 35 41 48 49 89 54 65 9 114 41
136 90 16 36 39 53 283 201 146 89 358 219 472 290 195 120 211 128 258 128
161 0 232 161 120 272 -35 35 -42 38 -95 38 -100 0 -156 -53 -159 -151 l-1
-47 -110 -70 c-60 -38 -175 -109 -255 -157 -158 -96 -199 -121 -399 -245
l-133 -82 -40 22 c-32 18 -51 21 -94 18 -65 -6 -101 -29 -128 -82 -16 -32 -17
-47 -10 -85 11 -54 8 -59 -156 -266 -52 -67 -110 -141 -129 -165 l-34 -45 -74
1 -74 0 -69 69 c-64 64 -70 73 -70 111 0 46 -28 94 -73 128 -39 29 -126 28
-164 0 -50 -37 -75 -84 -72 -136 2 -27 -1 -52 -7 -57 -17 -17 -934 -471 -951
-471 -27 0 -32 334 -7 481 64 376 284 721 606 951 159 115 404 217 603 253
348 63 747 1 1038 -159 54 -30 111 -59 127 -65 70 -24 150 36 150 112 0 77
-44 117 -204 192 -205 96 -402 152 -608 174 -91 10 -336 13 -403 4z"/>
<path d="M2087 3212 c-15 -16 -17 -45 -17 -193 0 -191 2 -199 56 -199 57 0 64
22 64 201 0 143 -2 159 -21 183 -24 30 -59 34 -82 8z"/>
<path d="M3565 2745 c-18 -17 -25 -35 -25 -63 0 -106 145 -111 166 -6 4 24 0
37 -21 62 -34 41 -84 44 -120 7z"/>
<path d="M1443 2752 c-22 -14 -30 -57 -25 -135 4 -68 8 -80 28 -93 20 -13 27
-14 51 -2 27 13 28 15 31 107 2 77 0 97 -14 112 -18 20 -50 24 -71 11z"/>
<path d="M1790 2712 c-34 -11 -50 -35 -50 -79 0 -74 50 -104 104 -62 58 46 14
162 -54 141z"/>
<path d="M2079 2688 c-20 -38 -15 -99 11 -120 30 -25 56 -23 85 7 29 28 33 79
9 113 -22 31 -88 31 -105 0z"/>
<path d="M1123 2635 c-21 -15 -23 -24 -23 -104 0 -72 3 -91 18 -104 24 -22 65
-21 85 1 21 23 24 169 5 195 -19 24 -60 30 -85 12z"/>
<path d="M799 2321 c-23 -19 -24 -25 -23 -136 1 -96 5 -119 19 -135 23 -26 57
-25 81 1 17 19 19 35 16 138 -2 103 -5 118 -24 134 -26 22 -40 22 -69 -2z"/>
<path d="M1128 2296 c-42 -21 -49 -93 -12 -130 23 -23 61 -19 89 9 61 60 -2
158 -77 121z"/>
</g>
</svg>
