<?xml version="1.0" encoding="UTF-8"?>
<svg version="1.1" xmlns="http://www.w3.org/2000/svg" width="507" height="502">
<path d="M0 0 C0.71726257 0.00440094 1.43452515 0.00880188 2.17352295 0.01333618 C5.22112718 0.05688929 7.60126983 0.23167328 10.515625 1.203125 C11.78019531 1.18636719 13.04476562 1.16960937 14.34765625 1.15234375 C20.71671487 1.08413601 26.91633421 2.08012566 33.203125 3.015625 C35.089104 3.29345825 35.089104 3.29345825 37.01318359 3.5769043 C45.2779513 4.81721033 53.41237231 6.13759 61.515625 8.203125 C62.4348877 8.43370605 63.35415039 8.66428711 64.30126953 8.90185547 C85.46737572 14.24987518 105.16212506 21.43376464 125.1328125 30.17480469 C127.30226177 31.11104652 129.48100289 32.01374451 131.671875 32.8984375 C139.38927305 36.04805935 146.76420275 39.07599162 151.515625 46.203125 C151.7940979 48.35632324 151.7940979 48.35632324 151.83447266 50.88867188 C151.86426208 52.32078506 151.86426208 52.32078506 151.89465332 53.78182983 C151.91199524 55.33615219 151.91199524 55.33615219 151.9296875 56.921875 C151.94914429 57.99845367 151.96860107 59.07503235 151.98864746 60.18423462 C152.04922812 63.69045063 152.09546077 67.1966791 152.140625 70.703125 C152.17771694 73.11703256 152.21531523 75.5309324 152.25341797 77.94482422 C152.35604022 84.69743716 152.43874885 91.45017676 152.515625 98.203125 C152.53382136 99.67740926 152.55204533 101.15169318 152.5703125 102.62597656 C152.65306127 110.15404591 152.61806274 117.675443 152.515625 125.203125 C152.49748453 126.798339 152.47942413 128.39355392 152.46142578 129.98876953 C151.84610768 181.06076866 151.84610768 181.06076866 146.20263672 198.96142578 C145.37577663 201.65944615 144.80910237 204.37277239 144.265625 207.140625 C141.06422486 221.11628043 135.22704745 234.15603377 129.265625 247.140625 C128.74621338 248.27266357 128.22680176 249.40470215 127.69165039 250.57104492 C125.57684536 255.10100467 123.62184357 259.26628017 120.515625 263.203125 C119.76407173 264.4397946 119.03297597 265.6892543 118.328125 266.953125 C117.73 268.025625 117.131875 269.098125 116.515625 270.203125 C115.855625 270.203125 115.195625 270.203125 114.515625 270.203125 C114.144375 271.28400391 114.144375 271.28400391 113.765625 272.38671875 C112.38660471 275.49382383 110.69947728 277.66828599 108.515625 280.265625 C106.10067869 283.14669147 104.04352269 285.75739739 102.515625 289.203125 C101.855625 289.203125 101.195625 289.203125 100.515625 289.203125 C100.2475 289.80125 99.979375 290.399375 99.703125 291.015625 C98.50990077 293.21366964 97.26883629 294.44991371 95.515625 296.203125 C95.13019531 296.92628906 94.74476563 297.64945312 94.34765625 298.39453125 C91.93060517 302.09998909 88.92031359 304.76436038 85.640625 307.703125 C84.4132464 308.81680958 83.18667036 309.93137936 81.9609375 311.046875 C81.37417236 311.57998291 80.78740723 312.11309082 80.18286133 312.66235352 C77.02595871 315.57979567 74.03974847 318.6521234 71.078125 321.765625 C68.40779687 324.30569322 65.57493324 326.16358617 62.515625 328.203125 C61.855625 329.193125 61.195625 330.183125 60.515625 331.203125 C58.87282677 332.24187027 57.20199563 333.23672349 55.515625 334.203125 C53.62607325 335.51575479 51.75131615 336.84989507 49.890625 338.203125 C48.94960938 338.88375 48.00859375 339.564375 47.0390625 340.265625 C44.59812928 342.05022391 44.59812928 342.05022391 42.96484375 343.765625 C39.92333572 346.78253863 36.01745701 348.80127934 32.390625 351.04345703 C31.01655942 351.89330228 29.6444361 352.74629003 28.2734375 353.60107422 C25.83662996 355.119643 23.39550891 356.63104378 20.953125 358.140625 C19.75610962 358.88602539 19.75610962 358.88602539 18.53491211 359.64648438 C17.7847583 360.10732422 17.03460449 360.56816406 16.26171875 361.04296875 C15.58810303 361.45925537 14.9144873 361.87554199 14.22045898 362.30444336 C12.515625 363.203125 12.515625 363.203125 10.515625 363.203125 C10.185625 364.193125 9.855625 365.183125 9.515625 366.203125 C7.52093618 366.88551854 5.51905234 367.54682984 3.515625 368.203125 C1.69089146 369.20192651 -0.12064959 370.2250271 -1.921875 371.265625 C-9.60596523 375.46446838 -9.60596523 375.46446838 -14.484375 375.203125 C-18.31099559 373.82946632 -21.87586959 372.06725911 -25.484375 370.203125 C-26.22300781 369.84476562 -26.96164063 369.48640625 -27.72265625 369.1171875 C-32.08861039 366.99779229 -36.29307106 364.6480523 -40.484375 362.203125 C-40.484375 361.543125 -40.484375 360.883125 -40.484375 360.203125 C-41.18175781 359.94660156 -41.87914062 359.69007813 -42.59765625 359.42578125 C-45.80200489 358.06859434 -48.68203193 356.41967448 -51.671875 354.640625 C-55.52657248 352.32736348 -55.52657248 352.32736348 -59.484375 350.203125 C-59.484375 349.543125 -59.484375 348.883125 -59.484375 348.203125 C-60.18691406 347.96464844 -60.88945312 347.72617187 -61.61328125 347.48046875 C-64.9913354 345.97757935 -67.517537 344.05466819 -70.421875 341.765625 C-71.26286743 341.10518188 -71.26286743 341.10518188 -72.12084961 340.43139648 C-73.30853615 339.49813192 -74.49445621 338.56261549 -75.67871094 337.625 C-77.44968647 336.23044058 -79.23389823 334.85500165 -81.0234375 333.484375 C-92.06348929 324.99508778 -102.11530212 315.64029954 -111.984375 305.828125 C-113.00893799 304.81069214 -113.00893799 304.81069214 -114.05419922 303.77270508 C-117.42947003 300.38609094 -120.49543936 296.93929455 -123.484375 293.203125 C-124.474375 292.543125 -125.464375 291.883125 -126.484375 291.203125 C-127.39817711 289.57858792 -128.30800071 287.95165612 -129.1953125 286.3125 C-130.70712478 283.83862536 -132.45220671 281.68951822 -134.296875 279.453125 C-138.50489187 274.31086558 -142.04123761 268.87776409 -145.484375 263.203125 C-146.04511719 262.31238281 -146.60585937 261.42164063 -147.18359375 260.50390625 C-148.484375 258.203125 -148.484375 258.203125 -148.484375 256.203125 C-149.474375 255.873125 -150.464375 255.543125 -151.484375 255.203125 C-152.37109375 253.55078125 -152.37109375 253.55078125 -153.171875 251.265625 C-154.42538333 247.88306626 -155.7472773 244.57565425 -157.2734375 241.30859375 C-161.1740917 232.94525354 -164.546938 224.56077341 -167.359375 215.765625 C-167.64530518 214.87907227 -167.93123535 213.99251953 -168.22583008 213.07910156 C-169.90051473 207.67948789 -171.10522193 202.31775909 -172.05078125 196.74536133 C-172.42132899 194.57277482 -172.83786394 192.42385539 -173.30078125 190.26953125 C-173.54699219 189.11324219 -173.79320312 187.95695313 -174.046875 186.765625 C-174.29566406 185.61191406 -174.54445313 184.45820313 -174.80078125 183.26953125 C-176.54605341 173.91411337 -176.65159539 164.30051673 -176.78491211 154.81274414 C-176.80444946 153.63884125 -176.82398682 152.46493835 -176.84411621 151.25546265 C-177.01595147 140.55323717 -177.14878597 129.8502246 -177.26853085 119.14728642 C-177.35719651 111.2528414 -177.46611206 103.35923039 -177.60165781 95.46544749 C-177.69570413 89.88998222 -177.76665506 84.31450742 -177.82054335 78.73851103 C-177.85328489 75.41640063 -177.89927137 72.09536035 -177.96412468 68.77369881 C-178.03415664 65.07806735 -178.06646383 61.38392486 -178.08959961 57.68774414 C-178.13362663 56.04582848 -178.13362663 56.04582848 -178.17854309 54.3707428 C-178.16938058 47.15213001 -178.16938058 47.15213001 -176.22239876 44.4547863 C-170.56229972 39.60279883 -163.12537824 36.54394028 -156.484375 33.203125 C-155.8356543 32.8740918 -155.18693359 32.54505859 -154.51855469 32.20605469 C-106.23074303 7.92902456 -53.55853137 -0.50092769 0 0 Z M-48.484375 20.203125 C-50.02916844 20.37299976 -51.57633413 20.52242753 -53.125 20.65234375 C-58.5505027 21.16939295 -63.87544833 22.03343163 -69.234375 23.015625 C-70.19738525 23.19158203 -71.16039551 23.36753906 -72.15258789 23.54882812 C-78.62749394 24.76839987 -84.88200015 26.27113942 -91.18359375 28.203125 C-94.19868509 29.11657279 -97.22682178 29.92544358 -100.27929688 30.70336914 C-106.93558718 32.40484595 -113.17391837 34.51156823 -119.484375 37.203125 C-120.75201436 37.6906786 -122.0228096 38.17011952 -123.296875 38.640625 C-123.94269531 38.88425781 -124.58851563 39.12789062 -125.25390625 39.37890625 C-126.93205958 39.99902946 -128.61848155 40.59684664 -130.30859375 41.18359375 C-139.71824196 44.57477078 -151.31838479 49.03713479 -158.484375 56.203125 C-160.29112999 68.85140731 -159.58301338 82.01509582 -159.46875 94.75390625 C-159.45200057 96.90512526 -159.43533975 99.05634496 -159.41876221 101.20756531 C-159.38253787 105.69303132 -159.34137188 110.17842238 -159.29736328 114.66381836 C-159.24243214 120.35838078 -159.20582275 126.05290139 -159.17373276 131.74763203 C-159.14561861 136.18434643 -159.10455846 140.62087684 -159.06012726 145.05745506 C-159.04118161 147.15456691 -159.02676105 149.25172555 -159.01732635 151.34890175 C-159.1201224 173.74807381 -159.1201224 173.74807381 -153.484375 195.203125 C-153.14414714 197.20196369 -152.81108403 199.20203222 -152.484375 201.203125 C-151.82897901 203.20684667 -151.16028382 205.20622948 -150.484375 207.203125 C-149.91680391 209.08905418 -149.34934389 210.97501834 -148.78466797 212.86181641 C-146.54762407 220.2681251 -143.93768376 227.26053552 -140.484375 234.203125 C-139.948125 235.29625 -139.411875 236.389375 -138.859375 237.515625 C-138.17875 238.8459375 -138.17875 238.8459375 -137.484375 240.203125 C-137.01 241.1725 -136.535625 242.141875 -136.046875 243.140625 C-134.6690491 245.84116376 -133.22741467 248.48344571 -131.69921875 251.1015625 C-130.77550254 252.69950244 -129.87616361 254.31156247 -128.98828125 255.9296875 C-124.25294229 264.39424259 -118.77413208 271.93913222 -111.8828125 278.7890625 C-109.92054856 280.76410992 -108.32604025 282.62594081 -106.734375 284.890625 C-102.0721184 291.2438555 -96.96997956 297.64969013 -90.484375 302.203125 C-87.56128906 304.3569778 -85.21127587 306.48782629 -82.984375 309.328125 C-78.77648802 314.37975282 -73.40000133 318.10463769 -68.140625 321.98193359 C-66.60279842 323.11580868 -65.07441939 324.26246665 -63.546875 325.41015625 C-58.50050827 329.15909062 -53.37684568 332.54577613 -47.9453125 335.70703125 C-45.38589746 337.26299309 -42.9762912 338.95195276 -40.546875 340.703125 C-36.28855493 343.73052442 -31.9174688 346.28793504 -27.2890625 348.70703125 C-25.34710437 349.74292256 -23.43644721 350.83886786 -21.5546875 351.98046875 C-16.28287203 355.33598284 -16.28287203 355.33598284 -10.296875 355.890625 C-7.42250172 354.16600103 -4.57235766 352.41869203 -1.765625 350.5859375 C0.63961606 349.12796604 3.08283296 347.99677136 5.640625 346.828125 C24.05337279 337.78531612 41.23845777 324.11296539 56.28125 310.25 C58.35996406 308.34572348 60.48763293 306.52231985 62.640625 304.703125 C66.32287013 301.51085604 69.44972598 297.9585384 72.62890625 294.2734375 C74.27803633 292.46383307 75.90830251 290.96054118 77.828125 289.453125 C80.5321657 287.18927697 81.8290079 285.2550988 83.515625 282.203125 C84.49918993 281.18695571 85.50073917 280.18801421 86.515625 279.203125 C93.48665188 271.63575659 99.64796332 263.26704675 104.515625 254.203125 C105.36886944 252.68177407 106.22308914 251.16096983 107.078125 249.640625 C108.9975804 246.21077846 110.76319873 242.72108796 112.515625 239.203125 C113.36640625 237.57117188 113.36640625 237.57117188 114.234375 235.90625 C117.33052244 229.90406944 120.09792147 224.12151609 121.8359375 217.56640625 C122.57515615 214.99613452 123.54093632 212.60489445 124.578125 210.140625 C126.11343482 206.3921516 127.17748565 202.81756254 127.94921875 198.84765625 C128.53255511 196.1240789 129.27887069 193.46440284 130.02807617 190.78271484 C132.40940706 182.05011128 133.13885913 173.67715565 133.40060425 164.65582275 C133.51727318 162.16797927 133.76075967 159.71652894 134.01391602 157.23901367 C134.8050711 147.87007893 134.70070354 138.47750388 134.71875 129.08203125 C134.72157738 128.08428114 134.72440475 127.08653103 134.72731781 126.05854607 C134.74221027 120.79431781 134.75150657 115.53011634 134.75585938 110.26586914 C134.76137738 104.83646039 134.7855031 99.40729819 134.81383133 93.97796726 C134.8324368 89.78896857 134.83766185 85.6000301 134.83919525 81.41099358 C134.84221921 79.40832079 134.85023908 77.405649 134.86338043 75.40301704 C134.88042191 72.61036151 134.87856713 69.81832109 134.87207031 67.02563477 C134.8812851 66.20219574 134.89049988 65.37875671 134.8999939 64.53036499 C134.86655021 59.9446185 134.53084681 56.89869799 131.515625 53.203125 C128.85172777 51.67385066 126.31547119 50.43135941 123.515625 49.203125 C121.47385121 48.24501992 119.43219394 47.28666651 117.390625 46.328125 C103.88979405 40.06132138 103.88979405 40.06132138 89.921875 34.96875 C88.11689619 34.39443856 86.32725266 33.7715582 84.546875 33.125 C68.62336437 27.4585255 51.7479921 23.48173594 34.95703125 21.52734375 C32.515625 21.203125 32.515625 21.203125 29.515625 20.203125 C15.90690526 18.13157544 2.24845256 18.00933914 -11.484375 18.015625 C-12.74489685 18.0144014 -12.74489685 18.0144014 -14.03088379 18.01315308 C-31.35166288 17.96107698 -31.35166288 17.96107698 -48.484375 20.203125 Z " fill="#FFFFFF" transform="translate(262.484375,63.796875)"/>
<path d="M0 0 C1.01191406 0.51691406 2.02382813 1.03382813 3.06640625 1.56640625 C8.79846525 4.5533159 13.97328474 7.93829885 19 12 C18.4261537 15.7856726 16.78367224 17.62951173 14.1875 20.375 C11.83494887 22.92883893 9.60984289 25.37708531 7.75 28.3125 C6.05545687 30.91483409 4.18396636 32.81603364 2 35 C1.67 35.99 1.34 36.98 1 38 C-0.28659163 39.37849103 -1.62913085 40.70529025 -3 42 C-3.9075 42.9075 -4.815 43.815 -5.75 44.75 C-6.86375 45.86375 -6.86375 45.86375 -8 47 C-8.845625 46.29875 -9.69125 45.5975 -10.5625 44.875 C-11.11550781 44.41867188 -11.66851562 43.96234375 -12.23828125 43.4921875 C-13.38272223 42.52283838 -14.50690538 41.52886166 -15.60546875 40.5078125 C-22.06037882 34.58953391 -29.49930335 31.04646401 -38 29 C-39.18851562 28.6596875 -40.37703125 28.319375 -41.6015625 27.96875 C-46.33010892 26.7912237 -50.89446417 26.65489063 -55.75 26.6875 C-56.63034912 26.69313965 -57.51069824 26.6987793 -58.41772461 26.70458984 C-71.80500094 26.95311754 -83.93060626 30.81908218 -94 40 C-94.845625 40.763125 -95.69125 41.52625 -96.5625 42.3125 C-99.28673657 45.31614545 -101.14620302 48.43231524 -103 52 C-103.62068359 53.07894531 -103.62068359 53.07894531 -104.25390625 54.1796875 C-114.09635199 72.10175287 -112.379173 92.96360549 -107 112 C-104.22235345 119.62831608 -98.56183156 125.23917625 -93 131 C-92.3503125 131.70253906 -91.700625 132.40507812 -91.03125 133.12890625 C-88.82583058 135.16043683 -86.76253576 136.3353065 -84.0625 137.625 C-83.22847656 138.02976562 -82.39445312 138.43453125 -81.53515625 138.8515625 C-64.80167075 146.43190878 -45.74991112 145.84460951 -28.57421875 139.79296875 C-22.07148025 137.43963441 -22.07148025 137.43963441 -17 133 C-16.58552786 130.19266116 -16.58552786 130.19266116 -16.70703125 127.01953125 C-16.71452393 125.97128174 -16.7220166 124.92303223 -16.72973633 123.84301758 C-16.75704834 122.51294678 -16.78436035 121.18287598 -16.8125 119.8125 C-16.874375 115.584375 -16.93625 111.35625 -17 107 C-28.22 106.67 -39.44 106.34 -51 106 C-51.185625 102.65875 -51.37125 99.3175 -51.5625 95.875 C-51.65446655 94.31241455 -51.65446655 94.31241455 -51.74829102 92.71826172 C-51.99191013 87.98339906 -52.06000612 83.66402695 -51 79 C-42.10702294 78.09801797 -33.30588007 77.85311085 -24.37109375 77.8671875 C-23.00537601 77.8665119 -21.63965838 77.86553975 -20.27394104 77.86428833 C-17.43937004 77.86282789 -14.60483092 77.86491503 -11.77026367 77.86962891 C-8.13882943 77.87537468 -4.50746832 77.87200645 -0.87603664 77.86605644 C1.93176326 77.86244768 4.7395457 77.86359002 7.54734612 77.86618423 C9.53657454 77.86717268 11.52580364 77.86414365 13.51502991 77.86105347 C14.71735764 77.86420563 15.91968536 77.86735779 17.15844727 77.87060547 C18.74629784 77.87179886 18.74629784 77.87179886 20.3662262 77.87301636 C23 78 23 78 26 79 C26.76928108 87.60607852 27.14891683 96.1268145 27.1328125 104.765625 C27.13376923 105.92447205 27.13472595 107.08331909 27.13571167 108.27728271 C27.13638658 110.70406143 27.13458087 113.13084203 27.13037109 115.55761719 C27.12499331 119.25459862 27.13034972 122.95145967 27.13671875 126.6484375 C27.13605823 129.0208336 27.1347776 131.39322962 27.1328125 133.765625 C27.13483673 134.85957581 27.13686096 135.95352661 27.13894653 137.08062744 C27.08883188 153.59092345 27.08883188 153.59092345 23.875 157.75 C17.34244088 162.86243757 11.02224649 166.645828 3.5 170.125 C2.58863281 170.55425781 1.67726563 170.98351562 0.73828125 171.42578125 C-1.83445321 172.6323306 -4.41585108 173.8181474 -7 175 C-8.7325 175.81210937 -8.7325 175.81210937 -10.5 176.640625 C-25.45475046 182.44894326 -41.69474103 183.84844368 -57.59790039 183.97827148 C-59.71958428 183.99746346 -61.84065515 184.06897919 -63.9609375 184.1484375 C-69.15680293 184.1280873 -74.13798126 182.94352902 -79.1875 181.8125 C-80.20618164 181.58618896 -81.22486328 181.35987793 -82.27441406 181.12670898 C-99.11447671 177.25467483 -117.13283787 170.05387835 -129 157 C-129.68964844 156.2678125 -130.37929687 155.535625 -131.08984375 154.78125 C-137.63456019 147.72471713 -142.7676513 140.63788813 -147 132 C-147.50660156 131.00742187 -148.01320312 130.01484375 -148.53515625 128.9921875 C-152.14848114 121.61767788 -154.11000523 115.1330373 -155 107 C-155.18321872 105.5792098 -155.36823459 104.15865064 -155.5546875 102.73828125 C-158.92382668 76.17468007 -155.67594072 49.48012602 -140 27 C-139.29875 25.88625 -138.5975 24.7725 -137.875 23.625 C-122.11080525 1.55512734 -96.61978608 -7.80249417 -71.11743164 -12.53491211 C-46.74174384 -16.1715074 -21.57172353 -11.75912247 0 0 Z " fill="#FFFFFF" transform="translate(308,150)"/>
</svg>
