<svg width="1741" height="1915" viewBox="0 0 1741 1915" fill="none" xmlns="http://www.w3.org/2000/svg">
<path d="M1559.62 1186.61C1559.62 1411.87 1339.41 1608.97 898.971 1777.91C458.537 1608.97 238.319 1411.87 238.319 1186.61C238.319 961.348 238.319 679.774 238.319 341.885C534.302 229.255 754.52 172.94 898.971 172.94C1043.42 172.94 1263.64 229.255 1559.62 341.885C1559.62 679.774 1559.62 961.348 1559.62 1186.61Z" stroke="#1F366B" stroke-width="80" stroke-linecap="square" />
<path d="M1005.67 503.336L807.29 503.939L789.803 507.195C729.023 518.411 678.252 544.339 635.682 585.824C594.558 625.862 566.942 674.1 554.641 727.403C547.647 758.035 547.526 759.12 547.164 857.285C546.682 990.665 547.164 1021.66 549.938 1040.59C559.103 1101.97 588.649 1160.7 633.029 1205.33C666.795 1239.21 703.336 1262.13 746.389 1276.12C785.1 1288.78 800.175 1290.47 882.301 1290.59C920.168 1290.71 929.695 1290.47 930.78 1289.14C931.745 1288.05 931.986 1276.6 931.865 1252.12L931.504 1216.66L870 1215.94C798.848 1215.09 797.16 1214.97 765.684 1204.36C714.793 1187.24 669.931 1147.44 644.726 1097.15C637.249 1082.32 628.446 1057.23 624.346 1039.39C621.693 1027.33 621.693 1026.96 621.21 902.509C620.848 769.13 620.848 768.044 626.878 743.322C637.129 701.716 657.148 666.985 687.9 637.318C721.425 605.24 760.016 586.668 810.305 578.709C820.073 577.141 843.469 576.9 966.838 576.9C1046.55 576.9 1111.79 577.261 1111.79 577.623C1111.79 577.985 1105.64 586.547 1098.17 596.677C1090.57 606.687 1079.72 621.4 1073.93 629.359L1063.44 643.83L938.981 644.554C831.168 645.157 813.44 645.519 805.963 647.086C751.333 659.387 709.607 697.616 694.171 749.352C687.659 771.059 687.9 765.391 687.9 897.082C687.9 1019.97 687.9 1020.09 690.553 1031.06C699.959 1069.41 717.325 1096.79 747.715 1120.79C760.619 1131.04 779.07 1139.48 799.451 1144.67L812.114 1147.8L871.206 1147.92H930.298V1111.74V1075.56L872.412 1074.96C815.129 1074.36 814.405 1074.36 807.893 1071.58C781.12 1060.25 765.443 1038.9 762.066 1009.24C761.102 1000.79 760.86 964.013 761.102 886.831C761.584 763.582 760.86 772.748 770.267 754.779C776.9 742.237 787.03 732.589 800.898 726.077C807.049 723.062 814.043 720.288 816.335 719.926C818.626 719.565 883.627 719.203 960.809 719.082L1101.06 718.841L1104.44 714.5C1106.25 712.088 1122.65 688.933 1140.86 663.126C1158.95 637.198 1180.05 607.169 1187.77 596.195C1195.49 585.221 1207.19 568.699 1213.7 559.413C1220.21 550.127 1231.43 534.209 1238.66 523.958C1245.9 513.828 1251.44 505.024 1250.84 504.421C1249.27 502.854 1214.06 502.733 1005.67 503.336Z" fill="#1F366B"/>
<path d="M874.823 788.184C874.461 789.028 874.341 837.99 874.461 896.841L874.823 1004.05L935.483 1003.81L996.022 1003.69V1010.08C996.022 1013.58 996.022 1079.42 996.022 1156.36V1296.38L999.881 1299.27C1002.05 1300.96 1004.83 1302.77 1005.91 1303.49C1007 1304.09 1017.61 1311.69 1029.43 1320.25C1046.79 1332.92 1077.79 1354.86 1091.65 1364.39C1093.1 1365.36 1099.98 1370.3 1106.97 1375.25C1113.96 1380.31 1125.3 1388.39 1132.3 1393.21C1139.29 1398.04 1153.16 1407.69 1163.29 1414.8C1196.45 1438.08 1209.6 1447 1210.8 1447C1212.01 1447 1212.49 789.872 1211.17 787.822C1210.8 787.219 1138.93 786.737 1042.93 786.737C910.037 786.737 875.185 787.099 874.823 788.184ZM1137.24 865.968C1137.24 870.913 1137.24 1301.8 1137.12 1304.46C1137.12 1305.06 1133.5 1302.89 1129.04 1299.75C1124.46 1296.5 1111.67 1287.45 1100.34 1279.73C1089.12 1271.89 1077.54 1263.57 1074.65 1261.16L1069.46 1256.82L1069.83 1094.5C1070.07 1005.14 1069.71 931.331 1069.22 930.487C1068.5 929.402 1054.99 929.04 1008.56 929.04H948.99V894.67V860.3H1043.05H1137.12L1137.24 865.968Z" fill="#1F366B"/>
</svg>
