<?xml version="1.0" standalone="no"?>
<!DOCTYPE svg PUBLIC "-//W3C//DTD SVG 20010904//EN"
 "http://www.w3.org/TR/2001/REC-SVG-20010904/DTD/svg10.dtd">
<svg version="1.0" xmlns="http://www.w3.org/2000/svg"
 width="967.000000pt" height="1099.000000pt" viewBox="0 0 967.000000 1099.000000"
 preserveAspectRatio="xMidYMid meet">

<g transform="translate(0.000000,1099.000000) scale(0.100000,-0.100000)"
fill="#FFFFFF" stroke="none">
<path d="M5720 9420 l-1645 -5 -145 -27 c-504 -93 -925 -308 -1278 -652 -341
-332 -570 -732 -672 -1174 -58 -254 -59 -263 -62 -1077 -4 -1106 0 -1363 23
-1520 76 -509 321 -996 689 -1366 280 -281 583 -471 940 -587 321 -105 446
-119 1127 -120 314 -1 393 1 402 12 8 9 10 104 9 307 l-3 294 -510 6 c-590 7
-604 8 -865 96 -422 142 -794 472 -1003 889 -62 123 -135 331 -169 479 -22
100 -22 103 -26 1135 -3 1106 -3 1115 47 1320 85 345 251 633 506 879 278 266
598 420 1015 486 81 13 275 15 1298 15 661 0 1202 -3 1202 -6 0 -3 -51 -74
-113 -158 -63 -83 -153 -205 -201 -271 l-87 -120 -1032 -6 c-894 -5 -1041 -8
-1103 -21 -453 -102 -799 -419 -927 -848 -54 -180 -52 -133 -52 -1225 0 -1019
0 -1020 22 -1111 78 -318 222 -545 474 -744 107 -85 260 -155 429 -198 l105
-26 490 -1 490 0 0 300 0 300 -480 5 c-475 5 -481 5 -535 28 -222 94 -352 271
-380 517 -8 70 -10 375 -8 1015 4 1022 -2 946 76 1095 55 104 139 184 254 238
51 25 109 48 128 51 19 3 558 6 1198 7 l1163 2 28 36 c15 20 151 212 302 426
150 215 325 464 389 555 64 91 161 228 215 305 54 77 147 209 207 294 60 84
106 157 101 162 -13 13 -305 14 -2033 9z"/>
<path d="M4635 7058 c-3 -7 -4 -413 -3 -901 l3 -889 503 2 502 1 0 -53 c0 -29
0 -575 0 -1213 l0 -1161 32 -24 c18 -14 41 -29 50 -35 9 -5 97 -68 195 -139
144 -105 401 -287 516 -366 12 -8 69 -49 127 -90 58 -42 152 -109 210 -149 58
-40 173 -120 257 -179 275 -193 384 -267 394 -267 10 0 14 5449 3 5466 -3 5
-599 9 -1395 9 -1102 0 -1391 -3 -1394 -12z m2176 -645 c0 -41 0 -3614 -1
-3636 0 -5 -30 13 -67 39 -38 27 -144 102 -238 166 -93 65 -189 134 -213 154
l-43 36 3 1346 c2 741 -1 1353 -5 1360 -6 9 -118 12 -503 12 l-494 0 0 285 0
285 780 0 780 0 1 -47z"/>
</g>
</svg>
