<svg xmlns="http://www.w3.org/2000/svg" version="1.1" xmlns:xlink="http://www.w3.org/1999/xlink" xmlns:svgjs="http://svgjs.dev/svgjs" viewBox="0 0 800 800"><defs><filter id="bbburst-blur-1" x="-100%" y="-100%" width="400%" height="400%"><feGaussianBlur in="SourceGraphic" stdDeviation="1"></feGaussianBlur></filter><filter id="bbburst-blur-2" x="-100%" y="-100%" width="400%" height="400%"><feGaussianBlur in="SourceGraphic" stdDeviation="2"></feGaussianBlur></filter><filter id="bbburst-blur-3" x="-100%" y="-100%" width="400%" height="400%"><feGaussianBlur in="SourceGraphic" stdDeviation="4"></feGaussianBlur></filter><filter id="bbburst-blur-4" x="-100%" y="-100%" width="400%" height="400%"><feGaussianBlur in="SourceGraphic" stdDeviation="12"></feGaussianBlur></filter><symbol id="bbburst-shape-1" viewBox="0 0 194 167"><path d="m97 0 96.129 166.5H.871L97 0Z"></path></symbol><symbol id="bbburst-shape-4" viewBox="0 0 149 143"><path d="M71.647 2.781c.898-2.764 4.808-2.764 5.706 0l15.445 47.534a3 3 0 0 0 2.853 2.073h49.98c2.906 0 4.115 3.719 1.764 5.427L106.96 87.193a2.999 2.999 0 0 0-1.09 3.354l15.445 47.534c.898 2.764-2.266 5.062-4.617 3.354l-40.435-29.378a3 3 0 0 0-3.526 0l-40.435 29.378c-2.351 1.708-5.515-.59-4.617-3.354L43.13 90.547a3 3 0 0 0-1.09-3.354L1.605 57.815c-2.35-1.708-1.142-5.427 1.764-5.427h49.98a3 3 0 0 0 2.853-2.073L71.647 2.781Z"></path></symbol><symbol id="bbburst-shape-6" viewBox="0 0 133 116"><path d="M59.7487 10.2513c-13.6683-13.66839-35.8291-13.66839-49.4974 0-13.66839 13.6683-13.66839 35.8291 0 49.4974l49.4974-49.4974ZM66.5 66.5 41.7513 91.2487 66.5 115.997l24.7487-24.7483L66.5 66.5Zm56.249-6.7513c13.668-13.6683 13.668-35.8291 0-49.4974-13.669-13.66839-35.8294-13.66839-49.4977 0l49.4977 49.4974Zm-112.4977 0 31.5 31.5 49.4974-49.4974-31.5-31.5-49.4974 49.4974Zm80.9974 31.5 31.5003-31.5-49.4977-49.4974-31.5 31.5 49.4974 49.4974Z"></path></symbol><symbol id="bbburst-shape-8" viewBox="0 0 87 168"><path d="m12 12 31.2546 18.0749c16.4102 9.4902 20.014 31.6325 7.4603 45.8369L36.3296 92.1884c-12.5684 14.2206-8.9394 36.3916 7.5068 45.8636L75 156" stroke-width="14" stroke-linecap="round" stroke-linejoin="round"></path></symbol><symbol id="bbburst-shape-10" viewBox="0 0 145 145"><circle cx="72.5" cy="72.5" r="61.5" fill="none" stroke-width="22"></circle></symbol></defs><use xlink:href="#bbburst-shape-6" width="7.435568114213694" opacity="0.9242453206598771" transform="matrix(0.9975262613624118,0.07029479278246197,-0.07029479278246197,0.9975262613624118,454.4265317895798,-15.429364109914331)" fill="#2c2891"></use><use xlink:href="#bbburst-shape-8" width="5.781850859130294" opacity="0.9652115648552834" transform="matrix(0.9958340828830246,0.09118376702311262,-0.09118376702311262,0.9958340828830246,439.50048527062893,15.90081114498389)" fill="none" stroke="#ffbd9b"></use><use xlink:href="#bbburst-shape-10" width="26.782918396097728" opacity="0.4521100532152571" transform="matrix(0.8832244636880571,0.46895047365680725,-0.46895047365680725,0.8832244636880571,452.61961185189,-173.1707904505547)" fill="none" stroke="#00a19d" filter="url(#bbburst-blur-2)"></use><use xlink:href="#bbburst-shape-10" width="29.195728574851255" opacity="0.21046498347954468" transform="matrix(1.2488447634940032,0.0537285463567299,-0.0537285463567299,1.2488447634940032,234.94991975147627,-413.216638281057)" fill="none" stroke="#00a19d" filter="url(#bbburst-blur-3)"></use><use xlink:href="#bbburst-shape-10" width="29.24072672568727" opacity="0.17833757246052961" transform="matrix(1.0771984700403834,-0.6341478188424664,0.6341478188424664,1.0771984700403834,94.80966084966434,-389.62054219209034)" fill="none" stroke="#ff5c58" filter="url(#bbburst-blur-3)"></use><use xlink:href="#bbburst-shape-10" width="10.146999746237425" opacity="0.8274264998902923" transform="matrix(0.742142226456708,0.6702424305502304,-0.6702424305502304,0.742142226456708,718.8452226939689,44.433919489703726)" fill="none" stroke="#00a19d"></use><use xlink:href="#bbburst-shape-6" width="15.331160690236423" opacity="0.7057114252636092" transform="matrix(0.9057921021928391,-0.42372239450503113,0.42372239450503113,0.9057921021928391,193.57147069064652,169.91936333297122)" fill="#ff5c58" filter="url(#bbburst-blur-1)"></use><use xlink:href="#bbburst-shape-10" width="21.218851936646548" opacity="0.5101106645517112" transform="matrix(0.886642877703975,0.46245476256258194,-0.46245476256258194,0.886642877703975,640.6822705207124,-170.18013418309712)" fill="none" stroke="#2c2891" filter="url(#bbburst-blur-2)"></use><use xlink:href="#bbburst-shape-8" width="25.804934921653455" opacity="0.3958249593143299" transform="matrix(0.9560711710441168,0.29313463783444516,-0.29313463783444516,0.9560711710441168,764.2752848190057,95.34895149901763)" fill="none" stroke="#ffbd9b" filter="url(#bbburst-blur-2)"></use><use xlink:href="#bbburst-shape-6" width="27.036443491222265" opacity="0.16603681218786026" transform="matrix(1.1513381698880665,0.48674471600501,-0.48674471600501,1.1513381698880665,640.3948145713184,-437.36438594624383)" fill="#ff5c58" filter="url(#bbburst-blur-3)"></use><use xlink:href="#bbburst-shape-6" width="14.644828979005455" opacity="0.6622277255426765" transform="matrix(0.8081266637773373,-0.5890087395719271,0.5890087395719271,0.8081266637773373,155.25568203471337,-70.900922996877)" fill="#ffa6d5" filter="url(#bbburst-blur-1)"></use><use xlink:href="#bbburst-shape-8" width="9.952877922864873" opacity="0.7229734249162187" transform="matrix(0.942275877330907,-0.33483752925899657,0.33483752925899657,0.942275877330907,185.94038501428207,-74.49172591469323)" fill="none" stroke="#00a19d" filter="url(#bbburst-blur-1)"></use><use xlink:href="#bbburst-shape-1" width="15.219073773986176" opacity="0.6447126622024861" transform="matrix(0.9825419620205829,0.1860411053201509,-0.1860411053201509,0.9825419620205829,580.1811690359492,118.44486023766774)" fill="#ffa6d5" filter="url(#bbburst-blur-1)"></use><use xlink:href="#bbburst-shape-8" width="41.510407302461445" opacity="0.07068910362688952" transform="matrix(1.6912829194282064,-0.44951316604789576,0.44951316604789576,1.6912829194282064,537.8819109785433,-491.7317474776097)" fill="none" stroke="#ffa6d5" filter="url(#bbburst-blur-4)"></use><use xlink:href="#bbburst-shape-4" width="19.58282775489806" opacity="0.631602735579361" transform="matrix(0.7328117187989308,-0.680431469577177,0.680431469577177,0.7328117187989308,-0.6073886791340328,0.5206786474500973)" fill="#00a19d" filter="url(#bbburst-blur-1)"></use><use xlink:href="#bbburst-shape-1" width="12.496625372682042" opacity="0.7786719397293496" transform="matrix(0.9106219497814478,0.41324044402288873,-0.41324044402288873,0.9106219497814478,658.59590377517,22.25514372532473)" fill="#2c2891"></use><use xlink:href="#bbburst-shape-10" width="27.55624271426464" opacity="0.19936613978463724" transform="matrix(1.2225471411824458,-0.26053500261314105,0.26053500261314105,1.2225471411824458,291.4800526391201,274.6378143824198)" fill="none" stroke="#00a19d" filter="url(#bbburst-blur-3)"></use><use xlink:href="#bbburst-shape-8" width="21.249324557368677" opacity="0.39681558932131167" transform="matrix(0.9396831432994663,0.3420461813832083,-0.3420461813832083,0.9396831432994663,337.43904843342693,-173.9428801742696)" fill="none" stroke="#2c2891" filter="url(#bbburst-blur-2)"></use><use xlink:href="#bbburst-shape-1" width="26.252539877298524" opacity="0.41400678749182895" transform="matrix(0.92398966387024,0.3824174434580108,-0.3824174434580108,0.92398966387024,584.2047829720077,-234.688753214001)" fill="#ff5c58" filter="url(#bbburst-blur-2)"></use><use xlink:href="#bbburst-shape-8" width="16.424549567053933" opacity="0.6981620931599761" transform="matrix(0.99938650524904,0.03502303707719294,-0.03502303707719294,0.99938650524904,537.2672687582805,-34.18711414588819)" fill="none" stroke="#ffa6d5" filter="url(#bbburst-blur-1)"></use><use xlink:href="#bbburst-shape-10" width="34.73678777531251" opacity="0.2732868863893422" transform="matrix(1.0244375182803305,0.7162595696670568,-0.7162595696670568,1.0244375182803305,968.5610740687878,-152.72427390700932)" fill="none" stroke="#2c2891" filter="url(#bbburst-blur-3)"></use><use xlink:href="#bbburst-shape-6" width="9.120364330464058" opacity="0.796229063671594" transform="matrix(0.980198643442691,0.1980167149336346,-0.1980167149336346,0.980198643442691,513.6616798062214,-76.00750789739072)" fill="#ff5c58"></use><use xlink:href="#bbburst-shape-8" width="10.39209676836383" opacity="0.8765967497367244" transform="matrix(0.90699941409627,-0.421131882940514,0.421131882940514,0.90699941409627,273.48746512944285,9.26806685280593)" fill="none" stroke="#2c2891"></use><use xlink:href="#bbburst-shape-10" width="13.215974649719787" opacity="0.7754542692408559" transform="matrix(0.9711061774461861,-0.2386478412344358,0.2386478412344358,0.9711061774461861,199.91184480533298,36.89629043023962)" fill="none" stroke="#00a19d" filter="url(#bbburst-blur-1)"></use><use xlink:href="#bbburst-shape-4" width="29.652316580478335" opacity="0.45598560736791915" transform="matrix(0.8634333838049453,0.5044628744824955,-0.5044628744824955,0.8634333838049453,344.2938490923053,39.187913492522966)" fill="#00a19d" filter="url(#bbburst-blur-2)"></use><use xlink:href="#bbburst-shape-6" width="10.927445687724372" opacity="0.7546660389067923" transform="matrix(0.859426636618992,0.5112590891805906,-0.5112590891805906,0.859426636618992,707.143111881998,79.26977926729415)" fill="#2c2891" filter="url(#bbburst-blur-1)"></use><use xlink:href="#bbburst-shape-1" width="20.58375973506151" opacity="0.6243687954626516" transform="matrix(0.7600614755828297,-0.6498511778360117,0.6498511778360117,0.7600614755828297,178.6603165796252,-59.85540991650714)" fill="#ffa6d5" filter="url(#bbburst-blur-1)"></use><use xlink:href="#bbburst-shape-10" width="35.47529940791896" opacity="0.3076407405499084" transform="matrix(1.2017694528969927,0.3438752420335944,-0.3438752420335944,1.2017694528969927,702.5549601368198,162.90250652700536)" fill="none" stroke="#00a19d" filter="url(#bbburst-blur-3)"></use><use xlink:href="#bbburst-shape-4" width="13.627338052002198" opacity="0.7625242891241131" transform="matrix(0.9279181781918935,0.37278392478892847,-0.37278392478892847,0.9279181781918935,453.83889275844615,85.5347973045325)" fill="#ff5c58" filter="url(#bbburst-blur-1)"></use><use xlink:href="#bbburst-shape-1" width="11.252193060071622" opacity="0.7845412085330508" transform="matrix(0.8900262272173791,0.45590932746018503,-0.45590932746018503,0.8900262272173791,593.491574183439,-54.16590571708315)" fill="#00a19d"></use><use xlink:href="#bbburst-shape-6" width="8.948695997239152" opacity="0.8699035654496053" transform="matrix(0.9989027537262081,0.04683255916772498,-0.04683255916772498,0.9989027537262081,443.99483025932005,-50.20250797645514)" fill="#00a19d"></use><use xlink:href="#bbburst-shape-6" width="6.626423378283426" opacity="0.891288964913877" transform="matrix(0.9992486152244622,-0.03875828907465745,0.03875828907465745,0.9992486152244622,430.087283405511,-0.9216125086055058)" fill="#00a19d"></use><use xlink:href="#bbburst-shape-10" width="9.13143465015327" opacity="0.8308616287524764" transform="matrix(0.8593690408067659,0.5113558953437998,-0.5113558953437998,0.8593690408067659,544.7970079013459,105.65753931275299)" fill="none" stroke="#ffa6d5"></use><use xlink:href="#bbburst-shape-4" width="35.09136623501667" opacity="-0.023723821072916706" transform="matrix(1.239070337329091,1.2358012377203595,-1.2358012377203595,1.239070337329091,589.4556465552009,246.16324023247614)" fill="#ff5c58" filter="url(#bbburst-blur-4)"></use><use xlink:href="#bbburst-shape-10" width="14.803183008702606" opacity="0.7472543652335196" transform="matrix(0.9837934026256376,-0.17930571923469163,0.17930571923469163,0.9837934026256376,311.292721479267,-105.51107112950848)" fill="none" stroke="#2c2891" filter="url(#bbburst-blur-1)"></use><use xlink:href="#bbburst-shape-1" width="8.715482860963027" opacity="0.8871038942171086" transform="matrix(0.9825515375647436,0.18599052671885816,-0.18599052671885816,0.9825515375647436,499.94147812878526,47.30408873871585)" fill="#2c2891"></use><use xlink:href="#bbburst-shape-10" width="12.860634051364567" opacity="0.8286490455351223" transform="matrix(0.999992367424656,-0.003907056747953074,0.003907056747953074,0.999992367424656,388.07195344677496,77.03563585030406)" fill="none" stroke="#2c2891"></use><use xlink:href="#bbburst-shape-8" width="39.58264255337227" opacity="0.34407680228034354" transform="matrix(0.892810731016619,-0.45043201327344656,0.45043201327344656,0.892810731016619,437.74042471017407,229.61956434308917)" fill="none" stroke="#ffa6d5" filter="url(#bbburst-blur-2)"></use><use xlink:href="#bbburst-shape-4" width="22.969591339873624" opacity="0.2904736603398842" transform="matrix(0.8891725087073767,0.8785626043481647,-0.8785626043481647,0.8891725087073767,773.7209958970566,-283.3663966989278)" fill="#ffbd9b" filter="url(#bbburst-blur-3)"></use><use xlink:href="#bbburst-shape-10" width="26.25281431907413" opacity="0.30195666751344596" transform="matrix(1.1594120044723153,-0.4671871187067208,0.4671871187067208,1.1594120044723153,315.04324418079847,-349.09412265122694)" fill="none" stroke="#ff5c58" filter="url(#bbburst-blur-3)"></use><use xlink:href="#bbburst-shape-10" width="6.62988211551229" opacity="0.9310903308158743" transform="matrix(0.9115644102295738,0.41115730080202784,-0.41115730080202784,0.9115644102295738,582.9517757470444,56.346724995967804)" fill="none" stroke="#ff5c58"></use><use xlink:href="#bbburst-shape-10" width="22.022780799517143" opacity="0.30185143432022554" transform="matrix(0.9588408627754069,-0.8019502477536329,0.8019502477536329,0.9588408627754069,-13.306869456223922,328.579533735215)" fill="none" stroke="#ffa6d5" filter="url(#bbburst-blur-3)"></use><use xlink:href="#bbburst-shape-6" width="10.171852296949766" opacity="0.82085852367442" transform="matrix(0.9818239083298688,0.1897941332914729,-0.1897941332914729,0.9818239083298688,460.1932943868412,-73.5910005330424)" fill="#ffa6d5"></use><use xlink:href="#bbburst-shape-1" width="34.08686160089131" opacity="0.18074922996683906" transform="matrix(0.9067207514630302,0.8604402819872614,-0.8604402819872614,0.9067207514630302,1091.6617102869895,87.1844035699832)" fill="#ffa6d5" filter="url(#bbburst-blur-3)"></use><use xlink:href="#bbburst-shape-6" width="23.32976133573777" opacity="0.5282355422674199" transform="matrix(0.7311970214416413,0.6821663402974907,-0.6821663402974907,0.7311970214416413,518.9974176867972,-55.17821098139069)" fill="#ff5c58" filter="url(#bbburst-blur-2)"></use><use xlink:href="#bbburst-shape-4" width="11.173645413833711" opacity="0.8839515334153142" transform="matrix(0.8743766354200218,0.48524787421642795,-0.48524787421642795,0.8743766354200218,579.6181853228234,98.88073508623529)" fill="#ffbd9b"></use><use xlink:href="#bbburst-shape-6" width="38.65295369542201" opacity="-0.1012683427209875" transform="matrix(1.2443540702998623,1.2304807790974084,-1.2304807790974084,1.2443540702998623,518.452443793363,-472.6730099421874)" fill="#ff5c58" filter="url(#bbburst-blur-4)"></use><use xlink:href="#bbburst-shape-6" width="25.522680377158864" opacity="0.44068345184983637" transform="matrix(0.8278881750348651,0.5608931891523025,-0.5608931891523025,0.8278881750348651,738.250848755749,-157.08007105909894)" fill="#ffbd9b" filter="url(#bbburst-blur-2)"></use><use xlink:href="#bbburst-shape-1" width="21.163846347190194" opacity="0.5188469185757119" transform="matrix(0.9746629820504332,0.22367850013033638,-0.22367850013033638,0.9746629820504332,474.3788992723423,224.26072029044792)" fill="#ffa6d5" filter="url(#bbburst-blur-2)"></use><use xlink:href="#bbburst-shape-10" width="12.48539994126845" opacity="0.7609800599389529" transform="matrix(0.9983552172735509,-0.057331144613385995,0.057331144613385995,0.9983552172735509,436.86172505104247,-83.89248208824176)" fill="none" stroke="#2c2891" filter="url(#bbburst-blur-1)"></use><use xlink:href="#bbburst-shape-4" width="30.285037934433426" opacity="0.44074043631218285" transform="matrix(0.8835409629697947,0.4683538905084571,-0.4683538905084571,0.8835409629697947,697.8308830127502,258.58115459964165)" fill="#2c2891" filter="url(#bbburst-blur-2)"></use><use xlink:href="#bbburst-shape-6" width="41.33690663282548" opacity="-0.08775825265017567" transform="matrix(1.3062562110034162,1.164557732023191,-1.164557732023191,1.3062562110034162,1192.0408610612778,192.3085588036247)" fill="#00a19d" filter="url(#bbburst-blur-4)"></use><use xlink:href="#bbburst-shape-1" width="29.5033471306047" opacity="0.03630480075484954" transform="matrix(1.7076368348867734,-0.38272240610902647,0.38272240610902647,1.7076368348867734,-9.22252822987241,-644.3890252417851)" fill="#00a19d" filter="url(#bbburst-blur-4)"></use><use xlink:href="#bbburst-shape-10" width="19.633730983328206" opacity="0.6922274351717295" transform="matrix(0.9993682900632678,-0.03553900415065603,0.03553900415065603,0.9993682900632678,274.2687488689906,94.61057045594976)" fill="none" stroke="#2c2891" filter="url(#bbburst-blur-1)"></use><use xlink:href="#bbburst-shape-6" width="20.35381686359313" opacity="0.14133592816922624" transform="matrix(1.102530241233793,0.5890051503721798,-0.5890051503721798,1.102530241233793,734.7829164649276,323.2851509593693)" fill="#00a19d" filter="url(#bbburst-blur-3)"></use><use xlink:href="#bbburst-shape-10" width="25.696562356036193" opacity="0.023244416721993066" transform="matrix(1.7385905707603144,0.19950645920201177,-0.19950645920201177,1.7385905707603144,706.7507825732362,-660.0103860907661)" fill="none" stroke="#ffa6d5" filter="url(#bbburst-blur-4)"></use><use xlink:href="#bbburst-shape-6" width="26.911119848220338" opacity="0.3194351772459172" transform="matrix(1.2045065736939538,0.3341615087469708,-0.3341615087469708,1.2045065736939538,214.1413851372132,-128.62035577605565)" fill="#00a19d" filter="url(#bbburst-blur-3)"></use><use xlink:href="#bbburst-shape-6" width="36.341410618174294" opacity="0.2912363349976862" transform="matrix(1.246862589975339,0.08850808844387995,-0.08850808844387995,1.246862589975339,665.5801589887453,-294.775944909102)" fill="#00a19d" filter="url(#bbburst-blur-3)"></use><use xlink:href="#bbburst-shape-4" width="16.99812748998781" opacity="0.6975893073960486" transform="matrix(0.8832687251971066,-0.4688671017342528,0.4688671017342528,0.8832687251971066,266.11422956181485,-70.87549146234187)" fill="#ffa6d5" filter="url(#bbburst-blur-1)"></use><use xlink:href="#bbburst-shape-1" width="29.06309109191077" opacity="0.025700963057206483" transform="matrix(1.6869220607520945,0.4656113840402819,-0.4656113840402819,1.6869220607520945,814.413813883896,76.81232096747294)" fill="#ffbd9b" filter="url(#bbburst-blur-4)"></use><use xlink:href="#bbburst-shape-4" width="16.64389479838283" opacity="0.675951210788291" transform="matrix(0.8302177525108257,-0.5574392194812572,0.5574392194812572,0.8302177525108257,97.04065851283028,198.75046700183242)" fill="#00a19d" filter="url(#bbburst-blur-1)"></use><use xlink:href="#bbburst-shape-8" width="25.26890759696405" opacity="0.45900880554564394" transform="matrix(0.9704853099864716,0.24116024361503302,-0.24116024361503302,0.9704853099864716,458.92563152743577,-233.3712859819996)" fill="none" stroke="#ffa6d5" filter="url(#bbburst-blur-2)"></use><use xlink:href="#bbburst-shape-6" width="36.63187623088003" opacity="0.10908072586324091" transform="matrix(1.4782123634166098,0.9366900280467817,-0.9366900280467817,1.4782123634166098,567.4021319183836,149.69366633918014)" fill="#2c2891" filter="url(#bbburst-blur-4)"></use><use xlink:href="#bbburst-shape-6" width="11.909156782113216" opacity="0.8817137262746328" transform="matrix(0.9035789414149901,-0.4284216341775541,0.4284216341775541,0.9035789414149901,270.1970032586619,66.20699575135711)" fill="#ffa6d5"></use><use xlink:href="#bbburst-shape-1" width="7.340071756766719" opacity="0.9934956787286158" transform="matrix(0.9984743503417495,0.055217494597468206,-0.055217494597468206,0.9984743503417495,415.51120488213746,0.11038888246218903)" fill="#ffa6d5"></use><use xlink:href="#bbburst-shape-8" width="7.535447329192545" opacity="0.8986040841536946" transform="matrix(0.7887205423544974,0.614751906111748,-0.614751906111748,0.7887205423544974,597.4953610313921,86.40345579574802)" fill="none" stroke="#ff5c58"></use><use xlink:href="#bbburst-shape-8" width="27.316563632446538" opacity="0.15216002851739274" transform="matrix(0.9446390043627922,-0.818631267077231,0.818631267077231,0.9446390043627922,426.80848451372935,-70.37995208525649)" fill="none" stroke="#ffa6d5" filter="url(#bbburst-blur-3)"></use><use xlink:href="#bbburst-shape-4" width="7.1911744876814865" opacity="0.9251811315896612" transform="matrix(0.9883313997922596,-0.15231888978282623,0.15231888978282623,0.9883313997922596,303.55387589590794,-5.349476390358063)" fill="#ffbd9b"></use><use xlink:href="#bbburst-shape-1" width="18.513003447689854" opacity="0.577580023398271" transform="matrix(0.9401054299542778,-0.3408838226881446,0.3408838226881446,0.9401054299542778,162.53358338574833,-138.97444157518348)" fill="#ffa6d5" filter="url(#bbburst-blur-1)"></use><use xlink:href="#bbburst-shape-1" width="25.08095032645486" opacity="0.5617779327429485" transform="matrix(0.7577113606197526,-0.6525898359519271,0.6525898359519271,0.7577113606197526,39.902921834020276,280.8030228595845)" fill="#2c2891" filter="url(#bbburst-blur-1)"></use><use xlink:href="#bbburst-shape-4" width="7.891376390349176" opacity="0.8644448260751438" transform="matrix(0.9876608344421781,-0.15660803334752832,0.15660803334752832,0.9876608344421781,275.6705039657371,25.08628886008694)" fill="#ffbd9b"></use><use xlink:href="#bbburst-shape-4" width="30.26691539557935" opacity="0.29628313865114353" transform="matrix(1.0714384179496999,-0.6438320561617322,0.6438320561617322,1.0714384179496999,315.8144681773395,-272.4844338602836)" fill="#ffa6d5" filter="url(#bbburst-blur-3)"></use><use xlink:href="#bbburst-shape-6" width="12.381132600292625" opacity="0.7211640570930902" transform="matrix(0.7612816459409708,0.6484213564908287,-0.6484213564908287,0.7612816459409708,720.0849730793382,198.54007285255864)" fill="#2c2891" filter="url(#bbburst-blur-1)"></use><use xlink:href="#bbburst-shape-10" width="19.214725150951416" opacity="0.6751532623496671" transform="matrix(0.7211710088340748,0.6927570829787616,-0.6927570829787616,0.7211710088340748,767.7051065371504,-4.012135795591917)" fill="none" stroke="#ffa6d5" filter="url(#bbburst-blur-1)"></use><use xlink:href="#bbburst-shape-4" width="14.39460191478965" opacity="0.8204136215984859" transform="matrix(0.8440368130571232,-0.5362852395921175,0.5362852395921175,0.8440368130571232,247.6689101277919,109.53092611432226)" fill="#ff5c58"></use><use xlink:href="#bbburst-shape-4" width="32.00336590827699" opacity="0.22834858474466568" transform="matrix(1.224016625664797,0.2535415155278602,-0.2535415155278602,1.224016625664797,205.7257559857587,-304.218317674095)" fill="#2c2891" filter="url(#bbburst-blur-3)"></use><use xlink:href="#bbburst-shape-10" width="29.761657924703233" opacity="0.15197656868494247" transform="matrix(1.1817323096452275,0.40744171158652387,-0.40744171158652387,1.1817323096452275,425.671560279792,-441.1007870381449)" fill="none" stroke="#00a19d" filter="url(#bbburst-blur-3)"></use><use xlink:href="#bbburst-shape-6" width="24.248814946420143" opacity="0.5359930957039988" transform="matrix(0.9960609606853966,0.08867109223689988,-0.08867109223689988,0.9960609606853966,245.87623532417712,-109.43996155636239)" fill="#ffbd9b" filter="url(#bbburst-blur-2)"></use><use xlink:href="#bbburst-shape-10" width="10.673220754495066" opacity="0.8293990350185255" transform="matrix(0.8896163605681855,-0.45670858433952843,0.45670858433952843,0.8896163605681855,140.32616772143257,20.616374544045016)" fill="none" stroke="#00a19d"></use><use xlink:href="#bbburst-shape-10" width="19.04367923343753" opacity="0.6163541166312081" transform="matrix(0.7221143548441321,-0.6917737047098876,0.6917737047098876,0.7221143548441321,197.81742045895595,269.9857067241898)" fill="none" stroke="#2c2891" filter="url(#bbburst-blur-1)"></use><use xlink:href="#bbburst-shape-10" width="18.972586072890994" opacity="0.665944634440523" transform="matrix(0.873394335427116,-0.4870136906123137,0.4870136906123137,0.873394335427116,47.40443605691246,39.581255290457534)" fill="none" stroke="#2c2891" filter="url(#bbburst-blur-1)"></use><use xlink:href="#bbburst-shape-10" width="25.579387527427517" opacity="0.28754119063193806" transform="matrix(1.1624186113566295,0.4596552751483718,-0.4596552751483718,1.1624186113566295,275.5693269274095,-200.0353289227375)" fill="none" stroke="#2c2891" filter="url(#bbburst-blur-3)"></use><use xlink:href="#bbburst-shape-1" width="13.875880637272367" opacity="0.8316747062574013" transform="matrix(0.9577459634966512,-0.2876154888142697,0.2876154888142697,0.9577459634966512,352.5680595072176,33.87655711155446)" fill="#ffbd9b"></use><use xlink:href="#bbburst-shape-6" width="22.05105334506467" opacity="0.5642115288305758" transform="matrix(0.9995093109192309,-0.03132311264488772,0.03132311264488772,0.9995093109192309,182.11409620431684,-25.73381502851612)" fill="#ffa6d5" filter="url(#bbburst-blur-1)"></use><use xlink:href="#bbburst-shape-6" width="31.694444265838097" opacity="0.13917906360019994" transform="matrix(1.0204567698320561,0.7219196498945892,-0.7219196498945892,1.0204567698320561,937.7989308052399,-301.9746242879075)" fill="#ff5c58" filter="url(#bbburst-blur-3)"></use><use xlink:href="#bbburst-shape-4" width="25.017819997574605" opacity="0.5795868460722114" transform="matrix(0.9971827412086618,0.07501053683036092,-0.07501053683036092,0.9971827412086618,606.137991166137,-14.549855049323412)" fill="#2c2891" filter="url(#bbburst-blur-1)"></use><use xlink:href="#bbburst-shape-4" width="12.329863966904133" opacity="0.7371634315572522" transform="matrix(0.8255688024690109,-0.5643014729644814,0.5643014729644814,0.8255688024690109,272.060935779145,131.6399955624517)" fill="#2c2891" filter="url(#bbburst-blur-1)"></use><use xlink:href="#bbburst-shape-1" width="8.007953722404027" opacity="0.8743910193617228" transform="matrix(0.9445367673845206,0.32840568670289494,-0.32840568670289494,0.9445367673845206,486.72908629277504,-18.18927095325114)" fill="#ff5c58"></use><use xlink:href="#bbburst-shape-10" width="9.365062412448358" opacity="0.7867341122957441" transform="matrix(0.9496667915782437,0.313261847299483,-0.313261847299483,0.9496667915782437,463.45961134817435,-58.246580848512224)" fill="none" stroke="#ffa6d5"></use><use xlink:href="#bbburst-shape-8" width="7.498766812802348" opacity="0.9203608382422082" transform="matrix(0.7990564078104905,0.6012560661955895,-0.6012560661955895,0.7990564078104905,642.2577268109849,113.64436659877276)" fill="none" stroke="#00a19d"></use><use xlink:href="#bbburst-shape-4" width="14.859662598664418" opacity="0.6022897968564469" transform="matrix(0.9450110605119473,-0.32703837008841125,0.32703837008841125,0.9450110605119473,95.79268323087115,-41.51219289143904)" fill="#2c2891" filter="url(#bbburst-blur-1)"></use><use xlink:href="#bbburst-shape-6" width="22.368818570172465" opacity="0.44870614089006067" transform="matrix(0.9730686883925859,0.23051535235192624,-0.23051535235192624,0.9730686883925859,405.1456257726644,244.29165803171713)" fill="#2c2891" filter="url(#bbburst-blur-2)"></use><use xlink:href="#bbburst-shape-6" width="8.573425588355557" opacity="0.879514267992419" transform="matrix(0.7781038342111434,0.6281356725946374,-0.6281356725946374,0.7781038342111434,596.4999589317872,68.8679984893351)" fill="#ffa6d5"></use><use xlink:href="#bbburst-shape-8" width="27.70851427289337" opacity="0.4135514702439238" transform="matrix(0.998759917290579,-0.04978581739527647,0.04978581739527647,0.998759917290579,624.1811690174328,-54.62615220867224)" fill="none" stroke="#ffa6d5" filter="url(#bbburst-blur-2)"></use><use xlink:href="#bbburst-shape-4" width="8.427103922854645" opacity="0.9166863004416431" transform="matrix(0.7913461455380331,0.6113683651793722,-0.6113683651793722,0.7913461455380331,616.3719665140685,52.80695740818999)" fill="#2c2891"></use><use xlink:href="#bbburst-shape-8" width="15.81570738032524" opacity="0.7167018798402155" transform="matrix(0.9832953722158079,-0.18201706232926607,0.18201706232926607,0.9832953722158079,345.481966629614,-116.6700072655106)" fill="none" stroke="#00a19d" filter="url(#bbburst-blur-1)"></use><use xlink:href="#bbburst-shape-10" width="18.756612871512797" opacity="0.58580161431669" transform="matrix(0.9846623157129394,0.1744709833033321,-0.1744709833033321,0.9846623157129394,606.9412131290284,-110.8776214303636)" fill="none" stroke="#ffbd9b" filter="url(#bbburst-blur-1)"></use><use xlink:href="#bbburst-shape-10" width="15.355506625658615" opacity="0.7065444540462927" transform="matrix(0.8878669507052864,-0.46010029107282313,0.46010029107282313,0.8878669507052864,244.414601639812,175.64313357531512)" fill="none" stroke="#ffa6d5" filter="url(#bbburst-blur-1)"></use><use xlink:href="#bbburst-shape-4" width="20.88102789850143" opacity="0.6465035802116433" transform="matrix(0.7193203420073119,0.6946785195862069,-0.6946785195862069,0.7193203420073119,810.8324953271198,179.65501318877955)" fill="#00a19d" filter="url(#bbburst-blur-1)"></use><use xlink:href="#bbburst-shape-10" width="29.972746970876322" opacity="0.44497992725177926" transform="matrix(0.9993636541085507,0.0356691301660859,-0.0356691301660859,0.9993636541085507,161.8097837511032,-77.62549256491951)" fill="none" stroke="#00a19d" filter="url(#bbburst-blur-2)"></use><use xlink:href="#bbburst-shape-6" width="13.551583103624326" opacity="0.6870374090378711" transform="matrix(0.8502655452937212,0.5263539707139777,-0.5263539707139777,0.8502655452937212,487.24081174925595,-21.251256280979533)" fill="#2c2891" filter="url(#bbburst-blur-1)"></use><use xlink:href="#bbburst-shape-1" width="34.48394275406428" opacity="0.18433921474347903" transform="matrix(1.2495927020463768,-0.0319073501318273,0.0319073501318273,1.2495927020463768,4.89548324825769,-31.786143729523303)" fill="#2c2891" filter="url(#bbburst-blur-3)"></use><use xlink:href="#bbburst-shape-10" width="9.042504362615963" opacity="0.8473413396823816" transform="matrix(0.9534433335161784,-0.3015722297784685,0.3015722297784685,0.9534433335161784,242.88857138103543,80.68352611723617)" fill="none" stroke="#00a19d"></use><use xlink:href="#bbburst-shape-1" width="25.55532295880633" opacity="0.2837046356856814" transform="matrix(0.9254266094479331,-0.8402889922673644,0.8402889922673644,0.9254266094479331,-145.4765544195128,-214.09330014516897)" fill="#ffa6d5" filter="url(#bbburst-blur-3)"></use><use xlink:href="#bbburst-shape-10" width="27.286956412566248" opacity="0.60572086659038" transform="matrix(0.969390628647929,-0.2455235408053023,0.2455235408053023,0.969390628647929,113.63105997285187,45.22575909194353)" fill="none" stroke="#ffa6d5" filter="url(#bbburst-blur-1)"></use><use xlink:href="#bbburst-shape-4" width="7.364748273266635" opacity="0.8816220426293759" transform="matrix(0.9498374556297955,0.31274399735680986,-0.31274399735680986,0.9498374556297955,524.0871785764496,-34.292163297033085)" fill="#ff5c58"></use><use xlink:href="#bbburst-shape-10" width="20.833439293139023" opacity="0.44005086553405326" transform="matrix(0.9612842373667698,-0.2755587323787576,0.2755587323787576,0.9612842373667698,340.96594021246904,262.7880501172169)" fill="none" stroke="#ffbd9b" filter="url(#bbburst-blur-2)"></use><use xlink:href="#bbburst-shape-4" width="23.052947869407824" opacity="0.611832859954166" transform="matrix(0.9179411623470064,0.3967165517961493,-0.3967165517961493,0.9179411623470064,399.2272067618933,119.64291018415554)" fill="#ff5c58" filter="url(#bbburst-blur-1)"></use><use xlink:href="#bbburst-shape-6" width="18.269693955138226" opacity="0.6643714484452117" transform="matrix(0.764931241852211,-0.6441119430956349,0.6441119430956349,0.764931241852211,93.61982316330568,-45.23676931561275)" fill="#00a19d" filter="url(#bbburst-blur-1)"></use><use xlink:href="#bbburst-shape-4" width="12.107233724652206" opacity="0.8055668796576058" transform="matrix(0.711294321817365,-0.7028942934398991,0.7028942934398991,0.711294321817365,194.1284507321111,83.39009254084516)" fill="#ff5c58"></use><use xlink:href="#bbburst-shape-1" width="24.31140459020387" opacity="0.6022462246022637" transform="matrix(0.9825773994288535,-0.18585385153832948,0.18585385153832948,0.9825773994288535,273.7215773476985,183.72169444164405)" fill="#00a19d" filter="url(#bbburst-blur-1)"></use><use xlink:href="#bbburst-shape-10" width="16.754305320632753" opacity="0.6779583477000488" transform="matrix(0.9554472055161989,0.2951620528985498,-0.2951620528985498,0.9554472055161989,635.2364052761991,-57.67570325893553)" fill="none" stroke="#00a19d" filter="url(#bbburst-blur-1)"></use><use xlink:href="#bbburst-shape-6" width="26.137237739535546" opacity="0.14014888282681237" transform="matrix(1.2466716416888732,-0.09115820209268041,0.09115820209268041,1.2466716416888732,-16.219981240822577,-230.18239233224227)" fill="#ff5c58" filter="url(#bbburst-blur-3)"></use><use xlink:href="#bbburst-shape-6" width="30.428729517298716" opacity="0.3427455319582804" transform="matrix(0.9798780567174153,-0.19959707904601626,0.19959707904601626,0.9798780567174153,13.426693437772812,59.19028148882853)" fill="#ffa6d5" filter="url(#bbburst-blur-2)"></use><use xlink:href="#bbburst-shape-1" width="12.04776149525218" opacity="0.7564680797467709" transform="matrix(0.9771798278051358,-0.21241370984643415,0.21241370984643415,0.9771798278051358,399.06256221648624,-52.23347538877351)" fill="#00a19d" filter="url(#bbburst-blur-1)"></use><use xlink:href="#bbburst-shape-1" width="21.681792099394187" opacity="0.48062750959164946" transform="matrix(0.9115839193704155,-0.4111140449379854,0.4111140449379854,0.9115839193704155,-2.3815280047077465,90.93963776353456)" fill="#2c2891" filter="url(#bbburst-blur-2)"></use><use xlink:href="#bbburst-shape-10" width="16.18519333760831" opacity="0.7018164758660614" transform="matrix(0.9685368555583967,0.24887016579946533,-0.24887016579946533,0.9685368555583967,364.98058577749936,-33.52637295626931)" fill="none" stroke="#ff5c58" filter="url(#bbburst-blur-1)"></use><use xlink:href="#bbburst-shape-4" width="5.60416395799978" opacity="0.9627233801031366" transform="matrix(0.9884145961953871,0.15177808151347086,-0.15177808151347086,0.9884145961953871,474.712484270863,4.521955846293395)" fill="#00a19d"></use><use xlink:href="#bbburst-shape-6" width="8.17669065949028" opacity="0.8192141346417859" transform="matrix(0.8815086340175694,0.4721679025013019,-0.4721679025013019,0.8815086340175694,510.9521555676636,78.57639777943638)" fill="#ffa6d5"></use><use xlink:href="#bbburst-shape-6" width="37.21506221697153" opacity="-0.0898007012203379" transform="matrix(1.4387073668063286,0.996303725124623,-0.996303725124623,1.4387073668063286,409.44400930164244,136.48826636582908)" fill="#00a19d" filter="url(#bbburst-blur-4)"></use><use xlink:href="#bbburst-shape-6" width="47.12726180819796" opacity="-0.0915557098864146" transform="matrix(1.270298598260876,1.2036783088751137,-1.2036783088751137,1.270298598260876,1203.7286910993646,-478.88375865997267)" fill="#00a19d" filter="url(#bbburst-blur-4)"></use><use xlink:href="#bbburst-shape-4" width="32.921828818269866" opacity="0.15093574046057168" transform="matrix(1.0973676197660456,-0.5985685483626779,0.5985685483626779,1.0973676197660456,-110.76539508899461,256.9936113736983)" fill="#00a19d" filter="url(#bbburst-blur-3)"></use><use xlink:href="#bbburst-shape-6" width="10.937163286426987" opacity="0.7597962040893291" transform="matrix(0.9993756315516544,0.03533195523505313,-0.03533195523505313,0.9993756315516544,484.49068569668697,77.09350055248103)" fill="#ff5c58" filter="url(#bbburst-blur-1)"></use><use xlink:href="#bbburst-shape-10" width="20.72363406942196" opacity="0.5581840610195856" transform="matrix(0.7347692280525742,-0.6783171688133983,0.6783171688133983,0.7347692280525742,177.1682774613932,303.85653569689185)" fill="none" stroke="#ffbd9b" filter="url(#bbburst-blur-1)"></use><use xlink:href="#bbburst-shape-1" width="24.94819372524512" opacity="0.46427907973360616" transform="matrix(0.962198349586345,-0.2723496577073558,0.2723496577073558,0.962198349586345,450.2390504606563,-151.20612967809606)" fill="#ffbd9b" filter="url(#bbburst-blur-2)"></use><use xlink:href="#bbburst-shape-10" width="25.45566521143517" opacity="0.5751936610453763" transform="matrix(0.9666228416413614,-0.2562035948560826,0.2562035948560826,0.9666228416413614,155.16872148108536,156.72268123744152)" fill="none" stroke="#ffa6d5" filter="url(#bbburst-blur-1)"></use><use xlink:href="#bbburst-shape-8" width="37.31329700461791" opacity="0.29003497912285636" transform="matrix(1.2452531847888642,0.10883246654004779,-0.10883246654004779,1.2452531847888642,259.089712132566,175.69648157128262)" fill="none" stroke="#ff5c58" filter="url(#bbburst-blur-3)"></use><use xlink:href="#bbburst-shape-8" width="9.431911783920734" opacity="0.8718619847257553" transform="matrix(0.8294195961319674,-0.5586261124869516,0.5586261124869516,0.8294195961319674,151.56307850490776,17.19386644752535)" fill="none" stroke="#ff5c58"></use><use xlink:href="#bbburst-shape-10" width="26.124776248673875" opacity="0.5716826288340919" transform="matrix(0.7572462340370401,0.6531294979073602,-0.6531294979073602,0.7572462340370401,832.0336801649213,21.43632068967844)" fill="none" stroke="#00a19d" filter="url(#bbburst-blur-1)"></use><use xlink:href="#bbburst-shape-4" width="30.84184281608659" opacity="0.1619584622635214" transform="matrix(0.9853809561265597,0.7691062158786048,-0.7691062158786048,0.9853809561265597,610.2053212105575,362.06154301943934)" fill="#00a19d" filter="url(#bbburst-blur-3)"></use><use xlink:href="#bbburst-shape-10" width="27.9133245666373" opacity="0.11824672519265456" transform="matrix(0.9158576099855708,0.8507084331494065,-0.8507084331494065,0.9158576099855708,364.21419326244,181.35877338933517)" fill="none" stroke="#ffa6d5" filter="url(#bbburst-blur-3)"></use><use xlink:href="#bbburst-shape-4" width="8.290964399699671" opacity="0.8905851449429554" transform="matrix(0.8071129424224428,0.5903970682296674,-0.5903970682296674,0.8071129424224428,593.7328996506717,104.66917830808256)" fill="#ffa6d5"></use><use xlink:href="#bbburst-shape-6" width="8.703280755329873" opacity="0.9161213345332985" transform="matrix(0.919433540834964,0.3932454246239626,-0.3932454246239626,0.919433540834964,569.9391991797386,-3.36313336896535)" fill="#2c2891"></use><use xlink:href="#bbburst-shape-6" width="11.954555873963503" opacity="0.7557784480827918" transform="matrix(0.9999288660677345,-0.011927397222143652,0.011927397222143652,0.9999288660677345,350.4783806177797,-102.73268398119404)" fill="#ffbd9b" filter="url(#bbburst-blur-1)"></use><use xlink:href="#bbburst-shape-6" width="20.887742961006875" opacity="0.5796094494639019" transform="matrix(0.9992064399749592,0.03983077092611187,-0.03983077092611187,0.9992064399749592,507.02013300678965,-159.72434570365573)" fill="#ff5c58" filter="url(#bbburst-blur-1)"></use><use xlink:href="#bbburst-shape-8" width="25.45328684703523" opacity="0.4028629321160908" transform="matrix(0.8888163972570606,-0.458263474397621,0.458263474397621,0.8888163972570606,-19.95889388811787,-96.07410711637613)" fill="none" stroke="#2c2891" filter="url(#bbburst-blur-2)"></use><use xlink:href="#bbburst-shape-10" width="5.8412539372778385" opacity="0.9257876201989332" transform="matrix(0.9982753879239369,0.05870476867609124,-0.05870476867609124,0.9982753879239369,453.18852427015884,7.663731967231058)" fill="none" stroke="#2c2891"></use><use xlink:href="#bbburst-shape-8" width="13.906810742448403" opacity="0.6622120355242871" transform="matrix(0.893700987730029,0.4486630634790103,-0.4486630634790103,0.893700987730029,493.545015262098,-90.03101831445065)" fill="none" stroke="#2c2891" filter="url(#bbburst-blur-1)"></use><use xlink:href="#bbburst-shape-8" width="16.445394939556543" opacity="0.5440165624733988" transform="matrix(0.9952314048410553,-0.09754204641127606,0.09754204641127606,0.9952314048410553,297.44440742226504,-194.87535491027344)" fill="none" stroke="#00a19d" filter="url(#bbburst-blur-2)"></use><use xlink:href="#bbburst-shape-4" width="5.404590413343936" opacity="0.9114541579003052" transform="matrix(0.9440417725717731,-0.3298259111100043,0.3298259111100043,0.9440417725717731,256.55846537102633,-15.545541331162724)" fill="#ffbd9b"></use><use xlink:href="#bbburst-shape-6" width="6.455538568600297" opacity="0.9449466158386" transform="matrix(0.7239373813077091,0.6898656883374737,-0.6898656883374737,0.7239373813077091,670.8165803382749,83.58227868799963)" fill="#00a19d"></use><use xlink:href="#bbburst-shape-6" width="16.314084068232912" opacity="0.643897494196435" transform="matrix(0.8253801393786884,0.5645773866523677,-0.5645773866523677,0.8253801393786884,629.9769511097442,225.11924179701623)" fill="#2c2891" filter="url(#bbburst-blur-1)"></use><use xlink:href="#bbburst-shape-6" width="20.59084743545251" opacity="0.5748782289556965" transform="matrix(0.953143236175751,0.30251937348278446,-0.30251937348278446,0.953143236175751,696.3384081780398,63.78777536423934)" fill="#ffa6d5" filter="url(#bbburst-blur-1)"></use><use xlink:href="#bbburst-shape-10" width="43.22298746767168" opacity="0.311835541157259" transform="matrix(1.2354143716863315,0.19039782097195052,-0.19039782097195052,1.2354143716863315,170.27461112942183,35.710230030857076)" fill="none" stroke="#ffa6d5" filter="url(#bbburst-blur-3)"></use><use xlink:href="#bbburst-shape-1" width="35.95258464384904" opacity="0.150524651686043" transform="matrix(0.9977398738275528,0.7530040797861449,-0.7530040797861449,0.9977398738275528,963.0868601060073,247.81073473653686)" fill="#ffbd9b" filter="url(#bbburst-blur-3)"></use><use xlink:href="#bbburst-shape-10" width="14.146564252973757" opacity="0.755127373190126" transform="matrix(0.8500551140604309,0.5266937469343146,-0.5266937469343146,0.8500551140604309,606.3236695008508,166.4326866388792)" fill="none" stroke="#ffa6d5" filter="url(#bbburst-blur-1)"></use><use xlink:href="#bbburst-shape-6" width="9.988481866452592" opacity="0.8293415454850674" transform="matrix(0.9918360909952549,-0.12751928716571573,0.12751928716571573,0.9918360909952549,388.90101890471993,66.23275301147504)" fill="#00a19d"></use><use xlink:href="#bbburst-shape-4" width="21.909938686582045" opacity="0.4580911544899834" transform="matrix(0.9924414464817009,-0.12271909103847424,0.12271909103847424,0.9924414464817009,145.25336789391463,151.09932410559986)" fill="#00a19d" filter="url(#bbburst-blur-2)"></use><use xlink:href="#bbburst-shape-4" width="25.36934397858959" opacity="0.5113565134628988" transform="matrix(0.7651794005424777,-0.6438171207613654,0.6438171207613654,0.7651794005424777,280.76462933561675,264.75484143147224)" fill="#ffa6d5" filter="url(#bbburst-blur-2)"></use><use xlink:href="#bbburst-shape-10" width="33.71220852249728" opacity="0.1698987346773534" transform="matrix(1.2250269965046416,0.24861387297336499,-0.24861387297336499,1.2250269965046416,654.5467451967294,235.4166519182695)" fill="none" stroke="#ff5c58" filter="url(#bbburst-blur-3)"></use><use xlink:href="#bbburst-shape-4" width="32.3193886993226" opacity="0.25167574677183346" transform="matrix(1.2264576604363835,-0.2414572574119747,0.2414572574119747,1.2264576604363835,619.9664169465483,-102.73129700940234)" fill="#ffbd9b" filter="url(#bbburst-blur-3)"></use><use xlink:href="#bbburst-shape-4" width="7.634451523128351" opacity="0.9118229879421038" transform="matrix(0.8796598227405855,0.475603402275469,-0.475603402275469,0.8796598227405855,566.0490646894202,80.09854103471196)" fill="#00a19d"></use><use xlink:href="#bbburst-shape-8" width="31.88477132687818" opacity="0.44034907371930365" transform="matrix(0.9156073041597094,-0.4020737053941596,0.4020737053941596,0.9156073041597094,77.6193378114431,244.68926621320514)" fill="none" stroke="#ffa6d5" filter="url(#bbburst-blur-2)"></use><use xlink:href="#bbburst-shape-10" width="10.380395806164898" opacity="0.8272348054005955" transform="matrix(0.9994173719849564,-0.034130874215046285,0.034130874215046285,0.9994173719849564,345.5002814961411,-68.67332231052006)" fill="none" stroke="#00a19d"></use><use xlink:href="#bbburst-shape-4" width="24.51143248467212" opacity="0.37067530220550815" transform="matrix(0.9860072494428692,0.166702441632111,-0.166702441632111,0.9860072494428692,450.4345914989163,286.741571402349)" fill="#ffa6d5" filter="url(#bbburst-blur-2)"></use><use xlink:href="#bbburst-shape-6" width="6.438237662449259" opacity="0.9532578300478308" transform="matrix(0.7665005544070954,-0.6422436454287542,0.6422436454287542,0.7665005544070954,130.90162128564663,114.11366064098735)" fill="#ffbd9b"></use><use xlink:href="#bbburst-shape-10" width="28.597121285806754" opacity="0.1348774841158763" transform="matrix(0.9825287443882895,0.7727465732378057,-0.7727465732378057,0.9825287443882895,850.6852305003429,-360.9025333926192)" fill="none" stroke="#2c2891" filter="url(#bbburst-blur-3)"></use><use xlink:href="#bbburst-shape-6" width="30.97093735053603" opacity="0.5075842093961898" transform="matrix(0.869528349932253,0.49388303135873507,-0.49388303135873507,0.869528349932253,773.2816027473013,159.8953156243939)" fill="#ffa6d5" filter="url(#bbburst-blur-2)"></use><use xlink:href="#bbburst-shape-1" width="29.029753802478886" opacity="0.09903403524085197" transform="matrix(1.749139977777852,0.05485743467658098,-0.05485743467658098,1.749139977777852,120.82602833017707,-597.6279292466411)" fill="#ffa6d5" filter="url(#bbburst-blur-4)"></use><use xlink:href="#bbburst-shape-10" width="8.886697575396333" opacity="0.8267099959224825" transform="matrix(0.7126581831771837,0.701511449621883,-0.701511449621883,0.7126581831771837,617.2729039878143,62.20997901973601)" fill="none" stroke="#2c2891"></use><use xlink:href="#bbburst-shape-4" width="9.484914120492093" opacity="0.8423389474615531" transform="matrix(0.8992202904146547,0.4374961363333214,-0.4374961363333214,0.8992202904146547,585.9041786266906,-31.060985283715524)" fill="#ffa6d5"></use><use xlink:href="#bbburst-shape-6" width="35.91157377499085" opacity="0.310429428565398" transform="matrix(1.2384294726034661,-0.16968335624657135,0.16968335624657135,1.2384294726034661,79.48697891598901,115.53329223102827)" fill="#ffa6d5" filter="url(#bbburst-blur-3)"></use><use xlink:href="#bbburst-shape-8" width="27.721964380840262" opacity="0.35961801830100937" transform="matrix(0.8048551709105913,0.5934712746700407,-0.5934712746700407,0.8048551709105913,525.0763532792557,-200.0023648583479)" fill="none" stroke="#00a19d" filter="url(#bbburst-blur-2)"></use><use xlink:href="#bbburst-shape-1" width="7.153523574795251" opacity="0.9601978780725942" transform="matrix(0.985829418135204,0.16775088178368883,-0.16775088178368883,0.985829418135204,449.29948144966147,-5.742882098180871)" fill="#00a19d"></use><use xlink:href="#bbburst-shape-10" width="15.080224196070096" opacity="0.711035597804624" transform="matrix(0.7107109766990494,-0.7034841203605688,0.7034841203605688,0.7107109766990494,-15.936775094022437,135.86091024748777)" fill="none" stroke="#ff5c58" filter="url(#bbburst-blur-1)"></use><use xlink:href="#bbburst-shape-8" width="32.731258491197345" opacity="0.23200019496543067" transform="matrix(1.1021527604839463,0.5897111941939183,-0.5897111941939183,1.1021527604839463,936.0253767673519,84.40208117801376)" fill="none" stroke="#ffa6d5" filter="url(#bbburst-blur-3)"></use><use xlink:href="#bbburst-shape-4" width="17.196518640501782" opacity="0.6890406139084219" transform="matrix(0.9953272258538867,0.09655937797027372,-0.09655937797027372,0.9953272258538867,300.4514104320381,53.79363034497203)" fill="#2c2891" filter="url(#bbburst-blur-1)"></use><use xlink:href="#bbburst-shape-4" width="25.96569743946663" opacity="0.4444174166323287" transform="matrix(0.9935621869175784,0.11328804318002476,-0.11328804318002476,0.9935621869175784,681.9245002536211,16.9458414481756)" fill="#00a19d" filter="url(#bbburst-blur-2)"></use><use xlink:href="#bbburst-shape-4" width="14.49758554304911" opacity="0.7660702642668156" transform="matrix(0.9895824269460685,-0.14396742784230393,0.14396742784230393,0.9895824269460685,230.6499526565328,-6.693406897082809)" fill="#ffa6d5" filter="url(#bbburst-blur-1)"></use><use xlink:href="#bbburst-shape-10" width="14.408265748324244" opacity="0.7590141399757211" transform="matrix(0.8240699059464495,0.5664881200108348,-0.5664881200108348,0.8240699059464495,536.2569728358563,-1.8001469004203159)" fill="none" stroke="#ffa6d5" filter="url(#bbburst-blur-1)"></use><use xlink:href="#bbburst-shape-6" width="29.842427645902283" opacity="0.3231806486394714" transform="matrix(1.2497948753621637,0.022644414730215848,-0.022644414730215848,1.2497948753621637,348.96243293168885,-401.9908158331921)" fill="#2c2891" filter="url(#bbburst-blur-3)"></use><use xlink:href="#bbburst-shape-6" width="7.043480800183869" opacity="0.941706829134521" transform="matrix(0.9487446250642938,0.3160437254742016,-0.3160437254742016,0.9487446250642938,498.41000265098205,28.316180972934262)" fill="#00a19d"></use><use xlink:href="#bbburst-shape-4" width="6.472790424599806" opacity="0.9599688209398369" transform="matrix(0.9991945627691108,-0.04012761807839624,0.04012761807839624,0.9991945627691108,390.6472201910004,-14.570860259390315)" fill="#ffbd9b"></use><use xlink:href="#bbburst-shape-10" width="27.118894875735084" opacity="0.1820446136887759" transform="matrix(1.1961849232488917,-0.36282451597438026,0.36282451597438026,1.1961849232488917,-128.3039950427564,-102.31477257058168)" fill="none" stroke="#ff5c58" filter="url(#bbburst-blur-3)"></use><use xlink:href="#bbburst-shape-10" width="11.040810190234119" opacity="0.8483622564718478" transform="matrix(0.7411998794072974,-0.6712843948481209,0.6712843948481209,0.7411998794072974,194.45696008832397,94.61963839980734)" fill="none" stroke="#ffa6d5"></use><use xlink:href="#bbburst-shape-6" width="22.423996656370296" opacity="0.3039515187641031" transform="matrix(0.9849979984498209,-0.7695966106018441,0.7695966106018441,0.9849979984498209,167.66908430097772,315.6559753743026)" fill="#ff5c58" filter="url(#bbburst-blur-3)"></use><use xlink:href="#bbburst-shape-10" width="12.672224446750223" opacity="0.8335354657045733" transform="matrix(0.9999927540577375,-0.0038068138937193768,0.0038068138937193768,0.9999927540577375,317.2338309065439,0.5244256093159834)" fill="none" stroke="#00a19d"></use><use xlink:href="#bbburst-shape-4" width="15.58752129195872" opacity="0.7841855902174418" transform="matrix(0.924894350074004,-0.3802241986002282,0.3802241986002282,0.924894350074004,210.40147569871326,125.28557501873178)" fill="#ffa6d5"></use><use xlink:href="#bbburst-shape-6" width="19.27762235246514" opacity="0.6850020142727545" transform="matrix(0.8805357535909036,-0.4739797323178486,0.4739797323178486,0.8805357535909036,343.22713112519887,63.55067401083039)" fill="#ffbd9b" filter="url(#bbburst-blur-1)"></use><use xlink:href="#bbburst-shape-6" width="11.91478877043484" opacity="0.7941753238086949" transform="matrix(0.8739681722221005,0.4859831622008738,-0.4859831622008738,0.8739681722221005,619.3181858321174,135.10051695952734)" fill="#ff5c58"></use><use xlink:href="#bbburst-shape-6" width="13.098335757111522" opacity="0.7721953568542367" transform="matrix(0.7373085427097077,-0.6755561507730405,0.6755561507730405,0.7373085427097077,31.20046907820563,68.02860781651685)" fill="#ffa6d5" filter="url(#bbburst-blur-1)"></use><use xlink:href="#bbburst-shape-8" width="34.513553875097195" opacity="0.09833375052519211" transform="matrix(1.7023341025026744,-0.40565823479428387,0.40565823479428387,1.7023341025026744,-124.06835310220343,-41.28678885282511)" fill="none" stroke="#00a19d" filter="url(#bbburst-blur-4)"></use><use xlink:href="#bbburst-shape-6" width="26.721311083914816" opacity="0.07158641415228617" transform="matrix(1.3671364960514307,1.0924457886614862,-1.0924457886614862,1.3671364960514307,1179.679016116096,48.90249260266603)" fill="#ffa6d5" filter="url(#bbburst-blur-4)"></use><use xlink:href="#bbburst-shape-6" width="34.00502410684678" opacity="0.04091384113527019" transform="matrix(1.6326579866281372,0.6300221414358048,-0.6300221414358048,1.6326579866281372,265.2927684213067,-503.3972307257841)" fill="#ffa6d5" filter="url(#bbburst-blur-4)"></use><use xlink:href="#bbburst-shape-4" width="11.21416380091008" opacity="0.7677336460284349" transform="matrix(0.8440251964874974,-0.5363035219856768,0.5363035219856768,0.8440251964874974,120.06633151972906,150.5038718518561)" fill="#ffbd9b" filter="url(#bbburst-blur-1)"></use><use xlink:href="#bbburst-shape-4" width="10.209266811954663" opacity="0.8631970786134769" transform="matrix(0.9998879602647566,0.01496886493975316,-0.01496886493975316,0.9998879602647566,415.9455774411694,59.667896784823995)" fill="#2c2891"></use><use xlink:href="#bbburst-shape-6" width="16.677133447971347" opacity="0.5630668397043799" transform="matrix(0.8559099298432934,0.5171249288089373,-0.5171249288089373,0.8559099298432934,606.078559863472,-143.19273434868649)" fill="#2c2891" filter="url(#bbburst-blur-1)"></use><use xlink:href="#bbburst-shape-10" width="25.683755709947217" opacity="0.4477838690282123" transform="matrix(0.8149032490180979,0.5795970106373463,-0.5795970106373463,0.8149032490180979,839.7489913741479,-51.992816317970494)" fill="none" stroke="#ffa6d5" filter="url(#bbburst-blur-2)"></use><use xlink:href="#bbburst-shape-6" width="22.295049994443552" opacity="0.5067051196953081" transform="matrix(0.7264053310680156,-0.6872665385394277,0.6872665385394277,0.7264053310680156,-85.16404220001746,208.79261731179014)" fill="#00a19d" filter="url(#bbburst-blur-2)"></use></svg>