<?xml version="1.0" encoding="utf-8"?>
<!-- Generator: Adobe Illustrator 23.0.1, SVG Export Plug-In . SVG Version: 6.00 Build 0)  -->
<svg version="1.1" id="Layer_1" xmlns="http://www.w3.org/2000/svg" xmlns:xlink="http://www.w3.org/1999/xlink" x="0px" y="0px"
	 viewBox="0 0 1000 1000" style="enable-background:new 0 0 1000 1000;" xml:space="preserve">
<style type="text/css">
	.st0{fill:none;}
	.st1{fill:#0E382A;}
	.st2{fill:#C84851;}
	.st3{fill:#5AB6A9;}
	.st4{fill:#F5E018;}
	.st5{fill:#D16C69;}
	.st6{fill:#00A989;}
	.st7{fill:#844680;}
	.st8{fill:#ADC93C;}
	.st9{fill:#CA574A;}
	.st10{fill:#F3E161;}
	.st11{fill:#434497;}
	.st12{fill:#8D89BE;}
	.st13{fill:#7976B4;}
	.st14{fill:#F2B02B;}
	.st15{fill:#CF5750;}
	.st16{fill:#916994;}
	.st17{fill:#7B64A5;}
	.st18{fill:#9CC8E9;}
	.st19{fill:#C0272F;}
	.st20{fill:#7EC1E2;}
	.st21{fill:#454599;}
	.st22{fill:#F4B223;}
	.st23{fill:#59B599;}
	.st24{fill:#60458A;}
	.st25{fill:#696B6E;}
</style>
<g>
	<path class="st0" d="M414.6,340.8c0,0-3.5,0.5-5.3-4.1c-2.5-6.4,1.1-10.8,1.1-10.8s-5.2,2.7-5.9,10.3c-0.6,6.8,4.5,14.4,13.6,12.4
		c8.7-2,7.7-10,4.9-12.8C419.9,332.5,413.4,335.2,414.6,340.8z"/>
	<path class="st0" d="M401.6,406.8c-9.6,1.7-11.4,11.2-8,17.6c3.8,7.1,10,7.6,10,7.6s-5.3-2.8-5.5-10c-0.2-5.2,3.4-6.2,3.4-6.2
		c1.1,5.9,8.5,5.9,10.3,1.4C413.3,413.2,410.9,405.1,401.6,406.8z"/>
	<path class="st0" d="M437.2,368.8c0,0,3.9,4.9,1.2,11.8c-2,5-5.8,4.5-5.8,4.5c1.4-6.1-5.7-9-9.2-5.5c-3,3-4.1,11.7,5.4,13.9
		c9.8,2.3,15.4-6,14.8-13.4C442.9,371.7,437.2,368.8,437.2,368.8z"/>
	<path class="st0" d="M354.1,449.8c9.8,4.7,14.9-3.6,14.4-8.3c-0.5-5.6-8.7-7.9-11.8-1.7c0,0-3.7-2.2-1.9-7.9
		c2.5-7.9,9.2-9.4,9.2-9.4s-7-1.4-13.4,5.3C344.9,433.7,344,444.9,354.1,449.8z"/>
	<path class="st0" d="M413.3,475c-4.6,2.7-3.3,10.8,3.4,11c0,0-0.4,4.1-6.2,4.8c-7.9,1-12-4.3-12-4.3s1.6,6.7,10.1,9.6
		c7.6,2.6,17.7-1.1,17.8-11.9C426.6,473.8,417.3,472.7,413.3,475z"/>
	<path class="st0" d="M497.6,335.7c9,2.9,14.5-1.8,14.5-1.8s-6.7,1.9-12.8-3.9c-4.4-4.2-2.2-8-2.2-8c5.8,4.1,12-2,9.8-7.2
		c-1.9-4.5-10.4-9.4-16.9-0.4C483.4,323.7,489.6,333.1,497.6,335.7z"/>
	<path class="st0" d="M545.6,283.2c-7,3.7-11.1,13.5-3.4,21c7.5,7.2,14.6,1.2,15.6-3.2c1.1-5.2-5.6-9.7-10.2-5c0,0-2.7-3.1,0.7-7.8
		c4.6-6.4,11.2-5.8,11.2-5.8S553.4,279.1,545.6,283.2z"/>
	<path class="st0" d="M522.6,263.5c3.5,5,0.6,8.3,0.6,8.3c-4.9-5.1-12.2-0.4-11,5.2c1,4.8,8.5,11.3,16.6,3.7
		c8.4-7.9,4.1-18.5-3.3-22.5c-8.4-4.6-14.8-1.1-14.8-1.1S517.7,256.6,522.6,263.5z"/>
	<path class="st0" d="M460.4,326.1c-9.9,4.9-6.5,14.2-2.4,16.8c4.8,3,11.7-2.1,8.7-8.4c0,0,4.1-1.6,7.6,3.5c4.8,7,1.8,13.3,1.8,13.3
		s5.5-4.7,4.2-14.1C479,328.7,470.7,321,460.4,326.1z"/>
	<path class="st0" d="M442.8,517c0,0-4.9-1.4-6.4-7.3c-1.1-4.3,1.8-5.7,1.8-5.7c1.9,4.7,8.1,3.4,8.7-0.7c0.5-3.5-2.8-9.8-10.2-6.8
		c-7.7,3.1-7.5,11.3-3.5,16C437.6,517.7,442.8,517,442.8,517z"/>
	<path class="st0" d="M484.8,369.6c3.8,2.6,2.6,5.6,2.6,5.6c-4.7-2.3-8.5,2.9-6.3,6.4c2,3.1,8.9,5.6,12.5-1.8
		c3.8-7.7-2-13.8-8.2-14.7c-7-1-10.5,3.1-10.5,3.1S479.6,366.1,484.8,369.6z"/>
	<path class="st0" d="M609.9,448.5c-7.6-8.2-15.6-2.2-16.9,2.6c-1.5,5.5,5.4,10.8,10.7,6c0,0,2.7,3.5-1.1,8.3
		c-5.3,6.6-12.4,5.5-12.4,5.5s6.1,4,14.8,0C612.7,467.2,617.8,456.9,609.9,448.5z"/>
	<path class="st0" d="M631.5,288.5c5.5,3.5,13.6-2.4,10.1-9.7c0,0,4.7-1.8,8.7,4c5.5,8,2,15.4,2,15.4s6.4-5.4,4.8-16.3
		c-1.4-9.6-11-18.6-22.9-12.8C622.8,274.7,626.8,285.5,631.5,288.5z"/>
	<path class="st0" d="M606.8,275.4c13.6,2.5,20.7-9.1,19.4-19.2c-1.5-11.4-9.4-15.1-9.4-15.1s5.6,6.4,2.3,16c-2.4,7-7.6,6.5-7.6,6.5
		c1.5-8.3-8.3-12-12.8-6.9C594.7,261.1,593.7,273,606.8,275.4z"/>
	<path class="st0" d="M584.2,225.9c9.6,1.3,14.2-7.2,13-14.2c-1.4-7.9-7.2-10.2-7.2-10.2s4.2,4.3,2.2,11.2c-1.4,5-5.1,4.8-5.1,4.8
		c0.8-5.9-6.2-8.1-9.3-4.4C575.2,216.3,575,224.7,584.2,225.9z"/>
	<path class="st0" d="M503.4,239.2c12.4-2.9,14.1-15.5,9.2-23.5c-5.5-9.1-13.6-9.2-13.6-9.2s7.1,3.3,7.9,12.7c0.6,6.8-4,8.3-4,8.3
		c-1.9-7.6-11.5-7-13.4-1C487.8,231.6,491.5,242,503.4,239.2z"/>
	<path class="st0" d="M556,410.8c-7.9,1.8-9,9.8-5.9,15c3.5,5.8,8.6,5.9,8.6,5.9s-4.5-2.1-5-8.1c-0.4-4.3,2.5-5.3,2.5-5.3
		c1.2,4.8,7.3,4.5,8.6,0.7C566,415.7,563.6,409,556,410.8z"/>
	<path class="st0" d="M663,328c-4,1.5-8.5,8.9-0.8,14.8c8,6.2,16.4,0.9,18.9-6c2.8-7.8-1.1-12.8-1.1-12.8s1.5,6-3.8,11.1
		c-3.9,3.7-7.1,1.7-7.1,1.7C672.8,331.8,667.7,326.2,663,328z"/>
	<path class="st0" d="M578.1,484c-7.5,0.6-9.6,7.7-7.4,12.8c2.4,5.7,7.1,6.6,7.1,6.6s-3.9-2.5-3.5-8.1c0.3-4,3.1-4.5,3.1-4.5
		c0.4,4.6,6.1,5.1,7.7,1.8C586.5,489.8,585.3,483.4,578.1,484z"/>
	<path class="st0" d="M555.2,401.3c0,0-4.6-0.9-6.4-6.3c-1.3-3.9,1.1-5.5,1.1-5.5c2.2,4.2,7.8,2.5,8.1-1.2c0.3-3.2-3.3-8.9-10-5.5
		c-6.9,3.4-6.1,11-2.1,15.1C550.5,402.3,555.2,401.3,555.2,401.3z"/>
	<path class="st0" d="M669,431.5c-1.9-10.2-9.2-13.1-9.2-13.1s5.3,5.5,2.8,14.3c-1.8,6.4-6.6,6.2-6.6,6.2c1-7.6-8-10.4-11.9-5.7
		c-3.3,4.1-3.6,14.9,8.2,16.4C664.7,451.4,670.6,440.5,669,431.5z"/>
	<path class="st0" d="M630.1,484.4c7,0,9.8-4.5,9.8-4.5s-4.3,2.8-9.8,0.1c-4-2-3.3-5.1-3.3-5.1c4.9,1.5,7.9-4.1,5.2-7.2
		c-2.3-2.7-9.4-4.2-11.9,3.5C617.6,479.3,624,484.4,630.1,484.4z"/>
	<path class="st0" d="M528.1,207.7c9.4,1.1,11.2-7.1,9.4-10.9c-2-4.4-9.4-3.9-10.1,2c0,0-3.7-0.8-3.8-6c-0.2-7.2,4.9-10.3,4.9-10.3
		s-6.1,0.8-9.5,8.2C516,197.3,518.4,206.7,528.1,207.7z"/>
	<path class="st0" d="M504.2,640.5c-3,3-2.8,8.8,0.5,11.9c0,0-2.5-3.6-0.2-6.7c1.5-2,3.3-1.5,3.3-1.5s-1.3,1.8,0.2,4.3
		c1.5,2.6,4.7,3,7.3,1c2.6-2,3.2-6.2,0.1-9.4C512.5,637,507.5,637.1,504.2,640.5z M513.6,648.5c-3.1,1.5-4.8-1.2-4.6-2.7
		c0.2-1.7,2.8-2.5,3.8-0.5c0,0,1.2-0.7,0.6-2.5c-0.8-2.6-3-3-3-3s2.2-0.4,4.3,1.8C516.6,643.4,516.9,646.9,513.6,648.5z"/>
	<path class="st0" d="M482.9,649.1L482.9,649.1c0,0-0.1-0.1-0.1-0.1C482.9,649,482.9,649.1,482.9,649.1z"/>
	<path class="st0" d="M481.3,468.7c0,0-4.4-6.8,0-15.4c3.2-6.3,8.1-5.1,8.1-5.1c-2.5,7.7,6.3,12.4,11.2,8.3
		c4.3-3.6,6.8-14.7-5.2-18.8c-12.5-4.2-20.8,5.8-20.9,15.5C474.3,464.1,481.3,468.7,481.3,468.7z"/>
	<path class="st0" d="M505.1,608.6c0,0,7.3-0.5,9.8,5.3c1.7,3.8-0.6,6-0.6,6s-1.6-3.4-6.4-3.3c-4.9,0.1-8.1,4.3-7.5,9.6
		c0.7,5.3,6.3,9.6,13.3,7.9c7-1.7,11-8.9,8.9-16.4C520.8,611,512.4,606.6,505.1,608.6z M512.4,632.1c-4.2,1-9.6-1.5-9.1-7.4
		c0.4-5.7,5.6-5.9,7.7-4.4c2.4,1.7,1.2,6.1-2.4,5.8c0,0,0,2.3,3.1,3c4.3,1,6.8-1.7,6.8-1.7S517.2,631,512.4,632.1z"/>
	<path class="st0" d="M529.1,590.4c-4.7-2.4-9.5-0.3-10.9,3.4s0.2,7.2,3.7,8.2c3.5,0.9,5.2-1.2,5.2-1.2s1.2,2-0.6,4.4
		c-2.8,3.8-7.9,2.2-7.9,2.2c4.8,2.7,11.6,1,14.1-3.6C535.5,598.7,533.8,592.8,529.1,590.4z M526.8,593.7c-2.3,0-2.8,1.6-2.8,1.6
		c2.6,0.4,2.7,3.8,0.7,4.6c-1.7,0.7-5.4-0.2-4.7-4.4c0.7-4.4,5-5.3,7.8-3.8c3.3,1.7,3.5,4.5,3.5,4.5S529.9,593.7,526.8,593.7z"/>
	<path class="st0" d="M535.8,463.8c5.5,3.5,13.6-2.4,10.1-9.8c0,0,4.7-1.8,8.7,4c5.5,8,2,15.4,2,15.4s6.4-5.4,4.8-16.3
		c-1.4-9.6-11-18.6-22.9-12.7C527,450,531,460.8,535.8,463.8z"/>
	<path class="st0" d="M666.9,397.9c-6.2-2.3-5.7-7-5.7-7c7.6,1.5,11-7.3,6.5-11.5c-3.8-3.6-14.6-4.7-17.1,7
		c-2.5,12.2,7.8,18.9,17,17.9c10.3-1.2,13.8-8.2,13.8-8.2S675.6,401,666.9,397.9z"/>
	<path class="st0" d="M537.8,471.2c0,0-7.1-0.5-11.2-8.7c-1.9,4.9-5,9.3-8.8,12.7c2.3,1.2,4.9,2.1,8,2.2
		C535,477.6,537.8,471.2,537.8,471.2z"/>
	<path class="st0" d="M506.2,433.3c0,0-7.4-3.2-8.5-12.8c-0.8-7,3.9-8.7,3.9-8.7c2.1,7.8,12,7,13.9,0.8c1.6-5.3-2.4-16-14.7-12.7
		c-12.7,3.3-14.1,16.3-8.8,24.5C497.8,433.3,506.2,433.3,506.2,433.3z"/>
	<path class="st0" d="M513.9,478.2c-4.3,2.8-9.2,4.6-14.3,4.7c-12.2,0.3-22.3-5.8-27.2-15.1c-0.2,0.7-0.4,1.3-0.6,2
		c1.8,10.3,7.4,30.8,9.4,37c1.7,5.3,6.4,16.9,9.4,23.4c1.7,3.8,5.1-0.8,6.5-2.2c0.1-0.1,0.2-0.2,0.3-0.2c1.5-1.6,1.7-2.4,2.5-4.3
		c0.5-1.4,0.6-3.9,0.5-5.9c-0.2-1.5,0.3-4.4-0.3-6.6c-1.2-4.1-1.2-5-2.1-6.1c-0.8-1.1-0.7-2.3-0.2-3.2c0.5-0.9,1.1-2.4,1.1-3.1
		c0.1-0.7-0.2-0.7-0.5-1.6c-0.2-0.9,1.3-1.4,1.3-1.4c-0.4-0.3-1.4-1.8,0.4-2.6c1.7-0.8,4.7-1,4.7-1s6-7.5,15.1-0.5
		c0,0,1.6,0.2,2.4,0.2c0.7,0,2.2,0.7,1.4,2.1c0,0,1.5,0.6,0.5,2c0,0,1.8,0.9,2.2,2.8c0.2,1.6-1,3.7,0.3,7c0.6,1.6,0.9,3.6,0.5,4.9
		c-0.3,1.3,0.8,3.6,0.8,5.3c0.1,1.7,0.3,4.3,0.5,6c0.2,1.6,0.2,3.4,2.4,7.1c1.2,1.9,2.7,3,4.1,4.7c2.2,3.1,4.1-2.5,5.2-5.4
		c4.7-13.8,8.4-23.7,9.8-33.2c0.4-2.8,0.8-5.7,1.2-8.1c-3.3,1.6-6.9,2.7-10.8,3.1C530.4,491.2,520.4,486.2,513.9,478.2z"/>
	<path class="st0" d="M370.8,720c0-0.1,0-0.1,0-0.2l0,4.6V720z"/>
	<path class="st0" d="M399.1,299c8.9-1.7,8.9-12.9,2.1-15.5c-5.9-2.3-18.2,1.2-15.7,15.3c2.6,14.6,17,17.3,26.7,12.1
		c10.8-5.8,11.5-15.2,11.5-15.2s-4.3,8-15.2,8.4C400.6,304.4,399.1,299,399.1,299z"/>
	<path class="st0" d="M639.8,344.4c3.9,3.4,2.2,6.6,2.2,6.6c-5-3.2-9.9,2.2-7.9,6.5c1.8,3.7,9.2,7.4,14.3-0.4
		c5.2-8.1-0.5-15.8-7.3-17.6c-7.7-2-12.2,2.2-12.2,2.2S634.5,339.7,639.8,344.4z"/>
	<path class="st0" d="M600.6,306.9c-9.5-3.7-16.4,3.7-16.8,11.3c-0.5,8.5,4.8,12.3,4.8,12.3s-3.2-5.4,0.6-12
		c2.7-4.8,6.4-3.7,6.4-3.7c-2.2,5.9,4.4,9.9,8.4,6.9C607.5,319.1,609.8,310.5,600.6,306.9z"/>
	<path class="st0" d="M574.4,363.7c2.8,7.6,8.9,8.9,8.9,8.9s-4.9-3.5-4.2-10.7c0.5-5.2,4.2-5.7,4.2-5.7c0.3,6,7.7,7,10,2.8
		c2-3.6,0.8-12-8.6-11.6C575,347.7,571.9,356.9,574.4,363.7z"/>
	<path class="st0" d="M554.6,319.4c-7.6-2.6-12.7,3.5-12.7,9.5c-0.1,6.6,4.2,9.4,4.2,9.4s-2.7-4.1,0-9.4c1.9-3.8,4.9-3.1,4.9-3.1
		c-1.5,4.7,3.8,7.6,6.9,5.1C560.4,328.7,561.9,321.9,554.6,319.4z"/>
	<path class="st0" d="M543.7,220.9c-9.8-3.3-16.4,4.6-16.5,12.3c-0.1,8.6,5.4,12.2,5.4,12.2s-3.5-5.3,0-12.2c2.5-5,6.3-4.1,6.3-4.1
		c-2,6.1,4.9,9.8,8.9,6.6C551.2,232.9,553.2,224.1,543.7,220.9z"/>
	<path class="st0" d="M378.1,352.6c13.2-4,14.2-17.7,8.4-26c-6.5-9.4-15.3-9-15.3-9s7.9,3.1,9.4,13.2c1.1,7.2-3.8,9.3-3.8,9.3
		c-2.5-8.1-12.9-6.9-14.6-0.3C360.8,345.4,365.4,356.5,378.1,352.6z"/>
	<path class="st0" d="M376.2,468.2c-5.8-7.9-15.2-5.2-19.3,0.6c-4.7,6.6-2.4,12.3-2.4,12.3s0.2-6,6.5-9.4c4.6-2.5,7.1,0.3,7.1,0.3
		c-4.8,3.6-1.4,10.2,3.3,9.8C375.6,481.5,381.8,475.8,376.2,468.2z"/>
	<path class="st0" d="M323.8,355.5c-8.8,0.7-11.3,9.1-8.7,15.1c2.8,6.7,8.3,7.7,8.3,7.7s-4.5-3-4.1-9.5c0.3-4.7,3.6-5.3,3.6-5.3
		c0.5,5.4,7.2,6,9.1,2.1C333.7,362.3,332.3,354.8,323.8,355.5z"/>
	<path class="st0" d="M450.9,240.7c-10.4-3.5-17.2,4.8-17.3,12.9c-0.1,9.1,5.7,12.8,5.7,12.8s-3.7-5.6-0.1-12.8
		c2.6-5.2,6.7-4.2,6.7-4.2c-2.1,6.4,5.2,10.4,9.3,6.9C458.8,253.3,460.9,244.1,450.9,240.7z"/>
	<path class="st0" d="M520.7,373.6c0,0-4.9,0.2-6.7-6.4c-2.6-9.1,2.9-14.7,2.9-14.7s-7.5,3-9.5,13.5c-1.8,9.2,4.2,20.4,17,18.8
		c12.2-1.6,12-12.7,8.6-16.9C529,362.9,519.8,365.8,520.7,373.6z"/>
	<path class="st0" d="M465.7,455c0,0,1,8.1-6.9,14c-5.7,4.3-9.6,1-9.6,1c5.7-5.8-0.1-14-6.5-12.5c-5.4,1.4-12.7,10.3-3.6,19.3
		c9.4,9.4,21.4,4,25.9-4.8C470,462.3,465.7,455,465.7,455z"/>
	<path class="st0" d="M369.8,286.3c4.7-11-4.7-16.2-9.9-15.5c-6.1,0.9-8.2,10-1.2,13.1c0,0-2.3,4.2-8.6,2.4
		c-8.8-2.4-10.8-9.7-10.8-9.7s-1.2,7.8,6.5,14.6C352.7,297.2,365,297.7,369.8,286.3z"/>
	<path class="st0" d="M389.4,801.1c-1,1-1.5,2.2-1.5,3.7c0,3.4,1.3,5.2,3.7,5.2c1.2,0,2.3-0.2,3.4-0.5v-10c-0.8,0-1.5,0.1-2.1,0.1
		C391.6,799.6,390.4,800.1,389.4,801.1z"/>
	<path class="st0" d="M592.5,805.6c0,3.3,1.1,5,3.4,5c2.8,0,4.2-1.8,4.2-5.3c0-0.9-0.1-2-0.3-3.3l-0.3-2.3c-0.6-0.2-1.3-0.3-2.1-0.3
		C594.2,799.4,592.5,801.4,592.5,805.6z"/>
	<path class="st0" d="M710.6,704.2c-2.1-0.6-3.8-0.8-5.3-0.8c-4.4,0-7.6,1.6-9.9,5c-1.9,2.9-3,7-3,12.3c0,4.6,1,8.5,2.5,11.1
		c1.6,2.6,3.7,3.9,6.4,4c7.5-0.1,10.8-4.4,11-14.7c0-2.5-0.3-6-0.8-10.3L710.6,704.2z"/>
	<path class="st0" d="M332.3,323.5c5.9-6.4,0.7-12.3-3.1-13c-4.4-0.9-8,4.9-4,8.7c0,0-2.6,2.3-6.5-0.4c-5.5-3.8-5.1-9.3-5.1-9.3
		s-2.7,5.1,1,11.6C317.8,326.8,326.2,330.2,332.3,323.5z"/>
	<path class="st0" d="M569.2,805.8c0,3.1,1.2,4.7,3.7,4.7h3.3v-11.4h-2C571.1,799.2,569.2,801.7,569.2,805.8z"/>
	<path class="st0" d="M393.9,224.7c3.7-4.1,7.2-2.3,7.2-2.3c-3.5,5.4,2.2,10.8,6.9,8.6c4-1.9,8.1-9.8-0.2-15.4
		c-8.7-5.8-17.1,0.2-19.1,7.6c-2.3,8.3,2.1,13.2,2.1,13.2S388.8,230.4,393.9,224.7z"/>
	<path class="st0" d="M459.4,213.6c8.3-4.6,7-13.8,1.9-18.6c-5.7-5.3-11.5-3.8-11.5-3.8s5.7,0.9,8.1,7.4c1.8,4.7-1.2,6.7-1.2,6.7
		c-2.8-5-9.6-2.7-9.8,1.9C446.8,211.3,451.5,218,459.4,213.6z"/>
	<path class="st0" d="M482.6,801.1c-1,1-1.5,2.2-1.5,3.7c0,3.4,1.3,5.2,3.7,5.2c1.2,0,2.3-0.2,3.4-0.5v-10c-0.8,0-1.5,0.1-2.1,0.1
		C484.8,799.6,483.6,800.1,482.6,801.1z"/>
	<path class="st0" d="M320.4,429.1c8,3,13.3-1,13.3-1s-6.2,1.5-11.5-4.1c-3.8-4-1.7-7.3-1.7-7.3c5.1,3.9,10.9-1.3,9.1-6.1
		c-1.5-4.2-9.1-8.9-15.3-1.1C308,417.7,313.2,426.5,320.4,429.1z"/>
	<path class="st1" d="M415.7,736.9c-1.9,1.5-4.5,2.3-8,2.3c-2.9,0-5.6-0.6-8.1-1.7c-2.5-1.1-4.3-2.6-5.5-4.2
		c-1.2-1.7-2.1-4.3-2.9-7.8l-0.1-0.4h-2.6v18.2h2.6l0.1-0.4c0.2-1.1,0.5-1.8,0.8-2c0.3-0.3,0.7-0.4,1.3-0.4c0.6,0,2.3,0.4,5.1,1.2
		c2.8,0.8,4.6,1.2,5.5,1.4c1.5,0.2,3.1,0.3,4.8,0.3c5.4,0,9.8-1.4,13.3-4.2c3.4-2.8,5.2-6.3,5.2-10.2c0-2.1-0.6-4.1-1.7-6
		c-1.1-1.9-2.6-3.5-4.7-4.9c-2-1.4-5.7-3.3-11-5.8c-6.5-3.1-10.7-5.5-12.3-7.2c-1.2-1.2-1.7-2.4-1.7-3.8c0-1.8,0.8-3.4,2.7-4.9
		c1.8-1.5,4.1-2.2,6.9-2.2c2.5,0,4.9,0.5,7.3,1.6c2.3,1.1,4.1,2.6,5.4,4.5c1.2,1.9,2.2,4.4,2.6,7.7l0.1,0.5h2.6v-18.3h-2.5l-0.1,0.4
		c-0.2,1.1-0.6,1.8-0.9,2c-0.3,0.3-0.8,0.5-1.5,0.5c-0.5,0-1.6-0.3-3.1-0.9c-3.5-1.3-6.8-2-9.9-2c-4.9,0-9.1,1.4-12.4,4
		c-3.3,2.7-4.9,5.9-4.9,9.7c0,2.1,0.5,4.1,1.7,5.9c1.1,1.8,2.7,3.4,4.8,4.9c2.1,1.5,5.6,3.4,10.5,5.8c4.9,2.4,7.9,3.9,8.9,4.7
		c1.6,1,2.7,2.2,3.4,3.3c0.7,1.2,1.1,2.3,1.1,3.4C418.6,733.6,417.7,735.3,415.7,736.9z"/>
	<path class="st1" d="M463.9,740.2v1.4h23.7v-1.4c-2.1-0.1-4.2-0.7-6.4-1.8c-2.1-1.1-4.7-3.1-7.7-6.1l-19.2-18.9
		c5.6-1.5,11.6-4,16.3-8.4c3.3-3,5.7-7.1,5.7-10.8c0-5.9-4-10.6-10.8-10.6c-5,0-8.7,2.9-8.7,7c0,2.9,1.8,3.8,4.2,3.8
		c2.3,0,4.2-1.2,4.2-3.3c0-0.9-0.7-2-1.8-2.9c0.6-1,1.4-1.1,2.3-1.1c2.5,0,3.7,2.8,3.7,5.8c0,2.9-1.7,7.5-4.5,10
		c-2.3,2.1-8.7,6.7-20.1,7.6V677c0-2.6,0.1-3.4,5.1-5l-14.9-2.8l0.1,64.6c0,2.6,0,3.4-4.8,5l14.6,2.8l0-26.7c0.4,0,0.8-0.1,1.2-0.1
		l19.2,18.9c1.3,1.3,2.1,2.1,2.3,2.6c0.2,0.5,0.4,1,0.4,1.6c0,0.6-0.3,1.1-1,1.6C466.3,740,465.3,740.2,463.9,740.2z"/>
	<path class="st1" d="M318.5,706l0.1,35.7l14.9-2.8c-4.9-1.7-5.1-2.2-5.1-4.5V713c0-7.2,4.4-17.8,12.2-17.8c6.3,0,8.9,4.2,8.9,10.8
		v35.6l14.6-2.8c-4.9-1.6-4.9-2.4-4.9-5v-25c0,0,0.3-4.6-0.7-7.8c-1.5-5.2-7.9-9.7-15.6-9.7c-7.3,0-13,4.2-15.4,9.6
		c-1.5-5.4-8.6-9.6-15.6-9.6c-6.8,0-10.9,2.1-14.4,6.2v-6.3l-17.9,0.8v3.8c6.4,0,8.1,0.9,8.1,3.6l0.1,42.1l14.8-2.7
		c-5.1-1.7-5.1-2.1-5.1-4.6l0.1-24.2c1-6.8,5.1-14.9,11.9-14.9C315.9,695.2,318.5,699.4,318.5,706z"/>
	<path class="st1" d="M367.8,717.6c1.9,0,2.9,0.5,3,2.1l0.1,21.8l10.9-1.8c-3.3-1.1-3.3-1.4-3.3-3l0.1-22.2l-10.8,0.5V717.6z"/>
	<path class="st1" d="M557.3,709.6l-4.5-4l-4.4,0.5h-8.4v-1.3c0.2-6.7,2.3-9.1,7.2-9.3c1.5,0,3,0.5,4.4,1.5l0.9,1.7l2.7-4.1
		l-0.7-0.8c-2.6-2.5-5.7-3.8-9.1-3.8c-3.7,0-6.6,1.2-8.6,3.6c-1.9,2.4-2.8,5.9-2.8,10.4v2.1h-5.6v5.5h31.4L557.3,709.6z"/>
	<path class="st1" d="M719.7,699.5c-3.7-1.3-7.8-2-12.2-2c-7,0-12.9,2.4-17.1,6.9c-4.2,4.6-6.3,10.7-6.3,18.1
		c0,5.2,1.1,9.6,3.2,13.2h-14.4c-5.5-0.1-7.6-2.5-7.8-9v-27.6l-9.8,2.5l1.7,13.1v11.7c-0.2,6.6-2.3,9-7.5,9.1c-2.9,0-6-1.6-9.2-5.1
		v-27.1l-8,2v21.1c-0.1,6.6-2.4,9-7.7,9.1c-2.4,0-5.3-1.4-8.4-4.5c0.1-0.6,0.1-1.3,0.1-2v-25.7l-8,2l-0.1,21.2
		c-0.2,6.7-2.4,9.1-7.9,9.3h-11.9c-5.4-0.1-7.7-2.6-7.8-9.2v-48.9l-9.8,2.4l1.7,13.1v33.3c-0.2,6.5-2.4,9-7.8,9.2h-40.1
		c-7.4,0-12.1-6.3-12.1-17.1c0-4.2,0.9-7.5,2.7-10.2l1.2-1.8h-6.8l-0.3,0.6c-2.1,3.8-3.1,8.4-3.1,13.5c0,6.6,1.7,12,4.7,15.9
		c3,3.9,7.5,6.1,12.8,6.1h43.3c3.9,0,7.1-1.2,9.4-3.5c2.4,2.3,5.6,3.5,9.6,3.5h16.7c4,0,7.3-1.3,9.8-3.8c0.7-0.7,1.3-1.5,1.8-2.4
		c3.5,4.1,7.8,6.3,12.7,6.3h0.2c5.2,0,9.2-2.3,11.4-6.7c3.4,4.4,7.8,6.7,13.1,6.7c3.7,0,6.9-1.2,9.2-3.5c2.4,2.4,5.7,3.5,9.6,3.5
		h28.4c6.6,0,11.8-1.4,15.3-4.4c3.6-3,5.3-7.5,5.3-13.3v-14.9l0.8-10.3L719.7,699.5L719.7,699.5z M701.4,735.7c-2.7,0-4.8-1.4-6.4-4
		c-1.6-2.6-2.5-6.5-2.5-11.1c0-5.4,1.1-9.4,3-12.3c2.2-3.3,5.4-4.9,9.9-5c1.5,0,3.3,0.3,5.3,0.8l0.9,6.5c0.6,4.3,0.8,7.8,0.8,10.3
		C712.2,731.4,708.8,735.6,701.4,735.7L701.4,735.7z"/>
	<circle class="st1" cx="373.7" cy="710.2" r="3.5"/>
	<path class="st1" d="M532.6,646.2c-2.7-1.3-8.6-0.1-7.9,6.6c0.7,6.9,7.3,8.7,12,6.6c5.3-2.3,5.9-6.6,5.9-6.6s-2.3,3.6-7.5,3.4
		c-3.7-0.2-4.2-2.8-4.2-2.8C535.3,652.9,535.6,647.7,532.6,646.2z"/>
	<path class="st1" d="M533.7,620.3c-0.2,1.5,1.4,4.2,4.4,3.1c-0.2-1.4-0.4-2.8-0.6-4.2C536.3,617.7,533.9,618.5,533.7,620.3z"/>
	<path class="st1" d="M536.8,613.7c-0.9-0.2-1.6-0.1-1.6-0.1s0.8,0.2,1.6,0.9C536.9,614.3,536.8,614,536.8,613.7z"/>
	<path class="st1" d="M501.2,591c2.5-0.8,5.7-5.2,1.2-9.1c-4.7-4.1-10.1-1.3-12,2.9c-2.1,4.7,0.1,8,0.1,8s-0.6-3.8,2.9-6.8
		c2.5-2.2,4.4-0.7,4.4-0.7C495.3,588.2,498.3,592,501.2,591z"/>
	<path class="st1" d="M492.3,616.5c1.8,1.3,6.5,1,6.7-4.1c0.3-5.3-4.6-7.4-8.4-6.4c-0.9,0.3-1.8,0.7-2.4,1.1
		c-0.1,0.6-0.1,1.1-0.2,1.8c0.9-0.3,2-0.4,3.3-0.1c2.8,0.5,2.9,2.6,2.9,2.6C491,611.2,490.1,615.1,492.3,616.5z"/>
	<path class="st1" d="M493.7,657.6c-1.2-2.5-4.5-1.5-4.7,0.6c-0.1,0.7,0.1,1.5,0.6,2.3c2.5,0,5.2-0.3,7.8-1.6c0.9-2,0.2-4.5-1.3-6.1
		c-2.5-2.7-5.4-2.1-5.4-2.1s2.7,0.6,3.7,3.8C495.2,656.7,493.7,657.6,493.7,657.6z"/>
	<path class="st1" d="M493.7,639.7c-1.3-2.7-4.7-1.7-5,0.7c-0.2,2,2,5.5,6.1,3.6c4.3-2.1,3.9-6.8,1.5-9.3c-2.7-2.9-5.7-2.3-5.7-2.3
		s2.9,0.7,3.9,4C495.3,638.8,493.7,639.7,493.7,639.7z"/>
	<path class="st1" d="M483.4,658c-0.3,0.4-0.5,0.8-0.7,1.2c1.1,0.4,2.6,0.8,4.5,1c-0.9-2.5,0.3-4.2,0.3-4.2S485.2,655.5,483.4,658z"
		/>
	<path class="st1" d="M545.8,658.8c-0.2-0.7-0.4-1.6-0.7-2.6c-1.4,2.3-3.6,4.3-6.3,5.5C544.3,661.4,545.8,658.8,545.8,658.8z"/>
	<path class="st1" d="M551.1,487c-0.4,2.5-0.8,5.3-1.2,8.1c-1.4,9.5-5.1,19.3-9.8,33.2c-1,2.9-2.9,8.5-5.2,5.4
		c-1.4-1.7-2.9-2.8-4.1-4.7c-2.3-3.6-2.3-5.5-2.4-7.1c-0.2-1.7-0.4-4.3-0.5-6c0-1.7-1.1-3.9-0.8-5.3c0.4-1.4,0.1-3.4-0.5-4.9
		c-1.3-3.3,0-5.5-0.3-7c-0.4-2-2.2-2.8-2.2-2.8c1-1.4-0.5-2-0.5-2c0.8-1.4-0.7-2-1.4-2.1c-0.8,0-2.4-0.2-2.4-0.2
		c-9.1-7-15.1,0.5-15.1,0.5s-3,0.1-4.7,1c-1.8,0.8-0.8,2.3-0.4,2.6c0,0-1.5,0.5-1.3,1.4c0.3,0.9,0.6,0.9,0.5,1.6
		c-0.1,0.7-0.7,2.2-1.1,3.1c-0.5,0.9-0.6,2.2,0.2,3.2c0.8,1.1,0.9,2,2.1,6.1c0.6,2.2,0.1,5.1,0.3,6.6c0.2,2.1,0,4.6-0.5,5.9
		c-0.7,1.9-1,2.7-2.5,4.3c-0.1,0.1-0.2,0.1-0.3,0.2c-1.4,1.4-4.8,6-6.5,2.2c-3-6.5-7.7-18.2-9.4-23.4c-2-6.2-7.6-26.7-9.4-37
		c-0.4,1-0.8,2-1.3,3c-1.8,3.5-4,6.4-6.6,8.6c1.3,5.9,4,18,6,29.4c3.1,18.1,10.7,33.2,14.4,44.4c1.3,3.7,3.3,15.3,4.1,28.2
		c3.3-5.9,9.8-7.5,14.4-4.9c4.9,2.8,6.3,8.1,3.3,12.3c-3,4.1-6.8,3.3-6.8,3.3s0.5,3.3,4.7,4.3c6.5,1.6,10.6-4.8,10.6-4.8
		c-2.8,7.4-11.8,11.6-18.8,8.8c-3.1-1.2-5.6-3.3-7.1-5.8c0,1.1-0.1,2.1-0.1,3.1c0,1.4-0.1,2.9-0.3,4.7c0.3-0.1,0.7-0.2,1-0.3
		c6.2-1.7,11.4,2,12.1,6.7c0.7,4.7-2,8.5-6.4,8.8c-4.3,0.2-5.9-2.7-5.9-2.7s-1.9,2-0.3,5.4c2.4,5.2,8.9,4.5,8.9,4.5
		c-4,1.2-8.4,0.3-11.6-2c-0.3,2-0.6,4.1-0.8,6.1c4-2.1,8.8-1.4,12,1.9c3.9,4.1,3.2,9.8-0.2,12.4c-3.4,2.6-7.6,2-9.6-1.3
		c-2.1-3.3-0.3-5.8-0.3-5.8s-1.4-0.4-2.9,0.5c-0.5,3.3-1,6.7-1.5,10.1c0,0,0,0,0,0c0.1,0.1,0.1,0.1,0.2,0.2
		c-0.1-0.1-0.1-0.1-0.2-0.2c-0.2,1.2-0.4,2.4-0.5,3.6c0.2-0.3,0.5-0.7,0.8-1c4.1-4.2,10.3-4.3,14.1-0.3c1.9,2,2.6,4.3,2.5,6.5
		c0.1-0.1,0.2-0.1,0.3-0.2c7.9-5.9,17.5-2,22.8,0.3c0.1,0,0.1,0.1,0.2,0.1c-0.5-0.8-0.9-1.6-1.2-2.5c-1.8-6,1-11.5,6.6-12.6
		c5.6-1.2,8.2,2.4,8.2,2.4s2.1-3-0.6-7c-4.1-6.2-12.4-4.1-12.4-4.1c5.3-2.6,11.9-1.9,16.7,1.1c-0.6-3.1-1.2-6.4-1.8-9.7
		c-2.2,0.6-4.5-0.1-5.7-2.2c-1.7-2.7-0.3-4.7-0.3-4.7s-2-0.5-3.6,1.7c-2.5,3.3,0.2,7.3,0.2,7.3c-3.6-3.4-3.8-9.6-0.5-13
		c2.3-2.4,5.4-3.2,8.2-2.6c-0.4-3.9-0.5-7.7-0.4-11.1c0.7-22-1-29.9,5.2-40.6c6.8-11.7,9.4-19.5,12.4-30.1
		c2.9-10.6,3.9-15.9,5.2-28.3c0.8-7.4,1.3-16.1,1.6-22C558.1,482.7,554.8,485.2,551.1,487L551.1,487z M482.9,649.1
		c0,0-0.1-0.1-0.1-0.1C482.9,649,482.9,649.1,482.9,649.1L482.9,649.1z M515.3,649.5c-2.6,1.9-5.7,1.5-7.3-1
		c-1.5-2.5-0.2-4.3-0.2-4.3s-1.8-0.5-3.3,1.5c-2.3,3.1,0.2,6.7,0.2,6.7c-3.3-3.2-3.5-8.9-0.5-11.9c3.3-3.4,8.3-3.5,11.3-0.3
		C518.5,643.3,517.9,647.6,515.3,649.5z M513.7,634.2c-7,1.7-12.6-2.6-13.3-7.9c-0.7-5.3,2.6-9.5,7.5-9.6c4.9-0.1,6.4,3.3,6.4,3.3
		s2.2-2.2,0.6-6c-2.6-5.9-9.8-5.3-9.8-5.3c7.3-2.1,15.7,2.4,17.5,9.2C524.7,625.3,520.8,632.5,513.7,634.2z M532.7,603.7
		c-2.5,4.6-9.3,6.3-14.1,3.6c0,0,5.1,1.6,7.9-2.2c1.8-2.4,0.6-4.4,0.6-4.4s-1.7,2.2-5.2,1.2c-3.5-1-5.1-4.5-3.7-8.2
		c1.4-3.7,6.2-5.8,10.9-3.4C533.8,592.8,535.5,598.7,532.7,603.7z"/>
	<path class="st1" d="M511.7,629.1c-3.1-0.7-3.1-3-3.1-3c3.6,0.2,4.8-4.1,2.4-5.8c-2.1-1.5-7.2-1.4-7.7,4.4
		c-0.5,5.9,4.9,8.5,9.1,7.4c4.8-1.2,6-4.7,6-4.7S516,630.1,511.7,629.1z"/>
	<path class="st1" d="M510.5,639.8c0,0,2.2,0.5,3,3c0.6,1.8-0.6,2.5-0.6,2.5c-1-2-3.6-1.2-3.8,0.5c-0.2,1.5,1.5,4.2,4.6,2.7
		c3.2-1.5,3-5.1,1.1-7C512.7,639.3,510.5,639.8,510.5,639.8z"/>
	<path class="st1" d="M527.8,591.6c-2.9-1.4-7.2-0.5-7.8,3.8c-0.7,4.2,3,5.1,4.7,4.4c2-0.8,1.9-4.1-0.7-4.6c0,0,0.4-1.6,2.8-1.6
		c3.2,0,4.5,2.4,4.5,2.4S531,593.3,527.8,591.6z"/>
	<path class="st2" d="M570.2,267.2c0,0,0.6-16.9,14.7-21.3c9.1-2.8,13.7,2.8,13.7,2.8s-8.3,2.8-9.1,14.1
		c-0.9,11.3,7.9,19.8,20.3,19.6c3.8-0.1,7.5-1.3,10.7-3.3c0-6.6,3.9-12.5,10.5-15.7c0.6-3,0.8-6.2,0.3-9.7
		c-2.2-16.7-17.8-27.6-35.7-24.7C579.4,231.8,567.2,250,570.2,267.2z M611.4,263.7c0,0,5.3,0.5,7.6-6.5c3.3-9.6-2.3-16-2.3-16
		s7.9,3.7,9.4,15.1c1.3,10.1-5.8,21.7-19.4,19.2c-13-2.5-12.1-14.4-8.2-18.7C603.2,251.7,612.9,255.3,611.4,263.7z"/>
	<path class="st3" d="M555.2,232.1c1.8-8.3-3.8-15.6-13.1-16.7c-9.3-1.1-18.9,6.6-19,19.1c-0.1,12.7,10.3,22.4,24,22.2
		c12.3-0.3,23.4-12.6,23-25.7c0,0-2.2,12.5-13.2,14.3c-7.1,1.1-9.9-3.5-9.9-3.5S553.4,240.4,555.2,232.1z M547.8,235.7
		c-4,3.3-10.8-0.5-8.9-6.6c0,0-3.8-0.9-6.3,4.1c-3.5,6.8,0,12.2,0,12.2s-5.5-3.6-5.4-12.2c0.1-7.7,6.7-15.6,16.5-12.3
		C553.2,224.1,551.2,232.9,547.8,235.7z"/>
	<path class="st4" d="M492.1,265.4c-6.2,12.2,0,29.5,13.1,36c0,0-11.1-8.7-7-20.4c2.6-7.6,8.6-7.9,8.6-7.9s-2.2,6.9,5,13.1
		c7.2,6.1,17.2,4.5,23.3-4c5.9-8.5,3.4-22-8.7-28.7C514,246.8,498.9,251.9,492.1,265.4z M525.4,258.3c7.4,4.1,11.7,14.6,3.3,22.5
		c-8.1,7.6-15.7,1-16.6-3.7c-1.2-5.6,6.2-10.3,11-5.2c0,0,2.9-3.3-0.6-8.3c-4.9-6.9-11.9-6.4-11.9-6.4S517,253.7,525.4,258.3z"/>
	<path class="st5" d="M463.1,252.5c1.9-8.8-4-16.4-13.7-17.6c-9.8-1.2-20,7-20.1,20.1c-0.1,13.3,10.8,23.6,25.2,23.3
		c13-0.3,24.7-13.2,24.2-27.1c0,0-2.3,13.2-13.9,15.1c-7.4,1.2-10.4-3.7-10.4-3.7S461.1,261.2,463.1,252.5z M455.2,256.3
		c-4.1,3.4-11.4-0.5-9.3-6.9c0,0-4.1-0.9-6.7,4.2c-3.6,7.2,0.1,12.8,0.1,12.8s-5.8-3.8-5.7-12.8c0.1-8.1,7-16.4,17.3-12.9
		C460.9,244.1,458.8,253.3,455.2,256.3z"/>
	<path class="st6" d="M483.8,314.2c-4.2,9.4,0.8,22.1,14,26.2c13.2,4.2,26.9-3.7,30.9-18.1c3.7-13.1-5.7-28.7-19.7-32.5
		c0,0,12.4,6.3,10.8,18.5c-1,7.8-6.9,9.3-6.9,9.3s0.8-7.1-7.4-11.8C497.4,301.2,488,304.8,483.8,314.2z M506.9,314.8
		c2.2,5.2-4,11.2-9.8,7.2c0,0-2.2,3.8,2.2,8c6,5.8,12.8,3.9,12.8,3.9s-5.5,4.7-14.5,1.8c-8-2.6-14.3-12-7.6-21.3
		C496.5,305.5,505,310.4,506.9,314.8z"/>
	<path class="st7" d="M577.7,406.5c0,0,3.7,9.3-2.9,15c-4.3,3.7-8.1,1.7-8.1,1.7s3.8-3.5,1.6-9.7c-2.2-6.3-8.9-8.8-15.6-5.8
		c-6.7,3.1-10,12.3-4.8,20.6c5.1,8.4,16.1,10.7,25,4.8C581.1,427.9,583.4,415.1,577.7,406.5z M564.9,419c-1.3,3.8-7.4,4.1-8.6-0.7
		c0,0-2.9,0.9-2.5,5.3c0.5,6,5,8.1,5,8.1s-5.2-0.1-8.6-5.9c-3.1-5.1-2-13.1,5.9-15C563.6,409,566,415.7,564.9,419z"/>
	<path class="st8" d="M517.8,475.2c3.8-3.5,6.9-7.9,8.8-12.7c-0.3-0.6-0.6-1.2-0.9-1.9c-0.2-0.5-0.2-1-0.4-1.5
		c-2.5,4.1-6.6,8.4-13.3,9.5c-0.5,0.1-1,0.1-1.5,0.1C512.3,471,514.7,473.5,517.8,475.2z"/>
	<path class="st8" d="M472.4,467.9c4.9,9.3,15,15.4,27.2,15.1c5.1-0.1,10-1.9,14.3-4.7c-2.3-2.8-4.2-6.1-5.4-9.6
		c-6.3-0.4-9-4.7-9-4.7s8.2-1.5,10.5-12.1c0.9-4.1,0.4-7.9-1.2-11.2c-7.2-0.7-13.8-4.1-18.5-10c-8.8,0.4-17.1,6.8-19.9,17.1
		C473.5,454,474.3,461,472.4,467.9z M495.3,437.7c12,4,9.5,15.2,5.2,18.8c-5,4.2-13.7-0.6-11.2-8.3c0,0-4.9-1.2-8.1,5.1
		c-4.4,8.7,0,15.4,0,15.4s-7-4.6-6.9-15.4C474.5,443.6,482.8,433.5,495.3,437.7z"/>
	<path class="st9" d="M508.7,440.7c6.8,0.7,14.1-1.1,20.6-5.6c12.9-8.9,16-29.6,6.4-43.3c0,0,6.4,14.8-4,24.4
		c-6.7,6.2-13,3.2-13,3.2s6-5.8,2.1-15.9c-3.8-10.1-14.9-13.8-25.5-8.5c-10.6,5.2-15.5,20.2-6.8,33.5c0.5,0.8,1.1,1.5,1.6,2.3
		c1.1,0,2.1-0.1,3.2,0C500.6,431.6,506.1,435.4,508.7,440.7z M500.8,399.7c12.3-3.2,16.3,7.4,14.7,12.7c-1.9,6.2-11.8,7-13.9-0.8
		c0,0-4.7,1.7-3.9,8.7c1.1,9.6,8.5,12.8,8.5,12.8s-8.3,0.1-14.2-9.1C486.7,416,488.1,403,500.8,399.7z"/>
	<path class="st9" d="M508.7,440.7c-2.6-5.3-8.1-9.1-15.3-10c-1.1-0.1-2.1-0.1-3.2,0C494.9,436.6,501.5,440,508.7,440.7z"/>
	<path class="st5" d="M348.8,452.9c8,6.2,17.9,4.8,22.8-3c4.9-7.8,0.9-13.7,0.9-13.7s5.8-1.5,10.4,4.8c7.2,9.8-0.6,21.1-0.6,21.1
		c10.3-9.8,11-27.7,1.7-37.4c-10.3-10.6-25.8-10.9-35.3-1.1C339.1,433.3,340.7,446.7,348.8,452.9z M364.2,422.4c0,0-6.7,1.5-9.2,9.4
		c-1.9,5.7,1.9,7.9,1.9,7.9c3.1-6.2,11.3-3.9,11.8,1.7c0.5,4.7-4.6,13-14.4,8.3c-10.1-4.9-9.2-16-3.4-22
		C357.2,421,364.2,422.4,364.2,422.4z"/>
	<path class="st10" d="M568.7,399.5c6.3-6.7,5.6-18.9-1.6-25.6c0,0,5.4,7.7,0.6,14.4c-3.1,4.4-7,3.4-7,3.4s2.7-4-0.7-9.4
		c-3.4-5.3-10.2-6.1-15.7-1.8c-5.5,4.3-6.4,13.5,0.1,20C551.2,407.2,561.8,406.9,568.7,399.5z M548.1,382.7c6.6-3.3,10.3,2.3,10,5.5
		c-0.3,3.8-5.9,5.4-8.1,1.2c0,0-2.5,1.6-1.1,5.5c1.8,5.4,6.4,6.3,6.4,6.3s-4.8,1-9.2-3.5C542,393.7,541.3,386.1,548.1,382.7z"/>
	<path class="st11" d="M563.5,328.1c1.5-6.4-2.9-12.1-10.1-12.9c-7.2-0.9-14.7,5.1-14.8,14.8c0,9.8,8,17.4,18.6,17.1
		c9.6-0.2,18.1-9.7,17.8-19.9c0,0-1.7,9.7-10.2,11.1c-5.5,0.9-7.7-2.7-7.7-2.7S562.1,334.5,563.5,328.1z M557.8,330.8
		c-3,2.5-8.4-0.4-6.9-5.1c0,0-3-0.7-4.9,3.1c-2.7,5.3,0,9.4,0,9.4s-4.2-2.8-4.2-9.4c0-5.9,5.1-12.1,12.7-9.5
		C561.9,321.9,560.4,328.7,557.8,330.8z"/>
	<path class="st5" d="M401.8,251.1c12.1,2.9,25.9-6.1,28.9-18.9c0,0-5.4,11.5-16.4,10.4c-7.1-0.7-8.7-6-8.7-6s6.6,0.5,10.5-7.1
		c3.9-7.5,0.3-16-8.3-19.5c-8.7-3.5-20.1,1.5-23.4,13.6C381,235.7,388.6,247.9,401.8,251.1z M388.7,223.3c2-7.4,10.4-13.4,19.1-7.6
		c8.3,5.5,4.2,13.5,0.2,15.4c-4.7,2.2-10.4-3.3-6.9-8.6c0,0-3.5-1.9-7.2,2.3c-5.1,5.7-3.1,11.8-3.1,11.8S386.4,231.6,388.7,223.3z"
		/>
	<path class="st12" d="M571.3,366.2c4.2,11.1,16.6,16.2,28.5,11.3c10.8-4.4,16.3-18.9,11.5-30.4c0,0,2.3,11.7-6.8,17
		c-5.8,3.4-9.9,0.3-9.9,0.3s5.2-3.3,4-11.2c-1.2-7.9-8.6-12.4-17.1-10.3C573,345.1,567.1,355.2,571.3,366.2z M584.7,347.3
		c9.4-0.4,10.7,8,8.6,11.6c-2.3,4.2-9.7,3.2-10-2.8c0,0-3.7,0.5-4.2,5.7c-0.7,7.2,4.2,10.7,4.2,10.7s-6.1-1.3-8.9-8.9
		C571.9,356.9,575,347.7,584.7,347.3z"/>
	<path class="st13" d="M524.6,211.9c8.4,2.7,16.1-1.2,17.8-9c1.7-7.8-3.3-11.4-3.3-11.4s4.3-2.9,9.9,1c8.7,6,5.5,17.5,5.5,17.5
		c5.6-11,1.1-25.9-9.3-31.1c-11.4-5.8-24.2-1.6-29.2,9.2C511.1,198.6,516.3,209.1,524.6,211.9z M519,190.7c3.4-7.4,9.5-8.2,9.5-8.2
		s-5.1,3.1-4.9,10.3c0.1,5.2,3.8,6,3.8,6c0.8-6,8.1-6.4,10.1-2c1.7,3.8-0.1,12-9.4,10.9C518.4,206.7,516,197.3,519,190.7z"/>
	<path class="st8" d="M419.4,468.9c-8.9-1.1-12.2,4.8-12.2,4.8s-3.7-4.4-0.1-11c5.6-10.2,18.7-8,18.7-8c-12.8-5-28.7,1.6-33.4,13.7
		c-5.1,13.3,0.9,27,13.4,31.3c12.3,4.3,23.4-2.5,25.5-12.1C433.5,478.1,428.3,470,419.4,468.9z M408.6,496.1
		c-8.5-2.9-10.1-9.6-10.1-9.6s4,5.3,12,4.3c5.8-0.7,6.2-4.8,6.2-4.8c-6.7-0.2-8-8.2-3.4-11c3.9-2.3,13.3-1.2,13.1,9.2
		C426.3,495,416.2,498.7,408.6,496.1z"/>
	<path class="st9" d="M567.8,206c6.3-2.3,9.8,1.5,9.8,1.5s-5.7,2.3-5.9,10.3c-0.2,7.9,6.2,13.6,14.9,13c8.8-0.6,16.3-9.5,14.1-20.9
		c-2.2-11.6-13.5-18.7-25.9-16c-11.3,2.4-19.3,15.7-16.5,27.7C558.2,221.5,558,209.6,567.8,206z M587.1,217.5c0,0,3.7,0.2,5.1-4.8
		c2-6.9-2.2-11.2-2.2-11.2s5.7,2.3,7.2,10.2c1.3,7-3.3,15.5-13,14.2c-9.3-1.2-9-9.7-6.4-12.9C580.8,209.4,587.8,211.6,587.1,217.5z"
		/>
	<path class="st14" d="M611.5,318.5c2.2-8.1-3-15.5-12.1-17.1c-9.1-1.6-19,5.6-19.7,17.9c-0.7,12.5,9.2,22.6,22.6,22.9
		c12.2,0.3,23.7-11.3,23.9-24.2c0,0-2.8,12.2-13.7,13.4c-7,0.8-9.6-3.9-9.6-3.9S609.3,326.6,611.5,318.5z M604,321.6
		c-4,3.1-10.6-1-8.4-6.9c0,0-3.7-1.1-6.4,3.7c-3.8,6.6-0.6,12-0.6,12s-5.3-3.8-4.8-12.3c0.5-7.5,7.3-15,16.8-11.3
		C609.8,310.5,607.5,319.1,604,321.6z"/>
	<path class="st6" d="M589,488.1c-1.1-6-6.9-9.2-13.4-7.3c-6.5,1.9-10.7,9.8-7.2,18.1c3.5,8.4,13.2,11.9,22.2,7.8
		c8.2-3.7,12-15,8-23.7c0,0,2.1,8.9-4.7,13.3c-4.4,2.8-7.6,0.5-7.6,0.5S590.1,494.2,589,488.1z M585.1,492.6
		c-1.7,3.3-7.3,2.8-7.7-1.8c0,0-2.8,0.5-3.1,4.5c-0.3,5.6,3.5,8.1,3.5,8.1s-4.7-0.8-7.1-6.6c-2.2-5.1-0.1-12.2,7.4-12.8
		C585.3,483.4,586.5,489.8,585.1,492.6z"/>
	<path class="st9" d="M336.6,360.4c-1.4-7.1-8.2-10.9-15.8-8.7c-7.6,2.2-12.6,11.5-8.5,21.3c4.2,9.9,15.6,14.1,26.1,9.2
		c9.6-4.4,14.1-17.7,9.3-27.8c0,0,2.5,10.5-5.5,15.6c-5.1,3.3-8.9,0.6-8.9,0.6S337.9,367.5,336.6,360.4z M332,365.6
		c-1.9,3.9-8.6,3.3-9.1-2.1c0,0-3.3,0.6-3.6,5.3c-0.4,6.5,4.1,9.5,4.1,9.5s-5.5-1-8.3-7.7c-2.5-6-0.1-14.4,8.7-15.1
		C332.3,354.8,333.7,362.3,332,365.6z"/>
	<path class="st9" d="M544.9,278.9c-11.4,6-13.9,18.6-8.4,26.6c5.4,8,14.8,9.7,21.5,4c6.7-5.6,4.8-12.1,4.8-12.1s5.7,0.4,7.9,7.4
		c3.6,10.9-6.8,18.9-6.8,18.9c12.3-5.9,18.3-21.9,12.7-33.4C570.4,277.6,556.4,272.7,544.9,278.9z M548.2,288.2
		c-3.4,4.6-0.7,7.8-0.7,7.8c4.6-4.7,11.3-0.2,10.2,5c-1,4.4-8.1,10.4-15.6,3.2c-7.7-7.4-3.6-17.2,3.4-21c7.9-4.2,13.8-0.8,13.8-0.8
		S552.8,281.8,548.2,288.2z"/>
	<path class="st15" d="M469.4,246c0,0-5.9-14.5,4.4-23.5c6.6-5.8,12.6-2.8,12.6-2.8s-5.9,5.5-2.4,15.3c3.5,9.9,14.1,13.7,24.5,8.9
		c10.4-4.8,15.5-19.2,7.5-32.3c-8.1-13.2-25.3-16.7-39.3-7.4C464,212.5,460.5,232.5,469.4,246z M489.5,226.5c1.9-6,11.6-6.5,13.4,1
		c0,0,4.6-1.5,4-8.3c-0.8-9.4-7.9-12.7-7.9-12.7s8.1,0.1,13.6,9.2c4.9,8,3.2,20.5-9.2,23.5C491.5,242,487.8,231.6,489.5,226.5z"/>
	<path class="st9" d="M447.5,378.4c-1.1-12.2-12.1-20.7-25.3-19.1c-11.9,1.5-21.5,14.4-19.8,27.1c0,0,0.9-12.3,11.4-15.1
		c6.7-1.8,9.9,2.5,9.9,2.5s-6.1,1.8-7.1,10c-1,8.2,5.2,14.7,14.3,14.9C439.9,398.9,448.5,390.5,447.5,378.4z M428.8,393.5
		c-9.5-2.2-8.4-10.9-5.4-13.9c3.5-3.6,10.5-0.6,9.2,5.5c0,0,3.8,0.5,5.8-4.5c2.7-6.9-1.2-11.8-1.2-11.8s5.7,3,6.4,11.3
		C444.2,387.5,438.7,395.8,428.8,393.5z"/>
	<path class="st4" d="M391.5,276.6c-11.6,3.4-16.8,15.5-11.9,27.9c5,12.4,21.4,19.2,37,10.7c15.9-8.6,20.9-28.4,11.1-45.2
		c-8.9-15.2-31.8-20.6-48-11.1c0,0,17.1-5.9,27,6.7c6.3,8.1,2.4,14.9,2.4,14.9S403.2,273.2,391.5,276.6z M423.7,295.8
		c0,0-0.6,9.4-11.5,15.2c-9.7,5.2-24.1,2.5-26.7-12.1c-2.5-14.1,9.8-17.6,15.7-15.3c6.8,2.6,6.8,13.8-2.1,15.5c0,0,1.5,5.4,9.4,5.2
		C419.4,303.8,423.7,295.8,423.7,295.8z"/>
	<path class="st16" d="M476.4,380.4c0,0,0.3,5.4,6.9,7.8c6.6,2.4,13.1-1.4,15-8.9c1.9-7.4-3.4-16.2-13.5-17.5
		c-10.3-1.4-19.3,6-20.5,17.1c-1.1,10.1,7.7,20.4,18.4,21.5c0,0-9.9-3.1-10.2-12.3C472.2,382.2,476.4,380.4,476.4,380.4z
		 M485.4,365.2c6.2,0.9,12,7.1,8.2,14.7c-3.6,7.4-10.5,4.8-12.5,1.8c-2.2-3.5,1.5-8.7,6.3-6.4c0,0,1.2-3-2.6-5.6
		c-5.2-3.5-9.9-1.3-9.9-1.3S478.3,364.2,485.4,365.2z"/>
	<path class="st7" d="M333.5,328.3c6.6-4.8,7.9-12.7,3-18.3c-4.9-5.6-10.3-3.8-10.3-3.8s0.2-4.8,6.1-6.9c9.2-3.2,16.1,5.4,16.1,5.4
		c-5.2-10.2-18.9-15-28.4-10c-10.6,5.5-14.5,17.3-9.1,27C316.1,331.2,326.8,333.1,333.5,328.3z M313.6,309.4c0,0-0.4,5.6,5.1,9.3
		c3.9,2.7,6.5,0.4,6.5,0.4c-4.1-3.8-0.4-9.6,4-8.7c3.8,0.8,9,6.6,3.1,13c-6.1,6.7-14.5,3.4-17.8-2.5
		C310.9,314.5,313.6,309.4,313.6,309.4z"/>
	<path class="st16" d="M635.6,365c7.1,3.5,14.9,0.1,18-8c3.1-8.1-1.7-18.6-12.9-21.5c-11.4-3-22.5,4.2-25.3,16.5
		c-2.5,11.2,6,23.9,17.9,26.6c0,0-10.8-4.8-9.9-15.1c0.6-6.6,5.4-8.1,5.4-8.1S628.6,361.4,635.6,365z M628.9,341.6
		c0,0,4.5-4.2,12.2-2.2c6.9,1.8,12.5,9.6,7.3,17.6c-5.1,7.8-12.5,4-14.3,0.4c-2.1-4.3,2.9-9.7,7.9-6.5c0,0,1.7-3.3-2.2-6.6
		C634.5,339.7,628.9,341.6,628.9,341.6z"/>
	<path class="st4" d="M631.2,487.7c10.2-0.1,17.9-8.5,17.5-19.5c-0.4-10-10.3-18.7-20.9-18.3c0,0,10.1,1.6,11.6,10.5
		c1,5.6-2.8,8-2.8,8s-1-5.1-7.7-6.6c-6.7-1.4-12.5,3.2-13.3,10.7C614.9,480,621.2,487.8,631.2,487.7z M620.1,471.3
		c2.5-7.7,9.6-6.1,11.9-3.5c2.7,3.1-0.3,8.7-5.2,7.2c0,0-0.7,3.1,3.3,5.1c5.5,2.7,9.8-0.1,9.8-0.1s-2.8,4.5-9.8,4.5
		C624,484.4,617.6,479.3,620.1,471.3z"/>
	<path class="st14" d="M461.2,319.9c-10,2.6-15.1,11.4-11.9,20.2c3.2,8.8,10.5,9.2,10.5,9.2s-2.4,5.5-10.4,5.3
		c-12.3-0.4-16.5-13.7-16.5-13.7c1.5,14.4,15.4,26.3,28.9,24.8c15-1.6,24.9-13.8,23-27.7C483,324.3,471.2,317.3,461.2,319.9z
		 M476.1,351.3c0,0,3-6.4-1.8-13.3c-3.5-5-7.6-3.5-7.6-3.5c3,6.3-3.9,11.4-8.7,8.4c-4.1-2.6-7.5-11.9,2.4-16.8
		c10.3-5.1,18.6,2.6,19.8,11C481.6,346.5,476.1,351.3,476.1,351.3z"/>
	<path class="st17" d="M620.5,279.1c0,2,0.3,4.1,1,6.1c3.7,10.2,12.1,10.7,12.1,10.7s-2.8,6.4-12,6.1c-14.3-0.4-19.1-15.9-19.1-15.9
		c1.7,16.7,17.8,30.4,33.4,28.7c17.3-1.9,28.8-16,26.6-32c-2.2-15.8-15.8-24-27.3-21c-1.5,0.4-2.9,0.9-4.2,1.5
		C629.6,270.3,625.6,275.8,620.5,279.1z M634.3,269.1c11.9-5.8,21.5,3.1,22.9,12.8c1.6,10.9-4.8,16.3-4.8,16.3s3.5-7.3-2-15.4
		c-4-5.8-8.7-4-8.7-4c3.5,7.3-4.5,13.2-10.1,9.7C626.8,285.5,622.8,274.7,634.3,269.1z"/>
	<path class="st17" d="M620.5,279.1c5.1-3.3,9.1-8.8,10.5-15.7C624.3,266.6,620.5,272.5,620.5,279.1z"/>
	<path class="st5" d="M432,328.1c9.6,2.6,10.5,13.9,10.5,13.9c1.5-11.7-7.2-23.6-18.2-25c-12.1-1.4-22.2,6.3-23.3,17.5
		c-1,11.1,6.9,18.9,15.2,18.7c8.4-0.2,14.1-6.1,13.1-13.7c-0.9-7.5-6.5-9.2-6.5-9.2S425.8,326.5,432,328.1z M423.1,335.7
		c2.8,2.8,3.7,10.8-4.9,12.8c-9.1,2.1-14.2-5.6-13.6-12.4c0.7-7.6,5.9-10.3,5.9-10.3s-3.5,4.4-1.1,10.8c1.8,4.6,5.3,4.1,5.3,4.1
		C413.4,335.2,419.9,332.5,423.1,335.7z"/>
	<path class="st5" d="M526.6,462.4c4,8.2,11.2,8.7,11.2,8.7s-2.8,6.4-11.9,6.1c-3.1-0.1-5.8-0.9-8-2.2c-1.2,1.1-2.6,2.1-3.9,3.1
		c6.5,8,16.5,13,26.3,11.9c3.9-0.4,7.6-1.5,10.8-3.1c0.5-3.5,0.9-6.1,0.9-6.1l4.1-2.7l4.8-5.2c0,0-0.1,2.7-0.3,6.7
		c4.9-5.8,7.3-13.4,6.2-21.5c-2.2-15.8-15.8-23.9-27.3-21c-11,2.8-16.8,12.2-14.1,21.9c2.7-4.4,3.4-8.7,3.4-8.7
		C528.9,454.5,528.1,458.6,526.6,462.4z M538.5,444.4c11.9-5.8,21.5,3.1,22.9,12.7c1.6,10.9-4.8,16.3-4.8,16.3s3.5-7.4-2-15.4
		c-4-5.8-8.7-4-8.7-4c3.5,7.3-4.5,13.3-10.1,9.8C531,460.8,527,450,538.5,444.4z"/>
	<path class="st5" d="M510.5,468.6c-2.7-3.7-3.8-7.2-3.8-7.2c0.3,2.5,0.9,4.9,1.7,7.2C509.1,468.7,509.8,468.7,510.5,468.6z"/>
	<path class="st5" d="M556.1,478.2l-4.1,2.7c0,0-0.4,2.6-0.9,6.1c3.8-1.8,7-4.3,9.5-7.3c0.2-4,0.3-6.7,0.3-6.7L556.1,478.2z"/>
	<path class="st5" d="M517.8,475.2c-3.2-1.7-5.6-4.2-7.3-6.6c-0.7,0.1-1.4,0.1-2.1,0.1c1.3,3.5,3.1,6.7,5.4,9.6
		C515.3,477.3,516.6,476.3,517.8,475.2z"/>
	<path class="st5" d="M526.6,462.4c1.5-3.8,2.3-7.9,2.1-12.1c0,0-0.8,4.3-3.4,8.7c0.1,0.5,0.2,1,0.4,1.5
		C526,461.2,526.3,461.8,526.6,462.4z"/>
	<path class="st18" d="M616.2,447.5c-5.4-8.9-15.4-11.3-22.9-5.6c-7.6,5.7-5.9,12.8-5.9,12.8s-6.1-0.7-8.1-8.4
		c-3.2-12,8.5-20,8.5-20c-13.5,5.6-20.9,22.5-15.6,35.2c5.9,14,20.6,20.1,33.4,14.2C618.1,469.8,621.6,456.4,616.2,447.5z
		 M590.2,470.9c0,0,7,1.1,12.4-5.5c3.9-4.8,1.1-8.3,1.1-8.3c-5.3,4.8-12.2-0.5-10.7-6c1.3-4.7,9.3-10.7,16.9-2.6
		c7.9,8.4,2.8,18.7-4.9,22.3C596.3,474.9,590.2,470.9,590.2,470.9z"/>
	<path class="st19" d="M502.8,363.3c-2.9,15.1,6.9,26.9,18.4,27.7c11.5,0.9,20.1-6.6,19.9-17.1c-0.2-10.5-7.7-13.6-7.7-13.6
		s4.6-5,12.9-1.8c12.9,4.8,12.5,20.5,12.5,20.5c3.6-15.8-6.8-33.3-21.6-36.7C520.7,338.7,505.7,348,502.8,363.3z M524.4,384.7
		c-12.7,1.6-18.8-9.6-17-18.8c2-10.5,9.5-13.5,9.5-13.5s-5.5,5.6-2.9,14.7c1.8,6.6,6.7,6.4,6.7,6.4c-0.9-7.8,8.3-10.7,12.3-5.8
		C536.4,372.1,536.6,383.1,524.4,384.7z"/>
	<path class="st20" d="M658.8,353.5c0,0,15.2,0.8,18.9,13.7c2.4,8.3-2.8,12.3-2.8,12.3s-2.4-7.5-12.6-8.5c-10.2-1-18.1,6.7-18.1,18
		c0,11.2,10.6,21.7,25.6,20c15.1-1.7,25.3-15.5,22.9-31.7C690.7,362.6,674.5,351.1,658.8,353.5z M667.7,404.3
		c-9.1,1-19.5-5.7-17-17.9c2.5-11.7,13.2-10.7,17.1-7c4.5,4.2,1,12.9-6.5,11.5c0,0-0.6,4.7,5.7,7c8.7,3.1,14.6-1.8,14.6-1.8
		S678,403.2,667.7,404.3z"/>
	<path class="st9" d="M373.5,292c6.4-9.2,4.4-20-4.4-24.9c-8.9-5-15.1-0.3-15.1-0.3s-1.9-6.2,4.8-11.6c10.4-8.3,23.3-0.3,23.3-0.3
		c-11.4-10.9-31.1-10.8-41.3,0c-11.1,11.9-10.7,28.9,0.6,38.9C352.5,303.6,367.1,301.2,373.5,292z M339.3,276.6c0,0,2,7.3,10.8,9.7
		c6.4,1.7,8.6-2.4,8.6-2.4c-7-3.1-4.8-12.2,1.2-13.1c5.2-0.7,14.6,4.5,9.9,15.5c-4.9,11.4-17.2,10.9-24,4.9
		C338,284.4,339.3,276.6,339.3,276.6z"/>
	<path class="st21" d="M358.6,332.7c0,0-6,6.3-1.6,16.7c4.4,10.4,16.1,13.9,27.1,8c10.9-6,15.4-21.8,5.9-35.4
		c-9.6-13.7-28.4-16.3-43-5.4c-13.2,9.9-15.7,31.7-5.1,45.6c0,0-7.3-15.2,3.2-25.7C351.8,329.8,358.6,332.7,358.6,332.7z
		 M362.3,339.8c1.7-6.6,12.1-7.8,14.6,0.3c0,0,4.9-2,3.8-9.3c-1.5-10-9.4-13.2-9.4-13.2s8.8-0.4,15.3,9c5.8,8.3,4.8,22-8.4,26
		C365.4,356.5,360.8,345.4,362.3,339.8z"/>
	<path class="st22" d="M457.4,516.3c7.3-6.6,7.6-19.8,0.5-27.6c0,0,5.2,8.7-0.5,15.5c-3.7,4.4-7.9,3-7.9,3s3.2-4.1,0-10.1
		c-3.2-6-10.4-7.5-16.6-3.3c-6.2,4.2-8.1,13.9-1.6,21.5C437.9,523.1,449.3,523.6,457.4,516.3z M436.7,496.5c7.4-3,10.8,3.3,10.2,6.8
		c-0.6,4.1-6.8,5.3-8.7,0.7c0,0-2.8,1.5-1.8,5.7c1.5,6,6.4,7.3,6.4,7.3s-5.2,0.7-9.6-4.5C429.2,507.8,429,499.6,436.7,496.5z"/>
	<path class="st23" d="M641.2,325.5c0,0,5.9-10.8,16.5-9c6.9,1.2,8,6.4,8,6.4s-6.3-0.9-10.6,6.1c-4.3,7-1.4,15.4,6.7,19.4
		c8.2,3.9,19.5-0.1,23.4-11.5c4.1-11.5-2.4-23.8-15-27.7C658.9,305.5,644.9,313.3,641.2,325.5z M669.1,336.7c0,0,3.2,2,7.1-1.7
		c5.3-5.2,3.8-11.1,3.8-11.1s3.9,5,1.1,12.8c-2.5,7-10.9,12.2-18.9,6c-7.7-5.9-3.1-13.3,0.8-14.8
		C667.7,326.2,672.8,331.8,669.1,336.7z"/>
	<path class="st6" d="M435.1,207.6c3.5-5.4,8.4-4.5,8.4-4.5s-3.1,5.1,1.3,11.4c4.5,6.3,12.8,7,19.2,1.5c6.5-5.5,7.2-16.8-1.1-24.5
		c-8.4-7.8-21.3-6.8-29.5,2.5c-7.3,8.5-5.9,23.4,3.2,31.2C436.6,225.2,429.6,216.1,435.1,207.6z M456.8,205.4c0,0,3-2,1.2-6.7
		c-2.5-6.5-8.1-7.4-8.1-7.4s5.8-1.5,11.5,3.8c5.1,4.7,6.4,14-1.9,18.6c-7.9,4.4-12.6-2.3-12.4-6.3
		C447.2,202.6,453.9,200.3,456.8,205.4z"/>
	<path class="st24" d="M471.4,467.9c0.1,0.6,0.2,1.2,0.3,1.9c0.2-0.7,0.4-1.3,0.6-2c-2-3.9-3.2-8.2-3.1-13c0-2.6,0.5-4.9,1.1-7.1
		c-3-5.8-8-10.7-14.8-13.9c-14.4-6.6-34,1.2-41,16.6c0,0,9.6-13.1,23.3-9c8.8,2.7,9.4,9.7,9.4,9.7s-8.1-2.2-14.9,6.3
		c-6.8,8.5-4.4,20.1,5.6,26.6c7.6,5,18.3,4.2,26.1-2.6c-0.5-2.3-0.8-3.6-0.8-3.6L471.4,467.9z M439.2,476.9c-9.1-9-1.9-18,3.6-19.3
		c6.4-1.5,12.2,6.7,6.5,12.5c0,0,3.9,3.3,9.6-1c7.8-5.9,6.9-14,6.9-14s4.3,7.2-0.6,17C460.6,480.9,448.6,486.2,439.2,476.9z"/>
	<path class="st24" d="M471.7,469.8c-0.1-0.7-0.2-1.4-0.3-1.9l-8.4,9.9c0,0,0.3,1.4,0.8,3.6c2.6-2.2,4.8-5.1,6.6-8.6
		C470.9,471.9,471.4,470.9,471.7,469.8z"/>
	<path class="st24" d="M472.4,467.9c1.9-6.8,1.1-13.9-2.1-20.1c-0.6,2.2-1,4.5-1.1,7.1C469.2,459.6,470.3,464,472.4,467.9z"/>
	<path class="st6" d="M416.3,410.8c-2.2-7.7-10.2-11.1-18.4-7.8c-8.2,3.2-12.6,14-7,24.4c5.6,10.4,18.7,13.8,29.8,7.3
		c10-5.8,13.6-21,7.3-31.6c0,0,3.8,11.3-4.4,17.8c-5.3,4.2-9.8,1.6-9.8,1.6S418.5,418.4,416.3,410.8z M411.8,417.1
		c-1.8,4.5-9.1,4.5-10.3-1.4c0,0-3.6,1-3.4,6.2c0.2,7.2,5.5,10,5.5,10s-6.1-0.4-10-7.6c-3.4-6.3-1.6-15.9,8-17.6
		C410.9,405.1,413.3,413.2,411.8,417.1z"/>
	<path class="st20" d="M320.2,433.4c11.8,4.3,24.5-2.2,28.8-15.1c3.9-11.7-3.9-26.2-16.4-30.3c0,0,11,6.2,9,17.2
		c-1.3,7-6.6,8.1-6.6,8.1s1-6.4-6.2-11c-7.2-4.5-15.9-1.7-20.1,6.7C304.5,417.5,308.5,429.1,320.2,433.4z M314.4,409.6
		c6.2-7.8,13.7-3,15.3,1.1c1.8,4.8-4.1,10-9.1,6.1c0,0-2.2,3.3,1.7,7.3c5.3,5.5,11.5,4.1,11.5,4.1s-5.3,4-13.3,1
		C313.2,426.5,308,417.7,314.4,409.6z"/>
	<path class="st9" d="M391.3,490.1c0,0-8.4,8.5-17.9,4c-6.1-2.9-5.8-8-5.8-8s5.6,2.4,11.5-3c5.9-5.4,5.4-14.1-1.2-19.9
		c-6.6-5.8-18.2-5.1-25,4.6c-6.8,9.7-4,22.8,6.7,29.9C369.4,504,384.5,500.4,391.3,490.1z M368.1,472.1c0,0-2.5-2.8-7.1-0.3
		c-6.3,3.4-6.5,9.4-6.5,9.4s-2.3-5.7,2.4-12.3c4.1-5.9,13.5-8.5,19.3-0.6c5.6,7.5-0.6,13.3-4.7,13.6
		C366.7,482.3,363.3,475.7,368.1,472.1z"/>
	<path class="st19" d="M673.5,429c-2.8-14.9-17.3-24-33.2-20.5c-14.5,3.2-24.7,20.2-21.2,35.6c0,0-0.3-15.2,12.2-19.9
		c8.1-3,12.5,1.9,12.5,1.9s-7.3,3-7.6,13.1c-0.3,10.2,8,17.5,19.2,16.7C666.6,455.1,676.2,443.7,673.5,429z M644.1,433.3
		c3.9-4.8,12.9-1.9,11.9,5.7c0,0,4.8,0.2,6.6-6.2c2.5-8.8-2.8-14.3-2.8-14.3s7.3,2.9,9.2,13.1c1.7,9-4.3,19.9-16.6,18.2
		C640.5,448.1,640.8,437.3,644.1,433.3z"/>
	<rect x="313" y="761.6" class="st1" width="362.9" height="2.6"/>
	<path class="st25" d="M575.6,788.6c0.8,0,1.5,0.3,2.3,0.9c0.3-0.7,0.5-1.3,0.7-1.9c-1-0.8-2.3-1.1-3.8-1.1c-3.3,0-5,1.8-5,5.5h-2.3
		v2.5h12.9l-2.1-2.7L576,792h-3.1C572.9,789.8,573.8,788.7,575.6,788.6z"/>
	<path class="st25" d="M405.3,818.1c-1.3,0-2.4,1.1-2.4,2.4c0,1.4,1.1,2.4,2.4,2.4c1.4,0,2.5-1.1,2.5-2.4
		C407.7,819.1,406.6,818.1,405.3,818.1z"/>
	<path class="st25" d="M411.6,818.1c-1.3,0-2.5,1.1-2.5,2.4c0,1.4,1.1,2.4,2.5,2.4c1.4,0,2.4-1.1,2.4-2.4
		C414,819.1,412.9,818.1,411.6,818.1z"/>
	<path class="st25" d="M556.4,798.4l0.7,5.1v3.9c0,2.1-1,3.1-2.8,3.1c-1.3,0-2.4-0.5-3.4-1.5v-10.2l-3.9,0.9v7.7
		c0,2.1-0.9,3.1-2.8,3.1c-1.4,0-2.5-0.5-3.5-1.4v-10.3l-3.9,0.9l-0.1,7.6c0,2.1-1,3.1-2.8,3.1h-3.8c-1.9,0-2.8-1-2.8-3.1v-10.1
		l-4.7,1.1l0.8,5.1v3.9c0,2.1-1,3.1-2.8,3.1c-1.3,0-2.4-0.5-3.4-1.5v-10.2l-3.9,0.9v7.7c0,2.1-1,3.1-2.8,3.1c-1.3,0-2.5-0.4-3.4-1.3
		v-10.3l-3.9,0.9l-0.1,7.6c0,2.1-0.9,3.1-2.9,3.1h-5c-1.9,0-2.9-1.1-2.9-3.2v-13.3c-1.5,0.3-3,0.6-4.8,1.1l0.2,1.8h-1.3
		c-2.8,0-5,0.8-6.7,2.4c-1.7,1.5-2.5,3.6-2.5,6.2c0,4.7,2.6,7.8,6.8,7.8c2,0,3.7-0.4,5.1-1.1c1.3,1.3,2.9,2,5,2h7
		c1.8,0,3.2-0.5,4.2-1.5c0.3-0.3,0.6-0.6,0.8-0.8c1.5,1.5,3.3,2.3,5.3,2.3c2.1,0,3.7-0.7,4.8-2.3c1.5,1.5,3.2,2.3,5.3,2.3
		c1.5,0,2.8-0.4,3.8-1.2c1.1,0.8,2.4,1.2,4,1.2h5.6c1.8,0,3.2-0.5,4.2-1.5c0.3-0.3,0.6-0.6,0.8-0.9c1.5,1.6,3.3,2.4,5.4,2.4
		c2.1,0,3.7-0.7,4.8-2.3c1.5,1.5,3.2,2.3,5.3,2.3c3.5,0,5.7-2.3,5.7-5.7v-11L556.4,798.4z M488.3,809.5c-1.1,0.3-2.3,0.5-3.4,0.5
		c-2.4,0-3.6-1.7-3.7-5.2c0-1.5,0.5-2.7,1.5-3.7c1-1,2.2-1.5,3.5-1.5c0.7,0,1.4,0,2.1-0.1V809.5z"/>
	<path class="st25" d="M485.3,790.1c0-1.5-1.1-2.5-2.4-2.5c-1.4,0-2.4,1.1-2.4,2.4c0,1.4,1,2.5,2.4,2.5S485.3,791.3,485.3,790.1z"/>
	<path class="st25" d="M456.7,791c0-1.4-1.1-2.4-2.5-2.4c-1.3,0-2.4,1-2.4,2.4s1.1,2.4,2.4,2.4C455.6,793.4,456.7,792.3,456.7,791z"
		/>
	<path class="st25" d="M462.2,803.1c-3.1-4.5-6.2-6.7-9.2-6.7c-3.5,0-6.2,3.1-6.6,8.3l4.1-0.5c-0.4-1.1-0.6-1.9-0.6-2.7
		c0-1.5,0.6-2.2,1.8-2.2c1.6,0,3.6,1.5,5.7,4.4c1.7,2.3,3,4.5,4,6.7h-18c-1.9,0-2.9-1-2.9-3.1v-10.2l-4.7,1l0.8,5.1v4.1
		c0,2.1-0.9,3.1-2.9,3.1H429c-1.9,0-2.9-1.1-2.9-3.3v-9.9l-4.7,1.1l0.8,5.3l0,9.9c0,4-1.8,6.5-5.5,7.6l0.9,1.5c5.2-1.4,8-4.4,8.5-9
		c0.6,0.2,1.3,0.3,2,0.3h6.8c1.5,0,2.8-0.4,3.8-1.2c1,0.8,2.3,1.2,3.9,1.2h24.5C466.7,810.9,465.1,807.3,462.2,803.1z"/>
	<path class="st25" d="M432.3,818.1c-1.3,0-2.4,1.1-2.4,2.4c0,1.4,1.1,2.4,2.4,2.4c1.4,0,2.5-1.1,2.5-2.4
		C434.8,819.1,433.6,818.1,432.3,818.1z"/>
	<path class="st25" d="M392.1,790.1c0-1.5-1.1-2.5-2.4-2.5c-1.4,0-2.4,1.1-2.4,2.4c0,1.4,1,2.5,2.4,2.5S392.1,791.3,392.1,790.1z"/>
	<path class="st25" d="M489.3,792.4c1.4,0,2.4-1.1,2.4-2.4c0-1.5-1.1-2.5-2.4-2.5c-1.4,0-2.5,1.1-2.5,2.4
		C486.8,791.4,487.9,792.4,489.3,792.4z"/>
	<path class="st25" d="M438.6,818.1c-1.3,0-2.4,1.1-2.4,2.4c0,1.4,1.1,2.4,2.4,2.4c1.4,0,2.4-1.1,2.4-2.4
		C441.1,819.1,440,818.1,438.6,818.1z"/>
	<path class="st25" d="M396.1,792.4c1.4,0,2.4-1.1,2.4-2.4c0-1.5-1.1-2.5-2.4-2.5c-1.4,0-2.5,1.1-2.5,2.4
		C393.6,791.4,394.7,792.4,396.1,792.4z"/>
	<path class="st25" d="M410.5,798.4l0.7,5.1v3.9c0,2.1-1,3.1-2.9,3.1h-6.5c-1.9,0-2.9-1.1-2.9-3.2v-13.3c-1.5,0.3-3,0.6-4.7,1.1
		l0.2,1.8h-1.3c-2.8,0-5,0.8-6.7,2.4c-1.7,1.5-2.5,3.6-2.5,6.2c0,4.7,2.6,7.8,6.8,7.8c2,0,3.7-0.4,5.1-1.1c1.3,1.3,2.9,2,5,2h8.4
		c3.6,0,5.9-2.2,5.9-5.7v-11L410.5,798.4L410.5,798.4z M395.1,809.5c-1.1,0.3-2.3,0.5-3.4,0.5c-2.4,0-3.6-1.7-3.7-5.2
		c0-1.5,0.5-2.7,1.5-3.7c1-1,2.2-1.5,3.5-1.5c0.7,0,1.4,0,2.1-0.1V809.5z"/>
	<path class="st25" d="M598.3,796.6c-3,0-5.4,0.9-7.2,2.7c-1.7,1.8-2.6,4.1-2.6,7c0,1.5,0.4,2.9,1.2,4.2h-9.5v-13.7h-5.8
		c-2.8,0-5,0.9-6.7,2.7c-1.7,1.8-2.5,4.1-2.5,7c0,2.4,0.8,4.2,2.2,5.6c1.3,1.3,3,1.9,5.2,1.9h3.8c-0.2,3.5-2,5.9-5.4,7.2l0.8,1.5
		c4.9-1.3,7.7-4.2,8.3-8.7h14.6c5.9,0,8.9-2.3,8.9-7v-5.5l0.4-4.1C602.2,796.9,600.2,796.6,598.3,796.6z M576.2,810.6h-3.3
		c-2.5,0-3.7-1.6-3.7-4.7c0-4.1,1.9-6.6,5-6.6h2V810.6z M595.9,810.6c-2.3,0-3.4-1.7-3.4-5c0-4.2,1.7-6.2,5-6.2
		c0.8,0,1.5,0.1,2.1,0.3l0.3,2.3c0.2,1.3,0.3,2.4,0.3,3.3C600.1,808.8,598.7,810.6,595.9,810.6z"/>
</g>
</svg>
