<?xml version="1.0" encoding="UTF-8"?>
<svg version="1.1" xmlns="http://www.w3.org/2000/svg" width="1180" height="1105">
<path d="M0 0 C1.63155194 -0.00115507 3.26310361 -0.00274517 4.89465475 -0.00472724 C9.33543412 -0.00886754 13.77619175 -0.00685407 18.21697116 -0.00374103 C23.02276675 -0.00146538 27.82855877 -0.00497727 32.63435364 -0.00772095 C42.03211266 -0.01215454 51.42986368 -0.01121291 60.82762301 -0.00830831 C68.46920438 -0.00604479 76.11078351 -0.00574586 83.75236511 -0.00683212 C84.84226961 -0.00698536 85.93217411 -0.00713859 87.05510601 -0.00729647 C89.26961203 -0.00761621 91.48411805 -0.00794042 93.69862407 -0.00826906 C114.43683886 -0.01111679 135.17504921 -0.00784791 155.91326326 -0.00246869 C173.68603352 0.0019987 191.45879724 0.00122257 209.23156738 -0.00338745 C229.89841332 -0.00874569 250.56525538 -0.01084216 271.23210192 -0.00777519 C273.43820731 -0.00745666 275.6443127 -0.00714229 277.85041809 -0.00683212 C278.93570615 -0.00667785 280.02099421 -0.00652357 281.13916978 -0.00636462 C288.76662419 -0.00550322 296.39407613 -0.00695423 304.02153015 -0.00931168 C313.32390204 -0.01212375 322.6262655 -0.01134176 331.92863643 -0.00603093 C336.66972751 -0.0034129 341.41080456 -0.00235652 346.15189552 -0.00568008 C350.50058557 -0.00868234 354.84924871 -0.00698548 359.19793636 -0.00170253 C360.76234721 -0.00059499 362.32676039 -0.00113207 363.89116973 -0.00357832 C404.50876813 -0.06216795 442.42130474 11.82098565 471.8848877 40.74124146 C473.15968401 41.98835346 474.45771355 43.21160995 475.75842285 44.43167114 C495.68131895 63.48228633 507.87911697 88.6313105 514.3013916 115.12698364 C514.57088623 116.20810425 514.57088623 116.20810425 514.8458252 117.31106567 C516.90237327 125.95235847 517.45267028 134.58139759 517.43002605 143.44167328 C517.43177909 144.3271901 517.43353213 145.21270692 517.43533829 146.12505758 C517.43997135 149.07717226 517.4375398 152.0292371 517.43510437 154.98135376 C517.43697367 157.12520592 517.43927484 159.26905775 517.44196969 161.41290903 C517.44807877 167.29247343 517.44795517 173.17202359 517.44677532 179.05159044 C517.4465711 185.39643605 517.45209185 191.74127712 517.45683289 198.08612061 C517.46513359 210.50885559 517.46790037 222.93158569 517.46844526 235.35432321 C517.46890501 245.44560234 517.4709644 255.53687994 517.47414589 265.62815857 C517.47504342 268.53397194 517.47593324 271.43978532 517.47682077 274.3455987 C517.47704182 275.06798547 517.47726286 275.79037224 517.47749061 276.53464952 C517.48364167 296.84347053 517.48759145 317.152291 517.48714733 337.46111298 C517.48713175 338.226324 517.48711617 338.99153501 517.48710012 339.77993425 C517.48701702 343.65830258 517.48691797 347.53667091 517.48681542 351.41503924 C517.4867855 352.57042467 517.4867855 352.57042467 517.48675498 353.74915122 C517.48671454 355.30679305 517.48667274 356.86443488 517.48662958 358.42207671 C517.4860161 382.68537198 517.49353811 406.9486533 517.50720215 431.21194458 C517.52254646 458.47011099 517.53116949 485.72826823 517.53023893 512.98643923 C517.53016429 515.88973776 517.53011559 518.7930363 517.53008461 521.69633484 C517.53006713 522.76864299 517.53006713 522.76864299 517.53004929 523.86261393 C517.53001847 535.3860264 517.53641445 546.90942679 517.54501687 558.43283566 C517.55347307 569.99891916 517.55432684 581.56497866 517.54790755 593.13106471 C517.54462704 599.40162311 517.54464057 605.6721375 517.5532608 611.9426918 C517.56105891 617.67380111 517.55976379 623.40483102 517.55097667 629.13593823 C517.54942686 631.21776108 517.55131271 633.29958967 517.55683675 635.38140577 C517.56381038 638.19404344 517.55867216 641.00639578 517.55028057 643.81902313 C517.55524875 644.64196157 517.56021693 645.4649 517.56533566 646.31277597 C517.52968803 651.89868722 517.52968803 651.89868722 515.3013916 654.12698364 C512.4334572 654.32537615 509.66194836 654.39641306 506.79269028 654.38145924 C505.44926067 654.38626895 505.44926067 654.38626895 504.07869107 654.39117584 C501.04379146 654.39955129 498.00908536 654.39352528 494.97418213 654.38768005 C492.78961533 654.39069738 490.60504959 654.39458474 488.42048573 654.39927262 C482.3904211 654.40961694 476.36041549 654.40735445 470.33034587 654.40309203 C463.83636876 654.40063613 457.34240628 654.40962522 450.84843445 654.41712952 C438.11041016 654.43034001 425.37240465 654.43167099 412.63437489 654.42932925 C402.27467259 654.42749787 391.91497648 654.42925297 381.55527496 654.4335537 C380.06775511 654.4341561 378.58023525 654.4347573 377.0927154 654.4353573 C374.85111937 654.43626456 372.60952335 654.43717322 370.36792733 654.43808965 C349.50971305 654.44652592 328.65150111 654.45085074 307.79328537 654.44668293 C307.00620769 654.44652655 306.21913001 654.44637018 305.4082015 654.44620906 C301.41891755 654.44540327 297.42963361 654.4445575 293.44034967 654.44369576 C292.25192094 654.44343913 292.25192094 654.44343913 291.03948354 654.44317731 C289.43728073 654.44283066 287.83507792 654.44248213 286.23287511 654.44213173 C261.34635745 654.43678388 236.45987529 654.44467545 211.57336426 654.46316528 C183.61042585 654.48391645 155.64750945 654.49460119 127.68456292 654.4905898 C124.6976498 654.49019447 121.71073668 654.48983292 118.72382355 654.48949242 C117.98838065 654.48940168 117.25293775 654.48931095 116.4952087 654.48921747 C105.42204626 654.48805445 94.34890609 654.49467794 83.27574921 654.50530434 C70.66078239 654.51739803 58.04586439 654.51886841 45.43089679 654.50651417 C38.99992735 654.50064271 32.56905312 654.49947757 26.13809013 654.51151657 C20.23657616 654.5224352 14.3352362 654.51920135 8.43373016 654.50525489 C6.31228208 654.50262411 4.1908201 654.50492278 2.06938574 654.51299075 C-30.7333897 654.62896009 -62.09198716 648.65107232 -89.6986084 630.12698364 C-90.59917969 629.52732788 -90.59917969 629.52732788 -91.51794434 628.91555786 C-104.01432496 620.51235904 -114.37864076 611.00946784 -123.6986084 599.12698364 C-124.5442334 598.17823364 -125.3898584 597.22948364 -126.2611084 596.25198364 C-130.2113399 591.18758429 -133.46390661 585.66901222 -136.6986084 580.12698364 C-137.10135986 579.44039673 -137.50411133 578.75380981 -137.91906738 578.04641724 C-141.00822935 572.65087807 -143.49809265 567.16350028 -145.7611084 561.37698364 C-146.10544922 560.50154907 -146.44979004 559.6261145 -146.80456543 558.72415161 C-153.20801814 542.2498969 -156.02035451 526.97870536 -155.9642334 509.26760864 C-155.96558532 507.90235322 -155.96753021 506.53709828 -155.97003174 505.17184448 C-155.97294626 502.34499414 -155.96879777 499.51827199 -155.95935059 496.69143677 C-155.94782557 493.066612 -155.95461965 489.44207924 -155.96649551 485.81726456 C-155.97370264 483.01378143 -155.97143379 480.21036841 -155.96623993 477.40688324 C-155.96426106 475.42037259 -155.97032428 473.43385921 -155.97650146 471.44735718 C-155.96704498 469.65343536 -155.96704498 469.65343536 -155.95739746 467.82327271 C-155.95580627 466.76851746 -155.95421509 465.71376221 -155.95257568 464.62704468 C-155.6986084 462.12698364 -155.6986084 462.12698364 -153.6986084 460.12698364 C-150.69649264 459.92283165 -147.78624763 459.84385003 -144.78259277 459.85232544 C-143.8589241 459.84721451 -142.93525543 459.84210358 -141.9835968 459.83683777 C-138.9197854 459.82289786 -135.85619781 459.82390169 -132.7923584 459.82620239 C-130.67008378 459.82231819 -128.54780993 459.81798409 -126.42553711 459.81321716 C-121.97340374 459.8057457 -117.52134967 459.80605316 -113.06921387 459.81130981 C-107.35222774 459.8171089 -101.63556511 459.8001672 -95.91863251 459.77696514 C-91.5349944 459.76226411 -87.15143488 459.76135108 -82.76777649 459.76447487 C-80.65936135 459.76395993 -78.55094201 459.75869013 -76.44255066 459.74866295 C-73.4996918 459.7363846 -70.55747195 459.74303801 -67.61462402 459.75466919 C-66.73663651 459.74702545 -65.85864899 459.73938171 -64.95405579 459.73150635 C-62.53222656 459.75276184 -62.53222656 459.75276184 -58.6986084 460.12698364 C-56.53003906 463.37983764 -56.44556135 464.30471167 -56.42736816 468.06643677 C-56.41208824 469.57445862 -56.41208824 469.57445862 -56.39649963 471.11294556 C-56.39435959 472.20039062 -56.39221954 473.28783569 -56.39001465 474.40823364 C-56.36483461 476.71813178 -56.33943691 479.02802756 -56.31384277 481.33792114 C-56.28521687 484.97365595 -56.26120002 488.60934921 -56.24230957 492.24514771 C-56.22049165 495.75807201 -56.18101794 499.27048821 -56.14001465 502.78323364 C-56.13984093 504.39011047 -56.13984093 504.39011047 -56.1396637 506.02944946 C-55.9568437 520.15427799 -51.57077132 531.04675736 -41.9486084 541.43948364 C-33.22506961 549.67274603 -22.76816864 553.4524442 -10.88943481 553.38869667 C-10.14238476 553.39269273 -9.39533471 553.3966888 -8.62564677 553.40080595 C-6.1324838 553.4117396 -3.63954428 553.40858471 -1.1463623 553.40545654 C0.66308243 553.4104617 2.47252494 553.41633815 4.2819643 553.42300928 C9.24638875 553.43879657 14.21075657 553.44223926 19.17520308 553.44365788 C24.53163877 553.44735412 29.88804349 553.46251075 35.24446106 553.47627258 C44.52225418 553.49854213 53.80003628 553.51355727 63.07785034 553.52363968 C76.49199495 553.53822763 89.90610115 553.56376482 103.32022321 553.59197097 C125.08395537 553.63743681 146.84769306 553.67405249 168.6114502 553.70510864 C189.75241059 553.73529502 210.89335747 553.76964572 232.03430176 553.80960083 C233.33751704 553.81206238 234.64073232 553.81452393 235.98343897 553.81706007 C242.52131316 553.82943469 249.0591872 553.84189122 255.59706116 553.85438848 C309.83181908 553.95795317 364.0665939 554.04715747 418.3013916 554.12698364 C418.28828437 501.49669958 418.24895424 448.86649113 418.17453598 396.23625609 C418.1657694 390.02047021 418.15721956 383.80468406 418.14880371 377.58889771 C418.14712465 376.35146492 418.14544559 375.11403214 418.14371564 373.83910139 C418.11705773 353.81202285 418.10795142 333.78497293 418.10535017 313.75787847 C418.10228896 293.20284531 418.08032276 272.6478948 418.04086703 252.09289896 C418.01712165 239.41295275 418.00806008 226.7331716 418.0178785 214.05320622 C418.02320091 205.35392075 418.01013296 196.65478299 417.9827287 187.95553957 C417.96746526 182.93913808 417.96019033 177.92306725 417.97479439 172.90665627 C417.98800618 168.30676909 417.97793339 163.70752082 417.94995388 159.10770519 C417.94387512 157.45067941 417.94607357 155.79359624 417.95776234 154.13660054 C418.05261583 139.53875569 415.2447192 125.52002453 405.3013916 114.12698364 C394.76072392 104.5865253 383.77604553 100.01065978 369.49023247 99.99555588 C368.82675045 99.99350324 368.16326843 99.99145061 367.4796809 99.98933578 C365.25868241 99.98368588 363.03774633 99.98512053 360.81674194 99.98654175 C359.20731826 99.98395696 357.59789522 99.98094348 355.98847306 99.97753835 C351.56717793 99.96947846 347.14589905 99.96767934 342.72459745 99.96694088 C337.95550826 99.96508856 333.18642747 99.95754032 328.41734314 99.95080566 C317.98954048 99.93722893 307.56174167 99.93119863 297.13393164 99.92679501 C290.62136218 99.92403143 284.1087942 99.91979386 277.59622574 99.91529083 C259.56086508 99.90309896 241.52550561 99.89279953 223.49014091 99.88941574 C222.33603439 99.88919617 221.18192786 99.88897661 219.9928484 99.88875039 C218.83599785 99.88853211 217.6791473 99.88831383 216.48724067 99.88808894 C214.14306442 99.88764548 211.79888817 99.88719891 209.45471191 99.88674927 C207.71052745 99.88641712 207.71052745 99.88641712 205.93110694 99.88607827 C187.09288594 99.88213088 168.25470363 99.86467827 149.41649757 99.84138975 C130.07043584 99.81766666 110.72439351 99.80521345 91.378317 99.80404782 C80.51831207 99.8031316 69.65835757 99.79739241 58.79836655 99.77922821 C49.55020602 99.76381432 40.30211151 99.75871438 31.05394058 99.76696631 C26.33754192 99.77086825 21.62127612 99.76996549 16.90489388 99.75590897 C12.5818399 99.74314282 8.25901826 99.74439131 3.93596448 99.75649968 C2.37739197 99.75845198 0.81880285 99.75539994 -0.73974635 99.74665532 C-16.35464712 99.66463601 -31.0954208 102.24188852 -43.00720215 113.17776489 C-54.32421112 126.2197683 -56.14802142 139.14017055 -56.09924316 155.75393677 C-56.10499321 157.52554791 -56.11207905 159.29715514 -56.12039185 161.0687561 C-56.1354414 164.86534761 -56.14128478 168.66179907 -56.13986397 172.4584198 C-56.13782384 178.45833096 -56.15743687 184.45805445 -56.18003845 190.45791626 C-56.22091895 202.09858881 -56.23960827 213.73924623 -56.25621033 225.37997437 C-56.27860619 240.22654726 -56.31199883 255.07307674 -56.36340946 269.91957808 C-56.38336606 275.8884806 -56.39291325 281.857284 -56.39436162 287.82621861 C-56.39710319 291.52798593 -56.4079127 295.22969798 -56.42087173 298.93144226 C-56.42516662 300.65281668 -56.42600125 302.37420357 -56.42319679 304.09558105 C-56.41981798 306.43727287 -56.42852717 308.7786127 -56.44032288 311.12026978 C-56.44195718 312.4328199 -56.44359148 313.74537003 -56.44527531 315.0976944 C-56.6986084 318.12698364 -56.6986084 318.12698364 -58.6986084 320.12698364 C-61.73672331 320.3206602 -64.68338746 320.3891149 -67.72229004 320.36990356 C-69.12483284 320.37275108 -69.12483284 320.37275108 -70.55570984 320.37565613 C-73.65681248 320.37937109 -76.7576827 320.3686502 -79.85876465 320.35745239 C-82.00585401 320.35626098 -84.15294389 320.35580735 -86.30003357 320.35606384 C-90.80344904 320.35449778 -95.30678515 320.34619813 -99.81018066 320.33279419 C-105.59666359 320.31579398 -111.38305928 320.31198006 -117.16956425 320.31273937 C-121.60376323 320.31246809 -126.03794295 320.30699381 -130.47213554 320.29973793 C-132.60648897 320.29654518 -134.74084459 320.29458245 -136.87520027 320.29384422 C-139.85161215 320.29168764 -142.82792954 320.28295855 -145.80432129 320.27224731 C-147.14072159 320.27292709 -147.14072159 320.27292709 -148.50411987 320.27362061 C-154.5841344 320.24145765 -154.5841344 320.24145765 -155.6986084 319.12698364 C-155.80071964 316.71505885 -155.83748435 314.3316181 -155.83232117 311.91903687 C-155.83458672 311.1555634 -155.83685228 310.39208993 -155.83918649 309.60548091 C-155.84555604 307.02702146 -155.84469521 304.44861419 -155.84387207 301.87014771 C-155.84686199 300.02904695 -155.85026413 298.18794682 -155.85404968 296.34684753 C-155.8629175 291.32759557 -155.86522914 286.30836064 -155.86586547 281.2891016 C-155.86681353 277.09752622 -155.87049119 272.90595483 -155.87403756 268.71438098 C-155.882195 258.81496654 -155.88462088 248.91556121 -155.88391113 239.0161438 C-155.88331208 228.82065911 -155.89382629 218.62522764 -155.9096548 208.4297564 C-155.92276438 199.67206584 -155.9280935 190.91439256 -155.92745572 182.15669227 C-155.92720145 176.92875538 -155.9300124 171.70086562 -155.94063377 166.47293854 C-155.95037062 161.54491728 -155.95035588 156.61698757 -155.94311714 151.68896294 C-155.94207775 149.88835706 -155.94439546 148.08774533 -155.9504776 146.28714943 C-155.99316313 132.76421004 -154.97758434 120.1127434 -150.8861084 107.12698364 C-150.48754639 105.8409021 -150.48754639 105.8409021 -150.08093262 104.52883911 C-143.53435956 83.69028609 -133.66279313 65.30398197 -118.68688965 49.26760864 C-117.08001624 47.53761526 -115.59415714 45.79252218 -114.1361084 43.93948364 C-107.71904873 36.53518402 -99.62428773 30.80864533 -91.6986084 25.12698364 C-90.64931152 24.37030396 -89.60001465 23.61362427 -88.5189209 22.83401489 C-62.36366721 4.65634753 -31.05755953 -0.0485643 0 0 Z " fill="#1F366B" transform="translate(501.6986083984375,130.87301635742188)"/>
<path d="M0 0 C1.95014546 -0.00701996 1.95014546 -0.00701996 3.93968779 -0.01418173 C7.50068978 -0.0265573 11.06144662 -0.02058375 14.6224488 -0.01122308 C18.48143879 -0.00437688 22.34038943 -0.01494119 26.19937134 -0.02316284 C33.74059462 -0.03644388 41.2817279 -0.03364758 48.82295459 -0.02492492 C54.95709684 -0.01812598 61.09121402 -0.01724117 67.22535896 -0.02049637 C68.10127192 -0.02095607 68.97718488 -0.02141577 69.87964066 -0.0218894 C71.65953195 -0.02284866 73.43942324 -0.0238213 75.21931452 -0.02480717 C91.87680373 -0.0333447 108.53424325 -0.02355295 125.19172431 -0.00740607 C139.45584909 0.00599326 153.71990059 0.003669 167.98402405 -0.01016235 C184.5838609 -0.02625123 201.1836543 -0.03251842 217.78349787 -0.02332556 C219.55683266 -0.02237001 221.33016747 -0.02142689 223.10350227 -0.02049637 C224.41196856 -0.01980213 224.41196856 -0.01980213 225.7468685 -0.01909386 C231.86653405 -0.0165137 237.98617181 -0.02085391 244.10583305 -0.02793503 C251.57392644 -0.03638719 259.04192534 -0.03399244 266.51000803 -0.0180928 C270.31357274 -0.01025937 274.11698046 -0.0070332 277.92054367 -0.01704025 C296.39374845 -0.06157798 313.52545607 0.13272383 330.9188385 7.06845093 C331.80748596 7.41657837 332.69613342 7.76470581 333.61170959 8.12338257 C360.00343254 18.79089683 381.43817746 40.60323462 393.2313385 66.38095093 C401.1735678 85.77487349 402.38980614 104.49520794 402.39930725 125.23251343 C402.40252933 126.90686063 402.40589408 128.58120756 402.40939331 130.2555542 C402.41532766 133.7330694 402.41723861 137.21055994 402.41664124 140.68807983 C402.41653871 145.14221346 402.43030801 149.59619089 402.44741344 154.05028725 C402.45851563 157.49378185 402.46056117 160.93723807 402.46003151 164.38074875 C402.46120979 166.0241895 402.46562305 167.66763129 402.47336388 169.31105423 C402.48314877 171.59830203 402.48029428 173.88520158 402.47425842 176.17245483 C402.47568344 177.47147736 402.47710846 178.77049988 402.47857666 180.10888672 C402.2483991 183.15516303 401.84817124 184.83709667 400.2313385 187.38095093 C389.25250261 187.55811881 378.27355966 187.72406028 367.29434013 187.8757267 C362.19608862 187.94650532 357.09795422 188.02112954 351.99989319 188.10458374 C347.07871956 188.18500015 342.15749553 188.25526072 337.23607254 188.31852341 C335.35978491 188.34441908 333.48354383 188.37395534 331.60737228 188.40721512 C328.97668777 188.45322466 326.34613442 188.48621146 323.71522522 188.51620483 C322.9419841 188.53274612 322.16874298 188.54928741 321.37207031 188.56632996 C316.92857711 188.60112376 313.34120089 188.09167242 309.2313385 186.38095093 C307.42815507 184.5777675 308.10635428 181.82853775 308.10536194 179.39926147 C308.10155518 178.11669968 308.09774841 176.83413788 308.09382629 175.51271057 C308.09363243 174.82181021 308.09343857 174.13090984 308.09323883 173.4190731 C308.08982231 170.50843473 308.06844219 167.59801948 308.04800797 164.68745899 C308.01006684 159.26812435 307.97870434 153.84901743 307.98085022 148.42953491 C307.98164445 144.66086923 307.95796279 140.89300705 307.9189682 137.12455177 C307.9086016 135.69709717 307.90691431 134.2695487 307.91461945 132.84207726 C307.9662006 122.21177266 306.73043596 112.77986787 299.7313385 104.38095093 C298.4938385 103.39095093 298.4938385 103.39095093 297.2313385 102.38095093 C296.148526 101.36001343 296.148526 101.36001343 295.0438385 100.31845093 C287.38159544 95.04001682 279.91868345 93.79317599 270.77664185 93.87301636 C269.66513258 93.86677639 268.55362331 93.86053643 267.40843195 93.85410738 C263.70603341 93.83822842 260.00429788 93.85076235 256.30189514 93.8633728 C253.63847958 93.85794939 250.97510877 93.85096949 248.31170654 93.84213257 C241.84160085 93.82439404 235.37168131 93.82816655 228.90156848 93.83978313 C223.64015817 93.84883642 218.37879983 93.85003328 213.11738396 93.84568787 C211.99183285 93.84476847 211.99183285 93.84476847 210.84354333 93.8438305 C209.3189177 93.84255152 207.79429209 93.84125467 206.26966649 93.83994013 C191.99011874 93.8285478 177.7106739 93.84162643 163.43114304 93.8631416 C151.19497502 93.88100772 138.95895885 93.8779099 126.72279358 93.85946655 C112.49402778 93.83802966 98.26535209 93.82965016 84.0365724 93.84191561 C82.51741788 93.84318972 80.99826335 93.84444721 79.47910881 93.84568787 C78.73176853 93.84630497 77.98442825 93.84692207 77.21444129 93.84755787 C71.96360792 93.8510026 66.71283199 93.84520133 61.46200752 93.83576965 C55.05677845 93.82451673 48.65174528 93.82765835 42.24653847 93.84889263 C38.98227397 93.85935973 35.71840041 93.86142366 32.45412827 93.85029602 C28.90676959 93.83932062 25.36032 93.85312988 21.8130188 93.87301636 C20.79354332 93.86409347 19.77406783 93.85517058 18.72369915 93.84597731 C10.17827385 93.93851838 0.63450543 96.02719094 -6.15005398 101.59469414 C-16.94696374 113.50990714 -15.77739399 128.05308354 -15.66566384 143.18516469 C-15.64759556 146.68469344 -15.67029549 150.1840033 -15.68778992 153.6835022 C-15.71256387 159.73154307 -15.71208964 165.77914691 -15.69396782 171.82720566 C-15.66780498 180.57135175 -15.68049469 189.31511061 -15.70235915 198.05925287 C-15.73679987 212.249379 -15.74026064 226.4393341 -15.72398376 240.62948608 C-15.70824877 254.40557093 -15.70726278 268.18152805 -15.72593689 281.95761108 C-15.72708482 282.80821369 -15.72823275 283.6588163 -15.72941547 284.53519474 C-15.7352653 288.8028506 -15.74140323 293.07050599 -15.74768436 297.33816123 C-15.79933689 332.68580068 -15.80060442 368.03329187 -15.7686615 403.38095093 C21.51497716 403.42674554 58.79861157 403.46197886 96.08227267 403.48308159 C100.48563971 403.48558295 104.8890067 403.4881716 109.29237366 403.49081421 C110.1689913 403.49133883 111.04560893 403.49186345 111.94879074 403.49240397 C126.13606928 403.50110257 140.32333158 403.51686954 154.51060049 403.53525652 C169.07198756 403.55397073 183.63336613 403.56507087 198.19476473 403.56912792 C207.17727431 403.57186982 216.159738 403.5805247 225.14223345 403.59678386 C231.30490849 403.60736951 237.46755987 403.61054797 243.63024335 403.60795368 C247.18383125 403.60667485 250.73733903 403.60861197 254.29091263 403.61936188 C258.14977654 403.63094962 262.008537 403.62691377 265.86741638 403.62145996 C266.98222677 403.62728564 268.09703715 403.63311133 269.24562967 403.63911355 C281.20508409 403.59349823 289.58917394 401.78736394 298.9188385 394.19345093 C305.8168586 385.80396703 307.35046477 377.51256647 307.47743225 366.99423218 C307.51034095 365.15112794 307.54355305 363.3080291 307.57704163 361.4649353 C307.6246281 358.56807817 307.66913747 355.67124741 307.70814514 352.77426147 C307.74770853 349.97236783 307.79925436 347.17089576 307.85243225 344.36923218 C307.86084641 343.49841507 307.86926056 342.62759796 307.87792969 341.73039246 C308.00457459 335.60771484 308.00457459 335.60771484 310.2313385 333.38095093 C313.01086113 333.17182628 315.69155958 333.08730883 318.47303772 333.09042358 C319.32521881 333.08370636 320.1773999 333.07698914 321.05540466 333.07006836 C323.8823372 333.05101638 326.7090332 333.04716046 329.536026 333.04501343 C331.49656778 333.03859016 333.45710858 333.03186216 335.41764832 333.02484131 C339.53183719 333.01285028 343.64594198 333.00916232 347.76014709 333.01034546 C353.03535736 333.01054867 358.31002902 332.98325218 363.58511162 332.94880104 C367.63599631 332.9265759 371.68675054 332.92250658 375.73768997 332.92356491 C377.68258138 332.92120211 379.62747603 332.91234059 381.57230759 332.89690018 C384.29220642 332.87733009 387.01093299 332.88304277 389.73085022 332.89511108 C390.53619202 332.88387207 391.34153381 332.87263306 392.17127991 332.86105347 C395.64552666 332.90027724 397.82707656 333.10578149 400.73225403 335.08325195 C402.53040257 337.83933684 402.72732521 339.35479632 402.71717834 342.62997437 C402.7233316 343.67917053 402.72948486 344.7283667 402.73582458 345.80935669 C402.71426804 347.50768646 402.71426804 347.50768646 402.692276 349.24032593 C402.69135956 350.41750183 402.69044312 351.59467773 402.6894989 352.80752563 C402.68345237 355.30583715 402.66767515 357.80414107 402.64295959 360.30233765 C402.60687447 364.07491679 402.6019376 367.84649991 402.60243225 371.61923218 C402.5655693 384.02117428 402.27031396 396.13262368 400.2313385 408.38095093 C399.99121033 409.98921753 399.99121033 409.98921753 399.74623108 411.62997437 C397.06604358 428.29833957 387.26737889 444.8783271 376.2313385 457.38095093 C375.49657288 458.23946655 374.76180725 459.09798218 374.004776 459.98251343 C372.11567985 462.15462024 370.20658683 464.28710591 368.2313385 466.38095093 C367.48110413 467.17888062 366.73086975 467.9768103 365.957901 468.79891968 C351.72716119 482.27530795 333.14258706 490.94903147 314.2313385 495.38095093 C313.49775043 495.55501398 312.76416236 495.72907703 312.00834435 495.90841472 C303.43803047 497.7062736 294.97356133 497.65469786 286.26742554 497.62145996 C284.55851353 497.62233326 282.84960179 497.62408652 281.14069146 497.62663829 C276.46806122 497.63109146 271.79552338 497.62313618 267.1229049 497.61308217 C262.07533477 497.60442059 257.02776957 497.60736975 251.98019409 497.60888672 C243.24264612 497.60993386 234.5051281 497.60367513 225.76758766 497.59241104 C213.13467691 497.57613582 200.5017806 497.57094596 187.86886051 497.56843506 C167.3712701 497.56406113 146.87369564 497.55076022 126.37611389 497.53182983 C106.4682371 497.51346322 86.56036464 497.49931054 66.65248108 497.49081421 C65.42472886 497.49028876 64.19697664 497.48976332 62.93201981 497.48922195 C56.77255946 497.48661181 50.61309907 497.48408441 44.45363867 497.48159814 C-6.6204724 497.46087505 -57.69456617 497.42565774 -108.7686615 497.38095093 C-110.29680355 492.60980629 -111.01850055 488.61500719 -111.01755047 483.55885887 C-111.02015775 482.90634122 -111.02276504 482.25382357 -111.02545133 481.58153266 C-111.03172758 479.40376281 -111.02380305 477.226284 -111.01589966 475.04852295 C-111.01748865 473.46782214 -111.01995314 471.88712202 -111.02321607 470.30642378 C-111.02962316 465.96909968 -111.02356626 461.63186908 -111.01545179 457.29455113 C-111.0088692 452.61407885 -111.0138246 447.93361693 -111.01733398 443.25314331 C-111.02237521 434.08488771 -111.01673469 424.91666818 -111.00748368 415.74841706 C-110.99709374 405.06666643 -110.99717006 394.38492357 -110.99765626 383.70316882 C-110.99815694 364.63693364 -110.9889952 345.57071522 -110.97447205 326.50448608 C-110.96039646 308.01620172 -110.95330078 289.52793213 -110.95396423 271.03964233 C-110.95400419 269.90182534 -110.95404415 268.76400834 -110.95408531 267.59171204 C-110.95412567 266.45583911 -110.95416602 265.31996619 -110.9542076 264.14967287 C-110.95489838 243.09146493 -110.94900045 222.03326326 -110.94005438 200.97505736 C-110.93704322 193.5356111 -110.93597542 186.096166 -110.93552208 178.65671921 C-110.93483824 169.58136668 -110.93035015 160.50602469 -110.92118927 151.43067662 C-110.91658772 146.80330493 -110.91351967 142.17594667 -110.91478348 137.54857254 C-110.91588601 133.30575671 -110.91231475 129.06297049 -110.90513495 124.82016082 C-110.90333568 123.29188614 -110.90317745 121.76360837 -110.90490224 120.23533361 C-110.94029712 84.94304197 -100.90806927 56.66673579 -76.354599 30.84188843 C-73.56280499 28.18504519 -70.63750891 25.78283172 -67.5811615 23.44345093 C-67.06747009 23.03932983 -66.55377869 22.63520874 -66.02452087 22.21884155 C-58.02470195 16.06140517 -49.41018416 11.49069131 -40.0811615 7.69345093 C-39.20266541 7.31640015 -38.32416931 6.93934937 -37.41905212 6.5508728 C-25.25224652 1.5533247 -13.06080885 -0.07390207 0 0 Z " fill="#1F366B" transform="translate(262.76866149902344,474.6190490722656)"/>
</svg>
