<svg width="460" height="122" viewBox="0 0 460 122" fill="none" xmlns="http://www.w3.org/2000/svg">
<g clip-path="url(#clip0_3115_523)">
<path d="M72.6252 37.0866L108.938 0.882324H36.3126V37.0866V73.2909L0 109.495H72.6252V73.2909V37.0866Z" fill="#2B2764"/>
<path d="M72.6251 37.0866V73.2909H108.938V0.882324L72.6251 37.0866Z" fill="#08AF9B"/>
<path d="M0 109.495L36.3126 73.291V37.0867H0V109.495Z" fill="#08AF9B"/>
<path d="M244.835 49.4976H237.424V56.8858H244.835V49.4976Z" fill="#757D91"/>
<path d="M232.851 49.4976H225.441V56.8858H232.851V49.4976Z" fill="#757D91"/>
<path d="M210.62 31.1897C210.62 26.8527 209.777 22.9443 207.542 20.5787C204.894 17.7845 201.146 16.6188 196.366 16.6188H181.425V12.9675H174.514V42.9149H163.458C160.329 42.9149 157.183 42.4349 155.377 40.9093C153.727 39.5379 153.159 37.258 153.159 34.1553V18.6245H145.078V35.0467C145.078 39.3322 146.041 43.5492 148.62 45.9834C151.853 49.0518 155.962 50.3204 162.272 50.3204H181.425V43.7206H210.62V31.1897ZM203.209 36.3152H181.443V23.9557H197.14C199.049 23.9557 200.888 24.8471 201.8 26.0127C202.762 27.2298 203.227 28.7555 203.227 30.864V36.298L203.209 36.3152Z" fill="#757D91"/>
<path d="M248.325 13.9618H240.897V36.3152H226.008V0.882324H218.598V43.7206H248.325V13.9618Z" fill="#757D91"/>
<path d="M301.264 0.882324H293.853V43.7206H301.264V0.882324Z" fill="#757D91"/>
<path d="M197.312 3.26514H189.936V10.6191H197.312V3.26514Z" fill="#757D91"/>
<path d="M437.264 0.882324H429.854V8.37346H437.264V0.882324Z" fill="#757D91"/>
<path d="M459.426 49.549H452.016V56.9372H459.426V49.549Z" fill="#757D91"/>
<path d="M339.433 43.7206H459.461V14.0132H452.05V36.3667H437.281V14.0132H429.871V36.3667H390.309L390.24 0.882324H382.829L382.898 36.3667H340.774C337.645 36.3667 334.688 35.8867 332.882 34.361C331.232 32.9896 330.665 30.7097 330.665 27.607V18.4874H322.463V28.5155C322.463 32.8011 323.409 37.0181 326.005 39.4522C329.237 42.5207 333.158 43.7378 339.468 43.7378L339.433 43.7206Z" fill="#757D91"/>
<path d="M364.57 21.6244H356.747V18.6588C356.747 17.5446 357.005 16.6875 357.503 16.0875C357.968 15.5218 358.535 15.2647 359.274 15.2647H363.366V10.9791H359.739C357.4 10.9791 355.578 11.7162 354.306 13.1733C353.068 14.579 352.449 16.636 352.449 19.2759V25.9271H364.587V21.6416L364.57 21.6244Z" fill="#757D91"/>
<path d="M263.644 43.7206H285.893V0.882324H278.482V36.3152H263.713V13.9618H256.286V42.7607C256.286 46.412 255.288 47.9376 252.314 47.9376C251.386 47.9376 250.526 47.8519 249.477 47.6119V54.8802C250.388 55.1202 251.798 55.3259 253.122 55.3259C260.12 55.3259 263.249 51.846 263.662 43.7206H263.644Z" fill="#757D91"/>
<path d="M178.76 77.8164C178.76 70.8224 173.98 64.1027 162.151 64.1027H145.095V109.495H153.176V91.5816H161.206L172.313 109.495H181.408L169.51 90.4673C176.302 88.2217 178.777 83.0276 178.777 77.8164H178.76ZM160.346 84.5876H153.159V71.6109H160.346C167.017 71.6109 170.232 73.4623 170.232 77.9878C170.232 83.2505 166.295 84.5876 160.346 84.5876Z" fill="#757D91"/>
<path d="M252.899 78.6736C248.789 78.6736 244.783 79.7193 242.411 80.8849L241.465 88.3932C244.353 86.9704 248.841 85.7704 251.901 85.7704C255.959 85.7704 258.744 86.7133 258.744 90.0731V90.4845C256.526 90.176 254.532 90.0731 252.95 90.0731C244.886 90.0731 239.144 93.4844 239.144 100.101C239.144 107.352 245.78 109.924 253.208 109.924C257.575 109.924 262.372 109.084 266.12 107.61V90.3817C266.12 81.7763 260.532 78.6736 252.899 78.6736ZM258.744 102.467C257.163 102.998 255.168 103.307 253.311 103.307C249.683 103.307 246.829 102.364 246.829 99.6385C246.829 96.9129 249.993 95.8501 253.724 95.8501C255.357 95.8501 257.352 96.1072 258.727 96.4843V102.467H258.744Z" fill="#757D91"/>
<path d="M293.905 79.1022C291.91 78.845 290.105 78.6736 288.798 78.6736C278.689 78.6736 272.052 85.5476 272.052 94.3759C272.052 103.204 278.431 109.924 289.383 109.924C293.647 109.924 297.653 109.392 301.281 108.398V66.7084H293.905V79.1022ZM293.905 102.158C292.272 102.518 290.741 102.741 289.314 102.741C283.52 102.741 279.789 100.118 279.789 94.393C279.789 88.6675 283.52 85.8905 289.314 85.8905C290.638 85.8905 292.1 86.0448 293.905 86.5247V102.176V102.158Z" fill="#757D91"/>
<path d="M225.441 101.421C223.274 102.056 221.486 102.21 219.904 102.21C215.795 102.21 214.059 100.581 214.059 95.1644V79.6678H206.631V97.2557C206.631 106.975 211.995 109.392 219.543 109.392C221.435 109.392 223.446 109.187 225.441 108.758V109.392C225.441 112.855 222.225 114.329 217.704 114.329C215.537 114.329 212.425 113.798 209.76 113.009V120.038C212.116 120.638 215.348 121.101 217.377 121.101C229.12 121.101 232.817 117.484 232.817 107.027V79.6678H225.441V101.404V101.421Z" fill="#757D91"/>
<path d="M377.07 78.6736C372.96 78.6736 368.954 79.7193 366.582 80.8849L365.636 88.3932C368.524 86.9704 373.012 85.7704 376.072 85.7704C380.13 85.7704 382.915 86.7133 382.915 90.0731V90.4845C380.697 90.176 378.703 90.0731 377.121 90.0731C369.057 90.0731 363.315 93.4844 363.315 100.101C363.315 107.352 369.952 109.924 377.379 109.924C381.746 109.924 386.543 109.084 390.291 107.61V90.3817C390.291 81.7763 384.703 78.6736 377.07 78.6736ZM382.915 102.467C381.334 102.998 379.339 103.307 377.499 103.307C373.872 103.307 371.017 102.364 371.017 99.6385C371.017 96.9129 374.181 95.8501 377.912 95.8501C379.545 95.8501 381.54 96.1072 382.915 96.4843V102.467Z" fill="#757D91"/>
<path d="M409.634 78.8793C406.419 78.8793 400.883 79.565 396.309 80.405V109.495H403.685V86.6447C405.8 86.2847 407.743 86.0619 409.325 86.0619C413.692 86.0619 415.961 87.6904 415.961 93.0902V109.478H423.337V90.9988C423.337 81.2792 417.234 78.8622 409.651 78.8622L409.634 78.8793Z" fill="#757D91"/>
<path d="M445.362 94.5815L458.842 79.925H450.107L436.731 94.4787V66.9141H429.355V109.495H436.731V94.9072L450.692 109.495H459.529L445.362 94.5815Z" fill="#757D91"/>
<path d="M348.597 85.1019C352.913 83.1991 354.942 79.3421 354.942 75.5366C354.942 69.1597 349.835 64.1199 338.487 64.1199H322.498V109.512H340.74C349.044 109.512 357.297 105.707 357.297 96.1929C357.297 91.5988 354.718 86.9533 348.597 85.1191V85.1019ZM330.578 71.611H337.989C344.161 71.611 346.568 73.7881 346.568 76.9251C346.568 80.6107 343.938 82.4106 337.989 82.4106H330.578V71.611ZM339.605 102.004H330.578V89.9703H339.382C345.33 89.9703 348.924 91.256 348.924 96.0215C348.924 100.17 345.949 102.004 339.605 102.004Z" fill="#757D91"/>
<path d="M197.312 79.9249H189.936V109.495H197.312V79.9249Z" fill="#757D91"/>
<path d="M197.312 66.6741H189.936V74.0281H197.312V66.6741Z" fill="#757D91"/>
</g>
<defs>
<clipPath id="clip0_3115_523">
<rect width="459.529" height="120.235" fill="white" transform="translate(0 0.882324)"/>
</clipPath>
</defs>
</svg>
