<svg width="210" height="210" xmlns="http://www.w3.org/2000/svg" version="1.1">
 <defs>
  <clipPath id="clip1">
   <path id="svg_1" d="m-1.27637,-0.00391l211.44922,0l0,210.5l-211.44922,0l0,-210.5zm0,0"/>
  </clipPath>
 </defs>
 <g>
  <title>Layer 1</title>
  <g id="svg_86">
   <path stroke="null" id="svg_61" fill="rgb(13.330078%,40.795898%,25.87738%)" fill-rule="nonzero" d="m81.48253,138.52734l-1.85258,0c0.0585,-2.38672 1.85258,-2.27734 1.85258,-2.27734l0,2.27734zm3.68177,-13.04297c-1.70438,1.30078 -3.41655,2.59766 -5.28473,3.64844c0.44071,0.50391 0.90874,1.00781 1.36506,1.51172c0,0.57422 0.0039,1.15625 0.01561,1.73828c-1.50547,0.5625 -3.31905,0.92969 -4.1966,2.41797c-1.20905,2.03906 -0.78004,4.5 -0.89703,6.7539c3.00314,0.00782 5.99847,0.02344 9.00161,-0.0039c-0.0234,-5.35938 -0.0936,-10.71094 -0.0039,-16.06641"/>
   <path stroke="null" id="svg_62" fill="rgb(13.330078%,40.795898%,25.87738%)" fill-rule="nonzero" d="m128.24958,138.91015c-0.92434,0 -1.67318,-0.75 -1.67318,-1.67578c0,-0.92578 0.74883,-1.67578 1.67318,-1.67578c0.92434,0 1.67318,0.75 1.67318,1.67578c0,0.92578 -0.74883,1.67578 -1.67318,1.67578m4.97662,-2.95312c-0.93604,-1.76563 -2.37911,-3.77344 -4.60221,-3.73047c-1.70048,-0.14063 -3.08894,1.09375 -4.08739,2.32031c-1.28706,2.08594 -1.57957,4.62891 -1.25976,7.01953c1.72778,0.41016 3.63887,-0.05859 5.44075,0.20703c-0.64353,2.89844 -3.95869,3.32032 -6.4236,2.9961c0.03511,0.25781 0.10531,0.77734 0.14041,1.03515c1.34557,0.55469 2.73793,1.04297 4.19269,1.23829c5.24964,0.02734 9.08351,-6.47657 6.5991,-11.08594"/>
   <path stroke="null" id="svg_63" fill="rgb(13.330078%,40.795898%,25.87738%)" fill-rule="nonzero" d="m109.55602,128.6289l-3.77147,0l8.41269,9.19922l-7.50395,0l0,-0.08203c0.00781,-0.33984 -0.0312,-0.66797 -0.0897,-0.98828c0.0078,0.08984 0.0195,0.17969 0.0195,0.26953l-0.0507,-0.35937c0.0078,0.02734 0.0195,0.05859 0.0312,0.08984c-0.0234,-0.12891 -0.0234,-0.25 -0.0429,-0.37109c-0.30811,-2.17969 -2.1451,-3.84766 -4.3916,-3.89063c-0.0195,-0.01172 -0.0507,-0.01172 -0.0819,-0.01172l-9.42283,0c-0.49922,-0.45703 -1.01015,-0.92578 -1.50937,-1.36719c-1.04915,1.86719 -2.344,3.58985 -3.64276,5.28907c0.83853,-0.00782 1.93449,-0.01953 3.17474,-0.02735c0.64743,0 1.31827,-0.01172 2.0437,-0.01172l9.47744,0l0,1.46094l-14.69588,0l0,3.72266l2.72232,0c8.18648,0.04687 18.91977,-0.00391 27.38316,0.0039l1.14666,1.27344l3.74417,0l-11.35343,-13.46094c-0.40171,-0.46875 -0.99064,-0.73828 -1.59907,-0.73828"/>
   <path stroke="null" id="svg_64" fill="rgb(13.330078%,40.795898%,25.87738%)" fill-rule="nonzero" d="m128.6942,88.10547l-2.90564,0l0,-1.91016l0.79955,-1l1.30656,0l0.79954,1l0,1.91016zm3.68177,-2.95313c-0.25741,-0.78516 -0.90484,-1.34375 -1.31046,-2.04297c0.43292,-0.99609 1.54837,-1.71875 1.41577,-2.92969c-0.0039,-0.61718 -0.0117,-1.23437 -0.01561,-1.84765c0.0234,-2.17969 -0.0195,-4.35938 -0.00389,-6.53906c0.00389,-0.60157 0.00389,-1.19922 0.0234,-1.79297c0.16381,-0.08594 0.39781,-0.20313 0.64353,-0.32813c0.1521,-0.07812 0.30421,-0.15234 0.45242,-0.22656c0.03511,-0.01953 0.0702,-0.03516 0.1014,-0.05469c0.10921,-0.05469 0.21061,-0.10547 0.28862,-0.14453c-0.52263,-0.39844 -1.01405,-0.83594 -1.48207,-1.28906c-0.41342,-0.39453 -0.80733,-0.8086 -1.19736,-1.22656c-0.27691,-0.29688 -0.55382,-0.59766 -0.83074,-0.89844c-0.2028,-0.22656 -0.40951,-0.44922 -0.61623,-0.66797c-0.40171,-0.43359 -0.80733,-0.86328 -1.23245,-1.27344c-0.0195,1.66016 -0.0312,3.32422 -0.0429,4.98828c0.0039,0.96875 0.0078,1.94141 0.0078,2.91407c0.0039,1.30078 0.00781,2.60156 0.0039,3.90234c-0.0273,0.89453 0.039,1.88672 0,2.85547c-0.0312,0.76562 -0.12481,1.51562 -0.39002,2.1914c-0.1209,0.00782 -0.26911,0.00782 -0.42512,0.00391l-0.0195,0c-0.16381,-0.00391 -0.33931,-0.00781 -0.50312,-0.00781l0,0.00781c-0.46802,0.00391 -0.85804,0 -0.95165,-0.00391c-0.26521,-0.67578 -0.35881,-1.42578 -0.39001,-2.1914c-0.03901,-0.96875 0.0273,-1.96094 0,-2.85547c-0.0039,-1.30078 0,-2.60156 0.00389,-3.90234c0,-0.97266 0.0039,-1.94532 0.0078,-2.91407c-0.01169,-1.66406 -0.0273,-3.32812 -0.04289,-4.98828c-0.42513,0.41016 -0.83075,0.83985 -1.23246,1.27344c-0.20671,0.21875 -0.41342,0.44141 -0.61623,0.66797c-0.27691,0.30078 -0.55382,0.60156 -0.83074,0.89844c-0.39001,0.41796 -0.78393,0.83203 -1.19736,1.22656c-0.46802,0.45312 -0.95944,0.89062 -1.48206,1.28906c0.078,0.03906 0.17941,0.08984 0.28861,0.14453c0.0312,0.01953 0.06631,0.03516 0.1014,0.05469c0.14821,0.07422 0.30031,0.14844 0.45243,0.22656c0.24181,0.125 0.47972,0.24219 0.64353,0.32813c0.0156,0.59375 0.0195,1.1914 0.0234,1.79297c0.0156,2.17968 -0.02731,4.35937 -0.0039,6.53906c-0.0039,0.61328 -0.0117,1.23047 -0.0156,1.84765c-0.13261,1.21094 0.97894,1.9336 1.41576,2.92969c-0.40562,0.69922 -1.05304,1.25781 -1.31046,2.04297c-0.17551,2.14844 0.00781,4.30469 -0.1092,6.45313l10.48759,0c-0.11701,-2.14844 0.0624,-4.30469 -0.10921,-6.45313"/>
   <path stroke="null" id="svg_65" fill="rgb(13.330078%,40.795898%,25.87738%)" fill-rule="nonzero" d="m115.60521,72.22265c-0.17941,-1.35547 1.09594,-2.12109 1.83698,-3.04297c-1.37677,-0.73046 -2.78473,-1.5625 -3.60766,-2.92578c-0.55383,-0.94922 -1.26366,-1.78125 -2.1529,-2.41015c0.039,9.2539 -0.07801,18.51172 0.0624,27.76172l3.89628,0c-0.00389,-6.46094 -0.0585,-12.92188 -0.0351,-19.38282"/>
   <path stroke="null" id="svg_66" fill="rgb(13.330078%,40.795898%,25.87738%)" fill-rule="nonzero" d="m79.67675,87.84375c0.0078,-0.01953 0.01561,-0.04297 0.0234,-0.0625c0.20671,-2.04688 1.82918,-1.95313 1.82918,-1.95313l0,2.27735l-1.85259,0c0.0039,-0.09375 0.0117,-0.17579 0.0195,-0.26563c-0.00389,0.00391 -0.0117,0.00391 -0.0195,0.00391m28.42841,3.76172c0.1404,-6.51563 -0.07801,-13.86719 -0.03511,-20.30469c-0.1833,-1.21875 0.84244,-1.94141 1.59127,-2.69141c-2.2972,-1.13281 -3.39705,-3.5664 -5.41735,-5.02734c0.039,8.01562 0.05461,16.03906 -0.0234,24.0625c-6.36899,-0.03516 -12.73018,-0.01172 -19.08748,0.08984c0.08581,-4.1875 -0.0546,-8.375 0.04681,-12.57031c-1.68488,1.37109 -3.54526,2.47266 -5.38225,3.60547c0.50703,0.5 1.02965,0.99219 1.56398,1.47656c-0.0273,0.65234 -0.06631,1.30859 -0.1326,1.96484c-1.38847,0.63672 -3.06554,0.98829 -4.00549,2.3125c-1.29876,1.77344 -1.00235,4.78516 -0.99065,7.08204"/>
   <path stroke="null" id="svg_67" fill="rgb(13.330078%,40.795898%,25.87738%)" fill-rule="nonzero" d="m121.57637,119.08984l-2.90953,0l0,-1.91406l0.79954,-1l1.31046,0l0.79954,1l0,1.91406zm3.68177,-2.95703c-0.2613,-0.78125 -0.90874,-1.33984 -1.31046,-2.03906c0.43293,-0.9961 1.54838,-1.71875 1.41187,-2.92969c0,-0.61719 -0.0117,-1.23438 -0.01561,-1.85156c0.02731,-2.17969 -0.0156,-4.35938 -0.00389,-6.53907c0.00389,-0.59765 0.0078,-1.19531 0.02339,-1.79296c0.16382,-0.08204 0.40172,-0.20313 0.64353,-0.32422c0.15601,-0.07813 0.30812,-0.15625 0.45243,-0.22657c0.03511,-0.01953 0.0702,-0.03906 0.10531,-0.05468c0.10531,-0.05469 0.20671,-0.10547 0.28861,-0.14453c-0.52652,-0.39844 -1.01404,-0.83594 -1.48597,-1.28907c-0.40952,-0.39453 -0.80733,-0.80859 -1.19345,-1.22656c-0.28081,-0.30078 -0.55773,-0.60156 -0.83074,-0.90234c-0.20672,-0.22266 -0.41343,-0.44532 -0.62013,-0.66797c-0.40171,-0.42969 -0.80733,-0.85938 -1.23245,-1.26953c-0.01561,1.66015 -0.02731,3.32422 -0.0429,4.98437c0.00389,0.97266 0.0078,1.94531 0.0117,2.91406c0,1.30079 0.00389,2.60547 0.00389,3.90625c-0.0273,0.89454 0.03511,1.88672 -0.00389,2.85157c-0.0312,0.76562 -0.12481,1.51953 -0.39002,2.19531c-0.11701,0.00391 -0.26521,0.00391 -0.42121,0.00391l-0.0234,0c-0.16381,-0.00391 -0.33542,-0.00782 -0.50313,-0.01172l0,0.01172c-0.46802,0 -0.85803,0 -0.94774,-0.00391c-0.26911,-0.67578 -0.36272,-1.42969 -0.39392,-2.19531c-0.0351,-0.96485 0.02731,-1.95703 0,-2.85157c-0.00389,-1.30078 0,-2.60546 0.0039,-3.90625c0.0039,-0.96875 0.0039,-1.9414 0.0117,-2.91406c-0.01561,-1.66015 -0.02731,-3.32422 -0.0429,-4.98437c-0.42512,0.41015 -0.83074,0.83984 -1.23636,1.26953c-0.20671,0.22265 -0.41342,0.44531 -0.61623,0.66797c-0.27302,0.30078 -0.54992,0.60156 -0.83074,0.90234c-0.39002,0.41797 -0.78394,0.83203 -1.19345,1.22656c-0.47193,0.45313 -0.95945,0.89063 -1.48597,1.28907c0.0819,0.03906 0.1833,0.08984 0.28861,0.14453c0.0351,0.01562 0.0663,0.03515 0.10531,0.05468c0.14431,0.07032 0.29641,0.14844 0.44852,0.22657c0.24571,0.12109 0.47971,0.24218 0.64742,0.32422c0.01561,0.59765 0.01561,1.19531 0.0195,1.79296c0.01561,2.17969 -0.0273,4.35938 -0.00389,6.53907c-0.0039,0.61718 -0.0117,1.23437 -0.0117,1.85156c-0.13651,1.21094 0.97895,1.93359 1.41186,2.92969c-0.40171,0.69922 -1.05305,1.25781 -1.31046,2.03906c-0.1716,2.15234 0.0078,4.30859 -0.1092,6.45703l10.49148,0c-0.1209,-2.14844 0.0624,-4.30469 -0.10921,-6.45703"/>
   <path stroke="null" id="svg_68" fill="rgb(13.330078%,40.795898%,25.87738%)" fill-rule="nonzero" d="m108.39377,103.09765c-0.1326,-1.11718 0.86584,-1.74218 1.59907,-2.36328c0.08581,-0.16015 0.25741,-0.48437 0.34712,-0.64453c-2.76133,-0.73828 -3.56087,-3.78906 -5.86587,-5.08594c0.05461,9.19532 0.32372,18.38672 0.11701,27.58594l3.88848,0c0.0546,-6.49609 0.0663,-12.99609 -0.08581,-19.49219"/>
   <path stroke="null" id="svg_69" fill="rgb(13.330078%,40.795898%,25.87738%)" fill-rule="nonzero" d="m132.07176,103.20703c-0.1794,-1.35547 1.09595,-2.1211 1.83699,-3.04297c-1.37286,-0.73047 -2.78474,-1.5625 -3.60766,-2.92969c-0.55383,-0.94531 -1.25976,-1.77734 -2.1529,-2.40625c0.039,9.25391 -0.07801,18.51172 0.0663,27.76172l3.89238,0c0,-6.46094 -0.0585,-12.92187 -0.03511,-19.38281"/>
   <path stroke="null" id="svg_70" fill="rgb(13.330078%,40.795898%,25.87738%)" fill-rule="nonzero" d="m81.57613,119.35547l-1.85258,0c0.0585,-2.38672 1.85258,-2.27344 1.85258,-2.27344l0,2.27344zm17.78092,-22.10547c-0.56942,-0.9961 -1.23636,-1.92578 -2.0944,-2.6836c-0.0936,0.88282 -0.14431,1.76953 -0.1092,2.66016c0.1833,7.22656 -0.10921,14.45312 0.0507,21.67969c-1.66147,0 -3.32685,0.05468 -4.97663,0.03515c0.04681,-5.42187 -0.0468,-10.84375 0.0039,-16.26562c-0.17551,-1.17578 0.91264,-1.88281 1.56398,-2.6875c-2.2075,-1.30469 -3.58816,-3.48438 -5.44856,-5.17578c0.15991,8.03906 0.12481,16.08593 0,24.125c-1.04524,0.01172 -2.0905,0.02734 -3.12404,0.03906c0.0351,-4.21875 0.0351,-8.43359 -0.0195,-12.64844c-1.68878,1.31641 -3.38536,2.60547 -5.25354,3.66016c1.20125,0.8164 1.59907,2.07812 1.45477,3.49219c-1.50937,0.55078 -3.25275,0.95703 -4.19269,2.39062c-1.29096,1.99609 -0.87754,4.46875 -0.92044,6.71875l24.29031,0c0.12481,0 0.24571,0 0.37051,-0.00391c-0.1209,-5.125 -0.30421,-10.2539 -0.0585,-15.38671c0.0897,-1.78516 -0.37051,-3.61329 0.14041,-5.36719c0.37831,-0.76563 1.09205,-1.28516 1.66537,-1.90625c-1.19345,-0.77344 -2.62872,-1.37891 -3.34245,-2.67578"/>
   <path stroke="null" id="svg_71" fill="rgb(13.330078%,40.795898%,25.87738%)" fill-rule="nonzero" d="m23.23336,68.1289c3.76758,-8.70312 8.7364,-16.9375 15.08199,-24.00781c1.13495,0.42969 1.90719,1.4375 2.76523,2.25391c-1.31436,1.89843 -3.20595,3.33593 -4.2668,5.42968c-2.4064,2.8711 -4.07178,6.25 -6.11548,9.375c-0.99454,1.88282 -1.91888,3.8125 -2.81983,5.75c1.17396,0.59375 3.17475,1.4375 3.92749,-0.1914c2.50391,-5.33594 5.68255,-10.33985 9.39943,-14.90625c0.72933,-1.05469 1.40797,-2.20703 2.54292,-2.89063c0.45242,2.04297 1.20125,4.01172 2.2231,5.83594c-1.09205,0.14844 -2.45321,-0.375 -3.32296,0.47656c-3.56086,4.30078 -6.03358,9.32422 -8.6935,14.19532c-0.61233,1.4414 -2.2855,1.99218 -3.73247,1.65625c-2.61702,-0.19922 -4.61001,-2.08204 -6.98912,-2.97657"/>
   <path stroke="null" id="svg_72" fill="rgb(13.330078%,40.795898%,25.87738%)" fill-rule="nonzero" d="m72.67983,19.98047c1.75898,-0.83985 3.63107,-1.38672 5.46414,-2.04297c1.80579,3.03125 -0.0468,6.28125 -1.20515,9.14453c2.83153,2.49219 6.95403,3.8164 8.31519,7.67969c1.37286,3.46093 -1.70048,6.30078 -2.54682,9.44921c-4.4501,-3.57421 -9.29413,-6.58984 -13.90024,-9.96484c-1.01404,-0.88672 -2.11,0.60547 -3.14744,0.8125c-0.90875,-0.53906 -1.64978,-1.30859 -2.34791,-2.07422c-0.13651,0.07031 -0.42122,0.21485 -0.56163,0.28906c1.96179,-1.17578 3.73636,-2.70703 5.90876,-3.51171c2.1022,0.71875 3.32686,2.82031 5.28865,3.8164c2.58972,1.45313 4.72701,4.32813 7.94466,4.24219c-0.23791,-1.32031 -0.53042,-2.71875 -1.48597,-3.72656c-2.49221,-2.29297 -5.45245,-3.98047 -8.35028,-5.69141c0.59672,-1.72266 1.98519,-3.12109 2.06709,-5.04687c-3.69736,1.82812 -7.64435,3.19531 -11.04531,5.57031c-3.09674,1.58594 -5.74497,3.85156 -8.674,5.69922c-1.15055,0.8125 -2.0515,1.91797 -3.18645,2.74218c-2.3167,1.58985 -4.01328,3.89844 -6.29488,5.52344c-0.42122,-1.16015 -1.82529,-2.41406 -1.32216,-3.64453c5.99457,-5.75391 12.58977,-10.96875 19.94942,-14.87109c2.83543,-1.88282 6.11937,-2.86328 9.13032,-4.39453"/>
   <path stroke="null" id="svg_73" fill="rgb(13.330078%,40.795898%,25.87738%)" fill-rule="nonzero" d="m67.86311,160.23437c1.07255,-1.22265 1.31826,-3.26562 2.88223,-3.95703c0.72933,2.51172 1.04524,5.12891 1.86818,7.62109c-0.97895,0.35938 -2.1139,0.44922 -2.94073,1.10547c-3.06164,4.9375 -6.20518,9.83985 -9.20833,14.8125c-1.08035,0.32032 -2.1412,-0.64453 -3.09284,-1.07812c-0.91654,-0.39844 -0.21452,-1.41016 0.1521,-1.94922c1.74728,-2.42578 3.23325,-5.01563 4.68412,-7.625c2.02419,-2.89063 3.44386,-6.16016 5.65526,-8.92969"/>
   <path stroke="null" id="svg_74" fill="rgb(13.330078%,40.795898%,25.87738%)" fill-rule="nonzero" d="m24.2279,78.80078c1.36507,0 2.47272,1.10937 2.47272,2.47656c0,1.36719 -1.10766,2.47656 -2.47272,2.47656c-1.36506,0 -2.47271,-1.10937 -2.47271,-2.47656c0,-1.36719 1.10766,-2.47656 2.47271,-2.47656m39.29821,71.26953c-0.16381,0.02734 -0.48363,0.08594 -0.64743,0.11328c-3.81828,6.32031 -8.07337,12.37109 -11.85264,18.71875c-0.88534,0.15625 -1.47427,-0.57422 -2.0632,-1.08203c-2.53902,-2.42578 -5.23014,-4.70313 -7.46104,-7.42188c2.50391,-1.94531 4.74651,-4.20312 7.45714,-5.86718c-1.31827,-0.97266 -2.80813,-1.67578 -4.13029,-2.62891c-1.04915,2.59766 -3.76367,3.82422 -5.70597,5.64844c-2.06709,-2.56641 -4.26289,-5.10547 -5.72156,-8.07422c2.69503,-1.35156 5.01563,-3.30859 7.75747,-4.57031c-0.0039,-0.14844 -0.01561,-0.45313 -0.01951,-0.60157c-1.07254,-1.02343 -2.2153,-1.94531 -3.26834,-2.97265c-1.52887,2.40625 -4.2161,3.5664 -6.6654,4.79297c-1.66148,-2.37891 -2.42202,-5.2461 -4.09129,-7.61328c0.1326,-0.15625 0.39392,-0.45313 0.53042,-0.60547c2.90953,-1.01953 5.65526,-2.42188 8.46339,-3.69922c-1.31046,-1.00781 -2.41421,-2.22266 -3.32685,-3.59375c-1.63418,2.34765 -4.59831,3.01172 -7.09052,4.0625c-2.73793,-6.55469 -4.3292,-13.52344 -5.15994,-20.57422c3.29955,0.58594 5.96727,2.67578 9.01331,3.89844c-0.1794,-1.53516 -0.2418,-3.08203 -0.52262,-4.59766c-1.92669,-0.92187 -4.09129,-1.4375 -6.11548,-2.16797c1.82918,-1.17187 3.90018,-1.83984 5.88537,-2.6875c-0.0507,-1.68359 -0.13261,-3.36328 -0.31201,-5.03906c-1.58738,0.77344 -2.68723,2.21484 -4.2044,3.08203c-1.43136,0.82813 -2.85883,1.63672 -4.2863,2.45313c-0.40562,-2.92969 -0.32372,-5.89063 -0.26131,-8.84375c-0.0429,-4.44922 1.12716,-8.76563 1.54837,-13.17188c2.35571,0.04297 4.92983,0.04688 6.83702,-1.57031c1.32996,-1.20313 2.88613,-2.10938 4.21999,-3.3086c-0.70593,-0.08984 -1.40796,-0.16406 -2.10609,-0.22265c-0.85025,-1.84375 -1.50157,-4.02735 -3.37756,-5.10156c-1.18565,-0.79297 -2.78473,-1.30469 -4.20829,-1.04688c-0.65913,0.11719 -1.28316,0.38281 -1.80578,0.89453c-1.54057,1.03906 -1.81749,3 -2.23871,4.66406c-0.0819,-0.03906 -0.17161,-0.07812 -0.25352,-0.11718c-1.08815,-0.5 -2.266,-1.00391 -2.80423,-2.14844c-1.10766,-1.95313 -0.31592,-4.23047 -0.34712,-6.32422c-2.04369,2.07031 -3.68177,5.21875 -2.41811,8.12891c0.67863,2.25 2.74573,3.47656 4.5398,4.77343c-1.17395,5.76563 -1.79408,11.73438 -1.79408,17.84766c0,29.33594 14.23565,55.33594 36.16246,71.46094l0.42902,-0.67578c0.07409,-0.08985 0.1404,-0.1875 0.19501,-0.30469c0.24961,-0.40234 0.50312,-0.79688 0.75273,-1.19922c3.04605,-4.875 6.21299,-9.67578 9.26293,-14.55078c0.58892,-0.90234 1.79798,-0.89844 2.70673,-1.30859c-0.41732,-2.30469 -0.95945,-4.57422 -1.50157,-6.84766"/>
   <path stroke="null" id="svg_75" fill="rgb(13.330078%,40.795898%,25.87738%)" fill-rule="nonzero" d="m183.85054,134.75781c-1.16225,1.57031 0.35492,3.21875 1.67318,4.03125c0.92434,-0.28906 2.1022,-0.16406 2.81983,-0.94531c0.92825,-0.70703 0.78004,-2.05078 0.53432,-3.04688c-0.90484,-2.03906 -4.08739,-2.05469 -5.02732,-0.03906m-17.88233,-15.71094c1.57568,-1.63281 3.21765,-3.20312 4.82842,-4.8125c1.27926,0.54688 2.32841,1.73828 3.85337,1.60938c6.25589,-0.00782 12.48057,0.8164 18.74817,0.79297c-0.50702,4.9375 -1.74339,9.75781 -3.39706,14.42968c1.06085,1.13282 2.45322,2.27344 2.45322,3.97266c0.32371,2.12891 -0.46802,4.33984 -2.12951,5.71094c-1.26756,1.23828 -3.13185,1.23828 -4.75821,1.58593c-1.07645,2.71485 -2.79643,5.10547 -4.16149,7.67579c1.76678,1.59375 4.2473,2.91015 4.62561,5.49218c0.15991,2.05469 -0.72933,4.72266 -2.93293,5.28516c-0.078,-1.28125 -0.0195,-2.57031 -0.039,-3.85547c-1.97739,-2.05078 -4.51641,-3.45312 -7.07102,-4.64062c-1.19345,-0.64063 -2.55852,-0.625 -3.85728,-0.6211c0.0702,-2.10547 0.0156,-4.21484 -0.28862,-6.30469c1.97739,0.99219 3.76758,2.3711 5.88148,3.10157c1.82138,-2.21094 3.05384,-4.92188 4.4111,-7.46094c-2.0242,-2.35156 -3.00704,-6.14844 -0.80734,-8.71484c1.10375,-1.94922 3.38146,-2.46094 5.39785,-2.89063c0.98675,-2.92187 1.77848,-5.89844 2.39471,-8.92578c-3.79097,-0.65625 -7.62875,-0.86328 -11.45872,-1.08594c-3.88458,-0.4414 -7.79645,-0.43359 -11.69274,-0.34375"/>
   <path stroke="null" id="svg_76" fill="rgb(13.330078%,40.795898%,25.87738%)" fill-rule="nonzero" d="m76.95443,167.84765c1.48987,-3.07422 5.30424,-2.96484 7.87446,-4.63281c0.44071,2.17578 0.72543,4.39453 1.48206,6.49219c1.18565,3.53515 1.67708,7.26172 2.83153,10.80469c0.79174,0.26562 2.06709,-0.1875 2.58192,0.6914c0.39781,1.03125 0.47582,2.15625 0.70593,3.23828c-2.2543,-0.25 -4.4501,-0.8164 -6.6849,-1.16797c-1.07645,-4.90625 -1.59127,-10.02734 -3.74417,-14.61718c-0.28472,0.02343 -0.84634,0.07031 -1.12716,0.08984c-1.53277,2.77734 -0.53042,5.90234 0.24961,8.73438c0.45242,1.625 0.87364,3.26171 1.42747,4.85546c-1.50157,0.32032 -2.94854,0.82032 -4.34481,1.45704c0,0.20312 -0.00389,0.61718 -0.00389,0.82421c5.30814,2.04688 10.97511,2.89454 16.57576,3.71094c5.96338,0.49219 11.97745,0.91406 17.95253,0.20703c-0.27302,1.29297 -0.63573,2.5625 -1.02965,3.82422c-6.73561,0.46485 -13.53752,0.28906 -20.20293,-0.79687c-7.02422,-0.71875 -13.65453,-3.20703 -20.28483,-5.47657c0.56552,-3.4414 4.04839,-4.76953 6.6303,-6.44531c-0.62403,-3.85547 -2.59361,-7.94922 -0.88924,-11.79297"/>
   <path stroke="null" id="svg_77" fill="rgb(13.330078%,40.795898%,25.87738%)" fill-rule="nonzero" d="m167.09147,111.27343c2.1724,-1.74218 3.81437,-4.07812 6.18959,-5.57421c0.97895,0.55859 1.66538,1.71093 2.84713,1.85937c6.02188,0.25781 12.07886,0.12891 18.08124,0.73828c-0.04681,1.20703 -0.1131,2.41016 -0.17941,3.61328c-8.98211,-0.10937 -17.96423,-0.46484 -26.93854,-0.63672"/>
   <path stroke="null" id="svg_78" fill="rgb(13.330078%,40.795898%,25.87738%)" fill-rule="nonzero" d="m165.42609,155.22265c1.75118,-1.07422 3.99769,-0.6289 5.51876,0.64453c1.40796,1.00782 2.82372,2.125 3.67396,3.67969c-2.72622,3.82031 -6.26758,6.96485 -9.56323,10.27735c-5.64746,5.01562 -11.90335,9.32031 -18.55315,12.88671c-3.91188,1.73047 -7.69116,3.8086 -11.82925,4.97266c-3.73247,1.02734 -7.33234,2.59766 -11.20521,3.05859c0.15601,2.08594 0.90094,4.47266 -0.40952,6.34375c-1.16225,1.14844 -2.90564,1.40625 -4.4579,1.13672c0.56163,-0.61718 1.20125,-1.22265 1.55226,-2c0.39782,-2.30859 -0.44071,-4.57812 -0.85414,-6.82422c-0.38611,-1.72265 -1.50156,-3.1289 -2.67162,-4.38281c1.72778,-1.11719 3.05774,-2.6914 4.4111,-4.21484c0.59283,2.14062 1.24026,4.27344 1.65758,6.45703c5.15213,-0.98828 10.03126,-2.90625 14.98449,-4.58594c10.7996,-4.62109 20.84646,-11.15234 28.99004,-19.67969c1.06085,-1.25 2.2348,-2.41406 3.53356,-3.42578c-0.90875,-0.7539 -2.01639,-1.91406 -3.31126,-1.30078c-1.09985,0.69141 -1.94229,1.71094 -2.90563,2.5625c-5.48365,5.76172 -11.96965,10.5 -18.84957,14.45313c-2.1334,1.02734 -4.25119,2.09375 -6.36119,3.16015c-2.63262,1.30469 -5.54996,1.85157 -8.18258,3.12891c-0.68643,0.28516 -1.43136,0.35937 -2.13339,0.51172c1.85258,-2.42188 2.94463,-5.28906 4.58271,-7.85156c1.16225,-1.95313 1.93449,-4.12891 3.17864,-6.04297c-0.02339,3.01953 -1.49376,5.72656 -2.3245,8.5625c9.56323,-3.58594 18.28014,-9.31641 25.67488,-16.34766c2.11,-1.55859 3.31515,-4.17578 5.85417,-5.17969"/>
   <path stroke="null" id="svg_79" fill="rgb(13.330078%,40.795898%,25.87738%)" fill-rule="nonzero" d="m118.88525,174.85547c0,-1.20704 -0.97895,-2.1836 -2.1802,-2.1836c-1.20515,0 -2.1841,0.97656 -2.1841,2.1836c0,1.20703 0.97895,2.18359 2.1841,2.18359c1.20125,0 2.1802,-0.97656 2.1802,-2.18359"/>
   <path stroke="null" id="svg_80" fill="rgb(13.330078%,40.795898%,25.87738%)" fill-rule="nonzero" d="m131.84555,17.98437c1.30266,0.34766 2.58192,0.78906 3.87288,1.1875c-1.36897,5.1875 -3.33466,10.16797 -4.68802,15.35156c-0.76833,3.3711 -2.42981,6.44141 -3.14744,9.82422c-1.30656,-2.375 -2.55072,-4.79687 -3.77928,-7.20703c0.91654,-0.75781 2.1022,-1.30859 2.57022,-2.49219c0.85804,-1.96875 1.20126,-4.1289 1.93059,-6.14453c1.34946,-3.41797 2.32841,-6.96875 3.24105,-10.51953"/>
   <path stroke="null" id="svg_81" fill="rgb(13.330078%,40.795898%,25.87738%)" fill-rule="nonzero" d="m139.92281,21.02734c2.56633,0.87891 5.06633,2.00391 7.39085,3.41016c12.71848,6.67578 23.61558,16.67187 31.70066,28.51953c2.09829,2.53125 3.30735,5.63281 5.14433,8.33594c2.39862,5.05078 4.88303,10.09375 6.31049,15.52734c2.57022,7.60156 3.68567,15.64062 3.83388,23.64844c-1.75508,0.03515 -3.50236,0.1289 -5.24964,0.14843c0.65133,-1.20703 1.28706,-2.48828 1.18565,-3.90625c0.0273,-5.55468 -1.17396,-11.03515 -2.47662,-16.40625c-1.09595,-2.82812 -1.86038,-5.76953 -2.95634,-8.59765c-2.87444,-7.33594 -6.87992,-14.17188 -11.54063,-20.50391c-0.15601,-0.0664 -0.45243,-0.1914 -0.60064,-0.25c-0.53432,0.76172 -1.12325,1.49219 -1.52106,2.33203c-0.01561,1.23438 0.93214,2.13672 1.59907,3.06641c4.2239,6.26172 7.88616,12.98047 10.17556,20.21484c2.51562,6.22657 3.24106,12.95313 4.11859,19.55469c-2.2231,-1.49219 -3.91968,-3.60156 -6.02577,-5.23047c-1.60297,-1.22656 -3.11235,-2.57422 -4.78552,-3.70312c-0.43292,-0.41016 -0.85024,-0.84766 -1.22076,-1.30469c2.90954,0.89062 5.53826,2.49609 7.98367,4.28906c-1.24416,-5.16015 -2.0359,-10.5039 -4.3565,-15.33203c-1.26366,-3.90234 -3.30346,-7.45703 -5.20675,-11.06641c-1.56787,-2.89843 -3.81828,-5.39453 -5.18724,-8.39062c-1.16225,-2.64453 0.47193,-5.49219 2.67162,-6.97656c-1.52887,-2.2461 -3.50236,-4.11328 -5.47585,-5.96094c-1.51718,2.41016 -4.96884,3.84766 -4.56322,7.15625c-1.74338,-0.71875 -3.54136,-1.26563 -5.38224,-1.62891c2.3245,-2.83203 4.88302,-5.46484 7.20753,-8.29687c-2.87444,-2.2461 -5.49536,-4.83203 -8.65059,-6.6875c-1.73948,2.34375 -4.1966,4.64453 -3.88458,7.83203c-1.56787,-0.82813 -3.30345,-1.15625 -5.02733,-1.46484c1.71218,-3.01954 3.98209,-5.66016 5.83857,-8.58204c-2.91344,-1.50781 -5.53825,-3.55859 -8.65059,-4.66406c-0.89314,4.13281 -2.51952,8.03906 -3.52576,12.14063c-0.72933,3.39062 -2.03979,6.62109 -2.81593,9.99218c-0.19111,-0.00781 -0.56943,-0.01562 -0.76054,-0.02343c-0.70204,-2.24219 -2.51952,-3.91407 -3.16305,-6.15625c0.63573,-0.17578 1.26365,-0.38282 1.89549,-0.6211c1.20905,-1.99609 1.24025,-4.41015 1.99299,-6.5664c1.61857,-4.52735 2.74182,-9.21094 3.97818,-13.84766"/>
   <path stroke="null" id="svg_82" fill="rgb(13.330078%,40.795898%,25.87738%)" fill-rule="nonzero" d="m160.18035,24.90234c0,-1.20312 -0.97895,-2.18359 -2.1841,-2.18359c-1.20515,0 -2.18021,0.98047 -2.18021,2.18359c0,1.20703 0.97505,2.1875 2.18021,2.1875c1.20515,0 2.1841,-0.98047 2.1841,-2.1875"/>
   <path stroke="null" id="svg_83" fill="rgb(13.330078%,40.795898%,25.87738%)" fill-rule="nonzero" d="m156.54149,53.85937c0,-1.20703 -0.97895,-2.18359 -2.18021,-2.18359c-1.20515,0 -2.1841,0.97656 -2.1841,2.18359c0,1.20703 0.97895,2.1836 2.1841,2.1836c1.20126,0 2.18021,-0.97657 2.18021,-2.1836"/>
   <g stroke="null" id="svg_84" clip-rule="nonzero" clip-path="url(#clip1)">
    <path stroke="null" id="svg_85" fill="rgb(13.330078%,40.795898%,25.87738%)" fill-rule="nonzero" d="m105.08642,207.49609c-56.29518,0 -102.09109,-45.86719 -102.09109,-102.24609c0,-51.96485 38.90428,-95 89.06839,-101.42188c0.56553,4.3711 3.27615,8.06641 7.04373,10c-4.2473,2.17969 -7.15683,6.59766 -7.15683,11.70313c0,5.10547 2.90953,9.51953 7.15683,11.69922c-4.2473,2.17968 -7.15683,6.59765 -7.15683,11.70312c0,0.03516 0.0039,0.06641 0.0039,0.10156c-25.50327,5.95313 -44.51275,28.85547 -44.51275,56.21485c0,31.88281 25.80749,57.73047 57.64465,57.73047c31.83716,0 57.64464,-25.84766 57.64464,-57.73047c0,-27.35938 -19.00947,-50.26172 -44.51664,-56.21485c0,-0.03515 0.00389,-0.0664 0.00389,-0.10156c0,-5.10547 -2.90953,-9.52344 -7.15293,-11.70312c4.24339,-2.17969 7.15293,-6.59375 7.15293,-11.69922c0,-5.10547 -2.90953,-9.52344 -7.15293,-11.70313c3.76367,-1.93359 6.4743,-5.6289 7.03982,-10c50.16411,6.42188 89.06839,49.45703 89.06839,101.42188c0,56.3789 -45.7959,102.24609 -102.08719,102.24609m-10.19117,-181.96484c0,-5.62891 4.571,-10.20703 10.19117,-10.20703c5.61626,0 10.18726,4.57812 10.18726,10.20703c0,5.625 -4.571,10.20312 -10.18726,10.20312c-5.62016,0 -10.19117,-4.57812 -10.19117,-10.20312m10.19117,21.98437c-3.47116,0 -6.86432,0.32422 -10.16387,0.91016c0.26522,-5.39063 4.71532,-9.69922 10.16387,-9.69922c5.44465,0 9.89476,4.30859 10.16387,9.69922c-3.30346,-0.58594 -6.69661,-0.91016 -10.16387,-0.91016m-9.87135,3.91016c3.20205,-0.58985 6.4977,-0.91016 9.87135,-0.91016c3.36975,0 6.6615,0.32031 9.86745,0.91016c0.97115,0.17578 1.93059,0.3789 2.88223,0.60547c24.0017,5.77343 41.89962,27.43359 41.89962,53.21875c0,30.17968 -24.51652,54.73047 -54.64931,54.73047c-30.13668,0 -54.64932,-24.55079 -54.64932,-54.73047c0,-25.78516 17.89403,-47.44532 41.89573,-53.21875c0.95165,-0.22657 1.91109,-0.42969 2.88223,-0.60547m9.87135,-48.42578c3.40096,0 6.76681,0.17187 10.08586,0.5c-0.67473,4.97656 -4.93762,8.83203 -10.08586,8.83203c-5.15214,0 -9.41504,-3.85547 -10.08586,-8.83203c3.31905,-0.32813 6.681,-0.5 10.08586,-0.5m13.0656,-2.19141c-1.00235,-0.125 -2.0125,-0.23437 -3.02265,-0.32812c-3.30735,-0.3125 -6.65761,-0.48047 -10.04296,-0.48047c-3.38925,0 -6.73951,0.16797 -10.04686,0.48047c-1.01015,0.09375 -2.0203,0.20312 -3.02264,0.32812c-51.86848,6.44531 -92.01693,50.74609 -92.01693,104.44141c0,58.125 47.04786,105.24609 105.08643,105.24609c58.03467,0 105.08252,-47.12109 105.08252,-105.24609c0,-53.69532 -40.14844,-97.9961 -92.01692,-104.44141"/>
   </g>
  </g>
 </g>
</svg>